<svg width="40" height="40" viewBox="0 0 40 40" fill="none" xmlns="http://www.w3.org/2000/svg">
<path d="M24.0854 26.5836H25.5424L24.8136 24.8523L24.0854 26.5836Z" fill="#822820"/>
<path d="M30.181 20.7532H21.1313V22.4504C21.1313 23.1738 20.5425 23.7588 19.8229 23.7588C19.4741 23.7588 19.1469 23.6243 18.9035 23.3772L17.9475 22.4287V29.4104C17.9475 30.239 18.6199 30.9114 19.4487 30.9114H30.181C31.0097 30.9114 31.682 30.239 31.682 29.4104V22.2542C31.682 21.4256 31.0097 20.7532 30.181 20.7532ZM27.1573 28.8761C27.081 28.9088 27.0046 28.9233 26.9246 28.9233C26.6919 28.9233 26.4703 28.7853 26.3722 28.5563L26.0486 27.7822H23.5808L23.2538 28.5563C23.1265 28.8616 22.7741 29.0033 22.4689 28.8761C22.1635 28.7489 22.0217 28.3964 22.1489 28.091L24.2606 23.0719C24.4496 22.6286 25.1802 22.6286 25.3654 23.0719L27.477 28.091C27.6078 28.3964 27.4625 28.7489 27.1573 28.8761Z" fill="#822820"/>
<path d="M27.6323 16.8485V16.9105L27.0306 16.309C26.7963 16.0746 26.4167 16.0746 26.1824 16.309C25.948 16.5433 25.948 16.9232 26.1824 17.1572L27.808 18.7826C27.9205 18.8951 28.0734 18.9583 28.2321 18.9583C28.3915 18.9583 28.5439 18.8951 28.6563 18.7826L30.2813 17.1572C30.5157 16.9229 30.5157 16.543 30.2813 16.309C30.047 16.0746 29.6674 16.0746 29.4331 16.309L28.8321 16.9102V16.8485C28.8321 14.4039 26.8432 12.415 24.398 12.415C24.0664 12.415 23.7981 12.6836 23.7981 13.0149C23.7981 13.3462 24.0664 13.6148 24.398 13.6148C26.1812 13.6148 27.6323 15.0656 27.6323 16.8485Z" fill="#822820"/>
<path d="M15.5374 26.5996H14.7747C12.9914 26.5996 11.5404 25.1489 11.5404 23.3656V23.0219L12.142 23.6234C12.2592 23.7405 12.4126 23.7991 12.5661 23.7991C12.7196 23.7991 12.8731 23.7405 12.9903 23.6234C13.2246 23.3891 13.2246 23.0094 12.9903 22.7751L11.3646 21.1494C11.1396 20.9245 10.7413 20.9245 10.5164 21.1494L8.89129 22.7751C8.657 23.0094 8.657 23.3893 8.89129 23.6234C9.12566 23.8577 9.50523 23.8577 9.73961 23.6234L10.3406 23.0221V23.3656C10.3406 25.8106 12.3295 27.7994 14.7747 27.7994H15.5374C15.869 27.7994 16.1373 27.5308 16.1373 27.1995C16.1373 26.8682 15.869 26.5996 15.5374 26.5996Z" fill="#822820"/>
<path d="M20.6012 9.03857H9.86951C9.04066 9.03857 8.36816 9.71072 8.36816 10.5398V17.6945C8.36816 18.5239 9.04066 19.1961 9.86951 19.1961H16.2451L19.6709 22.6046C19.8074 22.7407 20.04 22.6436 20.04 22.4512V19.1961H20.6012C21.4307 19.1961 22.1026 18.5239 22.1026 17.6945V10.5404C22.1026 9.71072 21.4301 9.03857 20.6012 9.03857ZM17.6452 13.5614H16.8695C16.5994 14.1362 16.2521 14.6665 15.8665 15.1425L17.0462 16.2547L17.3188 16.5117C17.5587 16.7371 17.5695 17.1187 17.3444 17.3585C17.2509 17.4575 17.1317 17.5054 17.0087 17.5268C16.9741 17.533 16.9408 17.5476 16.9059 17.5476H16.9045C16.8696 17.5476 16.8354 17.5341 16.8005 17.5279C16.7311 17.5154 16.666 17.4905 16.6033 17.4532C16.5663 17.431 16.5266 17.4148 16.4937 17.3839L15.9849 16.9036L15.065 16.036C14.9343 16.1657 14.8071 16.285 14.6825 16.3992C14.0017 17.0246 13.444 17.4118 13.3944 17.4453C13.3886 17.4492 13.3821 17.4505 13.3762 17.4539C13.2858 17.5111 13.1856 17.5397 13.0838 17.5441C13.0755 17.5444 13.0676 17.5476 13.0593 17.5476C12.8671 17.5476 12.6774 17.4548 12.5614 17.2827C12.535 17.2437 12.5254 17.1996 12.5093 17.1574C12.469 17.0519 12.4491 16.9415 12.4702 16.8338C12.4994 16.6828 12.5863 16.5432 12.7243 16.4503C12.7246 16.4501 12.73 16.4463 12.7319 16.4452C12.8047 16.393 14.2488 15.3869 15.2458 13.9846C15.3437 13.8466 15.4388 13.7064 15.5262 13.5614H12.8262C12.4946 13.5614 12.2262 13.2927 12.2262 12.9615C12.2262 12.7128 12.3774 12.4996 12.5931 12.4086C12.6649 12.3784 12.7438 12.3613 12.8267 12.3613H14.6352V11.2873C14.6352 11.146 14.6913 11.0218 14.7728 10.9192C14.8822 10.7801 15.0441 10.6857 15.2363 10.6857C15.5671 10.6857 15.8361 10.9547 15.8361 11.2889V12.3613H17.646C17.9767 12.3613 18.2457 12.63 18.2457 12.9609C18.2457 13.044 18.2286 13.123 18.198 13.195C18.1069 13.4101 17.8939 13.5614 17.6452 13.5614Z" fill="#822820"/>
</svg>
