<svg width="40" height="40" viewBox="0 0 40 40" fill="none" xmlns="http://www.w3.org/2000/svg">
<path fill-rule="evenodd" clip-rule="evenodd" d="M21.5768 8.01184L34.4955 29.2315C34.7121 29.5376 34.8391 29.9081 34.8391 30.31C34.8391 31.3406 34.0042 32.1755 32.9736 32.1755H6.86334C5.83484 32.1755 5 31.3406 5 30.31C5 29.9081 5.12701 29.5376 5.34351 29.2315L18.2602 8.01184C18.5683 7.41013 19.1971 7 19.9196 7C20.642 7 21.2687 7.41013 21.5768 8.01184ZM19.9196 13.527C18.8911 13.527 18.0541 14.3661 18.0541 15.3925V21.9196C18.0541 22.9397 18.8952 23.7829 19.9196 23.7829C20.9438 23.7829 21.783 22.946 21.783 21.9196V15.3925C21.783 14.3702 20.9398 13.527 19.9196 13.527ZM19.9196 25.6484C18.8869 25.6484 18.0541 26.4854 18.0541 27.5139C18.0541 28.5444 18.8869 29.3793 19.9196 29.3793C20.9501 29.3793 21.783 28.5444 21.783 27.5139C21.783 26.4854 20.9501 25.6484 19.9196 25.6484Z" fill="#822820"/>
</svg>
