<svg width="30" height="30" viewBox="0 0 30 30" fill="none" xmlns="http://www.w3.org/2000/svg">
<path fill-rule="evenodd" clip-rule="evenodd" d="M14.9397 3.75C8.76239 3.75 3.75 8.76242 3.75 14.9397C3.75 21.1169 8.76239 26.1294 14.9397 26.1294C21.1201 26.1294 26.131 21.1169 26.131 14.9397C26.131 8.76242 21.1201 3.75 14.9397 3.75ZM11.737 9.76019L14.9397 12.9628L18.1439 9.76019C18.3969 9.50412 18.7482 9.34488 19.1354 9.34488C19.9083 9.34488 20.5377 9.97256 20.5377 10.7439C20.5377 11.1328 20.3752 11.4841 20.1192 11.7371L16.9181 14.9397L20.1192 18.1439C20.3752 18.3968 20.5377 18.7482 20.5377 19.1385C20.5377 19.9099 19.9083 20.5345 19.1354 20.5345C18.7482 20.5345 18.3969 20.3768 18.1439 20.1223L14.9397 16.9181L11.737 20.1223C11.4841 20.3768 11.1327 20.5345 10.744 20.5345C9.97101 20.5345 9.34485 19.9099 9.34485 19.1385C9.34485 18.7482 9.50409 18.3968 9.76022 18.1439L12.9628 14.9397L9.76022 11.7371C9.50409 11.4841 9.34485 11.1328 9.34485 10.7439C9.34485 9.97256 9.97101 9.34488 10.744 9.34488C11.1327 9.34488 11.4841 9.50412 11.737 9.76019Z" fill="#9A9A9A"/>
</svg>
