<svg width="26" height="30" viewBox="0 0 26 30" fill="none" xmlns="http://www.w3.org/2000/svg">
<path fill-rule="evenodd" clip-rule="evenodd" d="M12.9928 22.6334C13.3027 22.6334 13.6126 22.496 13.8494 22.2227L19.9027 15.2413C20.1273 14.9852 20.2654 14.6323 20.2654 14.2419C20.2654 13.469 19.7241 12.8428 19.0528 12.8428H16.6304V5.14941C16.6304 4.3811 16.0837 3.75024 15.4165 3.75024H10.5677C9.90051 3.75024 9.35516 4.3811 9.35516 5.14941V12.8428H6.93141C6.26288 12.8428 5.7202 13.469 5.7202 14.2419C5.7202 14.6323 5.85825 14.9852 6.0829 15.2413L12.1348 22.2227C12.373 22.496 12.6829 22.6334 12.9928 22.6334ZM3.90002 22.2836C3.90002 21.7043 4.30875 21.2374 4.80946 21.2374C5.31152 21.2374 5.7202 21.7043 5.7202 22.2836V24.034H20.2654V22.2836C20.2654 21.7043 20.6727 21.2374 21.1748 21.2374C21.6768 21.2374 22.0842 21.7043 22.0842 22.2836V25.0817C22.0842 25.6626 21.6768 26.1295 21.1748 26.1295H4.80946C4.30875 26.1295 3.90002 25.6626 3.90002 25.0817V22.2836Z" fill="#D44D20"/>
</svg>
