<svg width="15" height="14" viewBox="0 0 15 14" fill="none" xmlns="http://www.w3.org/2000/svg">
<path d="M10.8426 7.70605V10.9117C10.8426 11.2067 10.6035 11.4459 10.3084 11.4459H1.98443C1.68944 11.4459 1.4502 11.2067 1.4502 10.9117V4.63969C1.4502 4.3446 1.68944 4.10535 1.98443 4.10535H5.32801L4.25946 5.17391H2.51866V10.3775H8.06322L8.1172 10.4314L8.17126 10.3775H9.77415V8.77447L10.8426 7.70605ZM12.7049 5.07113C12.7049 5.1047 12.6885 5.13613 12.6608 5.1553L8.96696 7.72384C8.94941 7.73611 8.92896 7.74215 8.90842 7.74215C8.89217 7.74215 8.87582 7.73836 8.86088 7.73049C8.82708 7.71285 8.80588 7.67791 8.80588 7.63961V6.12594C8.01084 6.00835 5.87363 5.98336 4.26936 8.64169C4.2504 8.67306 4.21679 8.69118 4.18158 8.69118C4.17159 8.69118 4.1615 8.68978 4.15161 8.68679C4.10669 8.67306 4.0769 8.63058 4.07914 8.58364C4.08147 8.53683 4.35826 4.01142 8.80588 3.87135V2.50249C8.80588 2.46429 8.82708 2.42927 8.86088 2.41163C8.89487 2.39388 8.93559 2.3964 8.96696 2.41836L12.6608 4.98696C12.6885 5.0061 12.7049 5.03759 12.7049 5.07113Z" fill="#d54d20"/>
</svg>
