<svg width="30" height="30" viewBox="0 0 30 30" fill="none" xmlns="http://www.w3.org/2000/svg">
<path d="M26.9296 15.4645C26.9296 19.6993 24.6335 23.3982 21.2182 25.3827C19.97 26.1085 18.572 26.6052 17.0819 26.8159C16.554 26.8904 16.014 26.9289 15.4652 26.9289C14.4181 26.9289 13.403 26.7887 12.4393 26.5259C8.6803 25.4996 5.69043 22.6083 4.52718 18.9078C4.18509 17.8215 4.00003 16.6646 4.00003 15.4645C4.00003 9.13225 9.13376 4.00012 15.4652 4.00012C21.7966 4.00012 26.9296 9.13225 26.9296 15.4645Z" fill="#2E4F92"/>
<path d="M17.0819 13.3086V16.5437H19.5727L18.657 20.2265H17.0819V26.8159C16.554 26.8904 16.014 26.9289 15.4644 26.9289C14.4173 26.9289 13.4031 26.7887 12.4393 26.5259V20.2265H9.94852V16.5437H12.4393V11.3034C12.4393 8.96083 14.3764 7.08215 16.7182 7.15345L20.9803 7.34092V11.3482L18.8644 11.4708C17.871 11.5005 17.0819 12.3144 17.0819 13.3086Z" fill="white"/>
</svg>
