<svg width="191" height="120" viewBox="0 0 191 120" fill="none" xmlns="http://www.w3.org/2000/svg">
<path d="M93.933 103.579C77.3776 93.7862 61.2055 77.52 48.7818 56.5521C38.6035 39.373 32.4024 21.504 30.142 5.03455C22.3538 10.1947 16.1089 17.0295 11.6625 24.826C11.6675 24.8111 11.6716 24.7954 11.6757 24.7797C11.5989 24.916 11.5262 25.0548 11.4502 25.192C11.3147 25.434 11.1809 25.6794 11.0495 25.9239C10.8041 26.3734 10.567 26.8269 10.334 27.283C10.2101 27.5283 10.0845 27.7737 9.9631 28.0216C9.71773 28.5206 9.48228 29.0229 9.25095 29.5285C9.15925 29.7292 9.06424 29.9275 8.97502 30.1283C8.66108 30.8363 8.35871 31.5493 8.07285 32.2688C8.0365 32.363 8.00181 32.4589 7.96628 32.553C7.72091 33.1793 7.48546 33.8088 7.26322 34.4425C7.17895 34.6779 7.10212 34.9158 7.02281 35.153C6.85179 35.6569 6.68573 36.1633 6.52959 36.6714C6.44945 36.9317 6.3718 37.1919 6.29414 37.453C6.14543 37.9619 6.00498 38.4725 5.86866 38.9855C5.80505 39.2309 5.73813 39.4754 5.67534 39.7216C5.52168 40.3387 5.37793 40.9584 5.24409 41.5805C5.21435 41.7176 5.18048 41.8531 5.15239 41.9902C4.99294 42.752 4.84919 43.5178 4.72031 44.287C4.68809 44.4795 4.6633 44.6728 4.63356 44.8653C4.54268 45.4419 4.45759 46.0194 4.38488 46.5985C4.35101 46.8646 4.32044 47.1314 4.29153 47.3983C4.23287 47.9171 4.18082 48.4376 4.13539 48.9589C4.11225 49.234 4.08912 49.5099 4.06847 49.7859C4.02964 50.3311 3.9999 50.878 3.97594 51.4258C3.96602 51.6645 3.95198 51.9033 3.94537 52.1421C3.91976 52.9244 3.90737 53.7076 3.91563 54.4925C3.91563 54.5239 3.91728 54.5561 3.91728 54.5875C3.92471 55.2492 3.94124 55.9118 3.97181 56.5752V56.5785C3.97428 56.6578 3.97759 56.7347 3.98255 56.8148V56.8165C3.9842 56.8412 3.98503 56.866 3.98585 56.8908V56.9024C3.98916 56.9536 3.99246 57.0023 3.99494 57.0519V57.0585C3.99659 57.0817 3.99742 57.1048 3.99824 57.1279V57.1378C3.9999 57.161 4.00237 57.1866 4.0032 57.2097L4.00403 57.2246C4.00816 57.2956 4.01146 57.3708 4.01642 57.4419L4.01807 57.46C4.0189 57.4815 4.02055 57.5047 4.02138 57.5261L4.0222 57.5476C4.02798 57.617 4.03129 57.6848 4.03542 57.755L4.0379 57.7822C4.03955 57.8021 4.04038 57.8219 4.04203 57.8417L4.04368 57.8764C4.04451 57.8946 4.04616 57.9136 4.04699 57.9318L4.05029 57.9632L4.0569 58.0689L4.06021 58.1044C4.06186 58.1226 4.06268 58.14 4.06434 58.1581L4.06681 58.1986C4.06764 58.216 4.06847 58.2341 4.07012 58.2507C4.07177 58.268 4.07342 58.2862 4.07508 58.3035L4.07921 58.3796L4.08416 58.4266C4.08499 58.4432 4.08664 58.4589 4.08747 58.4754C4.08912 58.4911 4.08912 58.5076 4.09077 58.5225C4.0916 58.5382 4.09408 58.5539 4.0949 58.5687C4.09738 58.5968 4.09904 58.6233 4.10069 58.6514C4.10234 58.6646 4.10317 58.6761 4.10399 58.6894L4.10977 58.7513C4.11143 58.7645 4.11225 58.7761 4.11225 58.7893L4.11804 58.8496L4.12134 58.886L4.12878 58.9752L4.13126 59.0066L4.13621 59.0719L4.14034 59.1082C4.14199 59.1305 4.14447 59.1512 4.14612 59.1727C4.14695 59.1834 4.14778 59.1941 4.14778 59.2041L4.15769 59.2974L4.15852 59.3172L4.16678 59.3949L4.16926 59.4246C4.17091 59.4486 4.17339 59.4717 4.17587 59.4957L4.17835 59.523C4.18082 59.5527 4.1833 59.5833 4.18743 59.613V59.6155V59.6171L4.18991 59.6353L4.19735 59.7146C4.19817 59.7245 4.19983 59.7345 4.19983 59.7444L4.20644 59.8171C4.20891 59.8253 4.20891 59.8336 4.20974 59.8419C4.21304 59.8741 4.21635 59.9063 4.21883 59.9385L4.22131 59.9493C4.22378 59.9782 4.22709 60.0087 4.22957 60.0377L4.23287 60.0608C4.23535 60.0872 4.23865 60.1128 4.24031 60.1401L4.24361 60.1607C4.24692 60.1938 4.25022 60.2268 4.25353 60.2599V60.2648C4.25848 60.2971 4.26096 60.3268 4.26427 60.359L4.26674 60.378L4.27583 60.4664L4.27831 60.4772C4.28492 60.5449 4.29318 60.6127 4.30144 60.6804L4.3031 60.6969C4.3064 60.7267 4.3097 60.7581 4.31384 60.7878L4.31466 60.7969C4.3221 60.8646 4.33036 60.934 4.33945 61.0018L4.3411 61.015C4.3444 61.0464 4.34853 61.0778 4.35266 61.1084L4.35349 61.1166C4.36175 61.1852 4.37084 61.2546 4.3791 61.3232L4.37993 61.3322L4.39315 61.4322L4.39397 61.4347C4.40223 61.5041 4.41132 61.5751 4.42124 61.6445L4.42206 61.6503C4.43528 61.7561 4.45015 61.861 4.46502 61.9659V61.9684C4.47494 62.0337 4.4832 62.0981 4.49229 62.1634L4.49476 62.1848L4.51046 62.2865C4.52781 62.4137 4.55673 62.5426 4.57655 62.6706C4.69635 63.467 4.83101 64.2626 4.98468 65.0574C5.04746 65.3779 5.12099 65.6977 5.18874 66.0174C5.31927 66.6411 5.45806 67.2649 5.61173 67.887C5.69848 68.2422 5.79266 68.5958 5.88684 68.9502C6.04546 69.5467 6.21317 70.1416 6.39328 70.7356C6.4982 71.0883 6.60312 71.4395 6.71713 71.7906C6.91789 72.416 7.13269 73.0389 7.35657 73.661C7.43919 73.8915 7.50776 74.1236 7.59286 74.3533L7.59451 74.3558C7.60773 74.3905 7.61929 74.4227 7.63251 74.4574L7.63334 74.4599C7.65812 74.5285 7.68373 74.5962 7.71017 74.6648L7.71347 74.6722C7.72504 74.7036 7.73743 74.7358 7.749 74.7672L7.75148 74.7755C7.76387 74.8069 7.77626 74.8391 7.78783 74.8713L7.79196 74.8804L7.82914 74.9771L7.83244 74.9878C7.84483 75.0175 7.8564 75.0489 7.86797 75.0795L7.87292 75.0886C7.89853 75.1563 7.92415 75.2233 7.95141 75.291L7.95471 75.2993C7.96628 75.3298 7.97867 75.3612 7.99106 75.3918L7.99437 75.4017C8.02081 75.4686 8.04724 75.5356 8.07285 75.6016L8.07946 75.6149C8.09103 75.6446 8.1026 75.6743 8.11499 75.7041L8.11829 75.714C8.14556 75.7809 8.17199 75.847 8.19843 75.9131L8.20504 75.928C8.21661 75.9561 8.22817 75.9858 8.23974 76.0139L8.24469 76.0279C8.27196 76.0932 8.29922 76.1593 8.32483 76.2237L8.33309 76.2427C8.34466 76.2692 8.3554 76.2964 8.36697 76.3237L8.3744 76.341C8.40084 76.4063 8.42645 76.4708 8.45454 76.5352L8.46198 76.5542L8.49585 76.6335L8.50411 76.6542C8.53055 76.7186 8.55781 76.7806 8.58507 76.8458L8.59416 76.8673C8.60573 76.8929 8.61647 76.9185 8.62721 76.945C8.63051 76.9508 8.63299 76.959 8.63547 76.9656C8.66356 77.0292 8.69082 77.092 8.71726 77.1556L8.728 77.1804C8.73791 77.2044 8.74865 77.2283 8.75939 77.2515L8.77096 77.2787C8.78418 77.3101 8.79739 77.3407 8.81144 77.3721C9.17412 78.2065 9.56159 79.0236 9.95897 79.8332C10.0755 80.072 10.1961 80.3066 10.3175 80.5437C10.6199 81.1419 10.9338 81.7326 11.2552 82.3167C11.3783 82.5414 11.5014 82.7669 11.6278 82.99C12.0648 83.7599 12.5135 84.52 12.9819 85.2636C13.0257 85.333 13.0719 85.399 13.1157 85.4684C13.5453 86.1442 13.9898 86.8085 14.4442 87.462C14.5987 87.6842 14.7556 87.9031 14.9126 88.1229C15.2885 88.65 15.6743 89.1688 16.0668 89.6794C16.2179 89.8777 16.3667 90.0776 16.522 90.2734C17.0524 90.9475 17.5943 91.6118 18.152 92.2586C18.2453 92.3669 18.342 92.4701 18.4354 92.5775C18.9129 93.1228 19.397 93.6573 19.891 94.1811C20.0819 94.3827 20.2744 94.581 20.4652 94.7793C20.9047 95.232 21.35 95.6765 21.8028 96.1135C21.9779 96.2837 22.1514 96.4563 22.3307 96.6241C22.9404 97.1999 23.5608 97.7625 24.1928 98.3094C24.3333 98.4317 24.4795 98.5474 24.6208 98.668C25.1322 99.1009 25.6494 99.5255 26.174 99.9403C26.3954 100.115 26.6184 100.288 26.8423 100.46C27.3364 100.84 27.8387 101.21 28.3443 101.574C28.5368 101.712 28.7251 101.853 28.9193 101.988C29.5967 102.463 30.2849 102.924 30.9814 103.368C31.1598 103.483 31.3432 103.592 31.525 103.704C32.0661 104.042 32.6139 104.372 33.1657 104.691C33.4103 104.834 33.6581 104.975 33.906 105.114C34.4562 105.421 35.0114 105.719 35.5707 106.009C35.7665 106.111 35.9606 106.217 36.1581 106.317C36.8925 106.687 37.6344 107.042 38.3829 107.381C38.5953 107.477 38.8109 107.567 39.0249 107.661C39.5916 107.909 40.1616 108.15 40.7358 108.381C40.9994 108.487 41.2637 108.592 41.5298 108.693C42.1329 108.926 42.7401 109.148 43.3498 109.36C43.539 109.426 43.7273 109.497 43.9174 109.561C44.6981 109.824 45.4838 110.068 46.2752 110.298C46.5098 110.366 46.7461 110.428 46.9816 110.493C47.5723 110.656 48.1655 110.812 48.7611 110.957C49.0338 111.023 49.3064 111.089 49.5798 111.152C50.24 111.303 50.9042 111.442 51.5701 111.57C51.7369 111.602 51.9022 111.639 52.0691 111.67C52.8837 111.82 53.7024 111.949 54.5228 112.065C54.7747 112.1 55.0275 112.129 55.2795 112.161C55.8859 112.238 56.4931 112.305 57.1012 112.364C57.3788 112.39 57.6564 112.417 57.9356 112.439C58.6519 112.498 59.3715 112.542 60.0911 112.575C60.2224 112.58 60.3538 112.591 60.486 112.595C61.2039 112.623 61.9251 112.637 62.6472 112.637C62.7645 112.637 62.8826 112.631 62.9991 112.63C63.2552 112.628 63.5122 112.622 63.7683 112.617C64.3929 112.604 65.0174 112.583 65.642 112.551C65.9039 112.537 66.1658 112.525 66.4285 112.508C67.2671 112.454 68.1048 112.386 68.9433 112.295C69.0631 112.282 69.1829 112.263 69.3019 112.25C69.867 112.185 70.4337 112.117 70.998 112.035L70.9881 112.022C76.0648 111.288 81.1292 109.886 86.0588 107.738C88.8256 106.533 91.4528 105.139 93.933 103.579Z" fill="#ED6BA0"/>
<path d="M62.6472 116.149C61.8806 116.149 61.1147 116.134 60.3514 116.106L59.9408 116.084C59.1741 116.051 58.4124 116.002 57.6523 115.941C57.3615 115.918 57.0723 115.889 56.7815 115.862C56.1222 115.799 55.4762 115.727 54.8343 115.645L54.6467 115.621C54.4418 115.597 54.2361 115.572 54.0321 115.542C53.1638 115.421 52.2988 115.284 51.4363 115.127C51.3181 115.104 51.2017 115.081 51.0868 115.057L50.9166 115.022C50.1979 114.883 49.4965 114.736 48.7975 114.577C48.5026 114.509 48.2134 114.44 47.9251 114.369C47.2964 114.215 46.6677 114.052 46.0423 113.877L45.8168 113.816C45.6416 113.768 45.4665 113.72 45.2921 113.67C44.4528 113.427 43.6117 113.164 42.7988 112.891C42.6658 112.846 42.5303 112.798 42.3948 112.749L42.1965 112.679C41.5463 112.451 40.9044 112.218 40.2666 111.971C39.9874 111.865 39.7032 111.753 39.4206 111.638C38.8175 111.396 38.2153 111.141 37.6147 110.878L37.4032 110.788C37.247 110.72 37.09 110.652 36.9347 110.582C36.1391 110.22 35.3535 109.845 34.5752 109.453L33.9573 109.131C33.3608 108.821 32.7725 108.505 32.1885 108.178C31.9257 108.031 31.6647 107.882 31.4053 107.732C30.8203 107.392 30.242 107.043 29.6687 106.687L29.472 106.566C29.3423 106.487 29.2126 106.407 29.0846 106.325C28.3518 105.857 27.6157 105.365 26.9019 104.865C26.7639 104.767 26.6259 104.667 26.4871 104.567L26.2938 104.426C25.7609 104.044 25.2306 103.651 24.7059 103.25C24.4631 103.063 24.2259 102.879 23.9905 102.693C23.4378 102.255 22.8909 101.806 22.3489 101.346L22.2002 101.222C22.0994 101.139 21.9978 101.055 21.8987 100.969C21.2518 100.41 20.5851 99.808 19.9175 99.1776C19.7878 99.0545 19.6556 98.9256 19.5235 98.7967L19.3591 98.6381C18.8807 98.1746 18.4081 97.7045 17.9438 97.2254C17.7373 97.0114 17.5341 96.8007 17.3325 96.5868C16.812 96.0349 16.2981 95.4698 15.7925 94.8915L15.486 94.5462C14.9201 93.8894 14.355 93.2012 13.7594 92.4436C13.6478 92.3023 13.5346 92.1536 13.4206 92.0041L13.2794 91.819C12.863 91.2754 12.4557 90.726 12.0566 90.1692L11.9798 90.0626C11.8377 89.8618 11.6948 89.6627 11.5552 89.4612C11.0768 88.7729 10.6051 88.0682 10.149 87.3495L10.0169 87.1479C9.54677 86.4002 9.07669 85.6121 8.57273 84.7256C8.46699 84.5397 8.36372 84.3505 8.26045 84.1605L8.17453 84.006C7.83745 83.3938 7.50534 82.7668 7.18314 82.1306L7.11787 82.0026C7.0113 81.7952 6.90555 81.5879 6.8031 81.378C6.32311 80.399 5.93729 79.5712 5.5903 78.774C5.5837 78.7574 5.53495 78.6467 5.52752 78.6302L5.51678 78.6038C5.50769 78.5831 5.4986 78.5641 5.49034 78.5435L5.40938 78.3543L5.39533 78.3237C5.38872 78.3064 5.38211 78.2898 5.37468 78.2725C5.36476 78.251 5.35485 78.2279 5.34576 78.2056L5.27141 78.0279L5.26232 78.0073C5.25488 77.9891 5.24745 77.9726 5.24084 77.9552L5.23588 77.9445C5.22349 77.9172 5.21192 77.8883 5.20118 77.8611L5.126 77.6801C5.11857 77.6628 5.11031 77.6438 5.1037 77.6256C5.09296 77.6008 5.08222 77.5744 5.0723 77.5496L4.99217 77.3538L4.96986 77.3001V77.2985L4.93929 77.2258L4.86576 77.0399L4.84676 76.9944C4.84181 76.9812 4.83602 76.968 4.83189 76.9548L4.82693 76.9432C4.81785 76.9209 4.80876 76.9002 4.8005 76.8788L4.73523 76.7135L4.71375 76.6582C4.70879 76.6458 4.70384 76.6342 4.69888 76.6202C4.6931 76.6061 4.68731 76.5904 4.6807 76.5747L4.60965 76.3905C4.59974 76.3682 4.59065 76.3451 4.58322 76.3228L4.56091 76.2666C4.5543 76.2476 4.54687 76.2294 4.53943 76.2104L4.50225 76.1137L4.49812 76.1013L4.46095 76.0047L4.45434 75.9882L4.44112 75.9518C4.43451 75.9353 4.4279 75.9196 4.42129 75.9022L4.34528 75.6974L4.33454 75.6684C4.32298 75.6379 4.31224 75.6081 4.30646 75.5941C4.23871 75.409 4.18088 75.2405 4.12553 75.072L4.04704 74.8415C3.81324 74.1863 3.58439 73.527 3.37207 72.8653C3.25145 72.4886 3.13992 72.1168 3.02756 71.7442C2.8392 71.1196 2.66075 70.4876 2.49139 69.8556C2.3906 69.4739 2.29228 69.1005 2.20058 68.7262C2.03783 68.0661 1.89077 67.4044 1.75032 66.741L1.68588 66.4411C1.63383 66.2031 1.58261 65.9652 1.53635 65.7265C1.37277 64.8829 1.22984 64.0394 1.10262 63.1959C1.06874 63.0125 1.04891 62.9018 1.03322 62.7895L1.01339 62.6498L1.001 62.5631C0.996041 62.5276 0.990258 62.4887 0.985301 62.4474L0.943167 62.1401L0.942341 62.1302V62.1285C0.939862 62.1137 0.937384 62.098 0.935731 62.0823L0.91673 61.9402C0.912599 61.9121 0.908468 61.8848 0.90599 61.8576L0.89938 61.8063L0.894423 61.7692L0.869639 61.5651L0.864682 61.5254L0.863855 61.5221L0.861377 61.5015L0.860551 61.4949C0.85642 61.4676 0.853115 61.4403 0.850637 61.4172L0.826678 61.2123L0.822548 61.1834C0.821721 61.1718 0.820069 61.1611 0.819243 61.1553C0.818417 61.1446 0.816765 61.133 0.815112 61.1206L0.812634 61.0958L0.799415 60.981C0.796111 60.9529 0.792806 60.9232 0.789501 60.8918C0.787023 60.8728 0.784544 60.8538 0.782892 60.8348C0.778761 60.8059 0.771326 60.7381 0.769674 60.7084C0.764717 60.672 0.760586 60.6357 0.757281 60.5977L0.754803 60.582C0.752324 60.5572 0.74902 60.5316 0.746541 60.5035C0.745715 60.4927 0.744063 60.482 0.744063 60.4762L0.734149 60.382C0.730018 60.3515 0.726713 60.3201 0.724235 60.2887L0.714321 60.1912C0.712669 60.1805 0.71019 60.1499 0.706886 60.1177C0.701929 60.0805 0.698624 60.04 0.696146 60.007L0.692015 59.964C0.689536 59.9392 0.686232 59.9062 0.684579 59.8946C0.683753 59.8789 0.67797 59.8203 0.674665 59.7864C0.669708 59.7426 0.666404 59.7013 0.663925 59.6641L0.662273 59.6525C0.659795 59.6228 0.655664 59.5848 0.654011 59.5691C0.653185 59.5526 0.646576 59.4898 0.64575 59.4733V59.47C0.641619 59.4287 0.637488 59.3849 0.634184 59.3452C0.632531 59.3188 0.629227 59.289 0.627574 59.2667C0.627574 59.2618 0.62427 59.2246 0.620965 59.1907C0.618487 59.1602 0.615182 59.1246 0.61353 59.0998C0.610225 59.061 0.60692 59.0222 0.604442 58.9891C0.601137 58.952 0.597833 58.9156 0.597007 58.8834C0.595354 58.8702 0.594528 58.857 0.592876 58.8454C0.591223 58.8289 0.590397 58.8123 0.588745 58.7958C0.58544 58.7619 0.582962 58.7272 0.580483 58.6934L0.579657 58.6777L0.578005 58.6422L1.98826 58.5562L4.07926 58.3753L1.29263 58.5455L0.58131 58.6347C0.578831 58.6198 0.577179 58.605 0.575526 58.5893H0.573048C0.568917 58.5513 0.568091 58.5356 0.566439 58.5124L0.563134 58.4662L0.559003 58.4001L0.556525 58.3679L0.544959 58.2018C0.543306 58.182 0.540828 58.1473 0.539176 58.1184C0.537523 58.0952 0.534219 58.0399 0.533392 58.0308C0.530914 57.9986 0.529262 57.9672 0.527609 57.935L0.518522 57.792C0.516043 57.7648 0.514391 57.7367 0.513565 57.7094C0.511086 57.6855 0.509434 57.6623 0.508608 57.6392L0.496215 57.4211L0.495389 57.4079C0.494563 57.398 0.494563 57.388 0.494563 57.3773C0.492085 57.3434 0.490432 57.3104 0.48878 57.2765C0.487128 57.2583 0.486301 57.2402 0.485475 57.222L0.479692 57.1014C0.47804 57.0766 0.475561 57.0378 0.475561 57.0229L0.462343 56.756C0.460691 56.737 0.459864 56.718 0.459864 56.6999C0.42847 56.0075 0.412773 55.316 0.404512 54.6254L0.402033 54.4924C0.394598 53.691 0.40699 52.859 0.433427 52.0304C0.43921 51.8553 0.447472 51.6752 0.45656 51.4942L0.466474 51.272C0.492911 50.692 0.523479 50.1145 0.56396 49.5371C0.58544 49.2454 0.609399 48.9629 0.633358 48.6787C0.683753 48.1037 0.737453 47.5535 0.801068 47.0032L0.810981 46.9058C0.839071 46.6554 0.86716 46.4051 0.89938 46.1548C0.977039 45.5418 1.06626 44.9288 1.16292 44.3166L1.19101 44.1299C1.21249 43.9878 1.23315 43.8457 1.25628 43.7044C1.39177 42.8939 1.54461 42.0818 1.71315 41.2722L1.80815 40.8492C1.95356 40.1784 2.10474 39.5207 2.26915 38.8664C2.31541 38.6822 2.36498 38.493 2.41621 38.3038L2.47156 38.0915C2.61614 37.5446 2.7665 37.0043 2.92429 36.4648C3.0036 36.1938 3.08622 35.9162 3.17131 35.6394C3.33902 35.0967 3.51417 34.5621 3.69427 34.0284L3.75706 33.8401C3.81985 33.6509 3.88346 33.4625 3.94955 33.2741C4.18584 32.6041 4.43451 31.9383 4.6931 31.2749L4.81785 30.9502C5.11031 30.2099 5.43086 29.454 5.76297 28.7047L6.0513 28.0768C6.30245 27.5299 6.55195 26.9987 6.81054 26.4707C6.92207 26.2427 7.04186 26.0073 7.16166 25.7726L7.20544 25.6875C7.44751 25.21 7.70031 24.73 7.95972 24.2517C8.10017 23.9923 8.24062 23.7329 8.38437 23.4759L8.62065 23.0447C8.67187 22.9554 8.72557 22.8703 8.78258 22.7869C13.5685 14.5022 20.2769 7.35593 28.2014 2.10652C29.2102 1.43899 30.489 1.33737 31.5887 1.83472C32.6891 2.33206 33.4574 3.36063 33.6218 4.55773C35.902 21.1751 42.1891 38.5359 51.8039 54.7609C63.4594 74.4342 79.0564 90.6971 95.7208 100.556C96.775 101.18 97.4285 102.307 97.445 103.531C97.4615 104.756 96.8394 105.901 95.8026 106.554C93.1515 108.221 90.345 109.703 87.4617 110.959C82.4825 113.129 77.2248 114.638 71.83 115.448C71.7209 115.474 71.6111 115.497 71.4995 115.512C70.9014 115.598 70.3041 115.671 69.7059 115.74L69.3209 115.787C68.5187 115.875 67.648 115.949 66.6566 116.014C66.4104 116.03 66.1658 116.041 65.9221 116.054L65.8147 116.058C65.1596 116.092 64.4954 116.116 63.8328 116.128L63.6138 116.133C63.4164 116.137 63.2181 116.141 63.0207 116.143L62.6472 116.149ZM11.9319 75.7403C11.9468 75.7717 11.9592 75.8023 11.9707 75.8287L12.0129 75.927C12.3359 76.6681 12.6787 77.4034 13.1116 78.2857C13.1967 78.4608 13.2851 78.6319 13.3719 78.8021L13.4454 78.9466C13.7354 79.5167 14.0287 80.0719 14.3311 80.6188L14.4261 80.7931C14.5095 80.9459 14.5938 81.1004 14.6805 81.2533C15.1324 82.0489 15.5496 82.7486 15.9545 83.3938L16.0643 83.5599C16.4848 84.2208 16.9021 84.8437 17.3275 85.4568C17.4515 85.6352 17.5729 85.8046 17.6952 85.9748L17.7712 86.0813C18.1223 86.5729 18.485 87.0612 18.8543 87.5428L19.2789 88.0972C19.8118 88.7754 20.3124 89.3843 20.8131 89.9651L21.0824 90.2691C21.5269 90.7756 21.9821 91.2779 22.4481 91.7711C22.629 91.9644 22.8099 92.1511 22.99 92.3378C23.4006 92.76 23.8203 93.1772 24.2458 93.5886L24.7373 94.0653C25.3338 94.6288 25.9212 95.1608 26.4888 95.6507L26.8911 95.987C27.3744 96.3959 27.8594 96.7949 28.3518 97.1849C28.5633 97.3526 28.7731 97.5137 28.983 97.6756C29.444 98.0276 29.9157 98.3779 30.3924 98.7199L30.9335 99.1107C31.5721 99.5584 32.2174 99.9897 32.8709 100.407L33.3864 100.726C33.8903 101.04 34.405 101.351 34.9263 101.653C35.1568 101.786 35.389 101.918 35.622 102.048C36.1383 102.338 36.6604 102.619 37.1859 102.89L37.7435 103.183C38.4301 103.529 39.129 103.863 39.8345 104.182L40.4327 104.443C40.968 104.677 41.5042 104.905 42.0445 105.121C42.2948 105.222 42.5386 105.318 42.7848 105.413C43.3598 105.634 43.9331 105.842 44.5073 106.043L45.0336 106.23C45.7705 106.478 46.5091 106.708 47.2518 106.924L47.9185 107.107C48.477 107.262 49.0322 107.408 49.5923 107.544C49.8534 107.608 50.1095 107.669 50.3672 107.728C50.9844 107.87 51.6098 108.001 52.2377 108.122L52.7028 108.216C53.4686 108.355 54.2386 108.478 55.0119 108.586C55.1738 108.609 55.3349 108.628 55.4977 108.648L55.7141 108.674C56.2949 108.749 56.8641 108.812 57.435 108.867C57.7068 108.893 57.9629 108.917 58.2199 108.938C58.8932 108.993 59.5673 109.036 60.2448 109.065L60.6141 109.085C61.294 109.11 61.9698 109.124 62.6472 109.124L63.7022 109.105C64.2905 109.094 64.8754 109.072 65.4603 109.042L65.5793 109.036C65.7866 109.026 65.994 109.016 66.2014 109.002C66.987 108.951 67.7752 108.889 68.5642 108.802L68.9277 108.758C69.3325 108.711 69.7563 108.659 70.1843 108.602C70.2834 108.579 70.3842 108.559 70.4858 108.545C75.3792 107.837 80.1469 106.482 84.6561 104.518C85.4682 104.164 86.2745 103.79 87.0701 103.396C71.3434 92.8153 56.8261 77.0209 45.7598 58.3423C36.7736 43.1773 30.551 27.0234 27.5983 11.2802C22.4398 15.525 18.0422 20.7306 14.7136 26.5658C14.6772 26.6294 14.6392 26.693 14.5996 26.7533L14.5161 26.9053C14.3872 27.1358 14.2625 27.3663 14.1377 27.596C13.9097 28.0181 13.685 28.4436 13.4677 28.8716L13.4198 28.9666C13.3182 29.1648 13.2166 29.3631 13.1191 29.563C12.8836 30.0414 12.6614 30.5164 12.4433 30.9931L12.1847 31.5541C11.8898 32.2183 11.6072 32.8892 11.3379 33.565L11.2346 33.8384C11.0066 34.42 10.786 35.0132 10.5753 35.6105L10.3506 36.2731C10.1895 36.7514 10.0334 37.229 9.8855 37.7098C9.81197 37.9477 9.73844 38.1914 9.66822 38.4343C9.52529 38.9193 9.39311 39.4001 9.26588 39.8826L9.08495 40.5708C8.9379 41.1565 8.80406 41.7381 8.67766 42.3239L8.59174 42.7023C8.44137 43.4227 8.30671 44.1431 8.18609 44.866L8.10348 45.4046C8.01756 45.9548 7.93742 46.4968 7.86802 47.0396C7.84076 47.256 7.81763 47.47 7.79367 47.684L7.7821 47.7889C7.72592 48.2821 7.67718 48.7712 7.63505 49.262C7.61274 49.5288 7.59043 49.7849 7.57143 50.041C7.53591 50.5491 7.50864 51.0655 7.48551 51.581L7.45577 52.2485C7.43264 52.9888 7.42024 53.7232 7.42768 54.4601L7.43016 54.5865C7.43677 55.1706 7.45164 55.7936 7.48055 56.4165L7.48138 56.4454L7.49047 56.6404L7.49129 56.666C7.49295 56.6883 7.4946 56.7122 7.49542 56.7354L7.50038 56.832V56.8337L7.50534 56.9188L7.50782 56.9783C7.50947 56.9956 7.51029 57.013 7.51112 57.0303L7.52021 57.198C7.52269 57.236 7.52517 57.274 7.52682 57.312L7.52847 57.3352L7.53012 57.3525L7.54086 57.5128L7.54334 57.5591L7.54582 57.5929C7.54747 57.6152 7.54995 57.6549 7.5516 57.6871L7.55408 57.7243L7.56069 57.8243C7.56317 57.8457 7.56565 57.8779 7.5673 57.9077C7.56978 57.9391 7.57226 57.9705 7.57391 58.0019C7.57556 58.025 7.57804 58.0506 7.57887 58.0746C7.58135 58.0936 7.583 58.1175 7.58382 58.1283C7.58547 58.1489 7.58713 58.1754 7.58878 58.201L7.58961 58.2167C7.59208 58.2373 7.59374 58.258 7.59456 58.2737C7.60035 58.3216 7.59869 58.3125 7.60035 58.3472L7.59704 58.3142V58.3158L7.60117 58.3489V58.3629L7.602 58.3637V58.3579C7.60365 58.3819 7.60613 58.405 7.60778 58.4298C7.60861 58.434 7.60943 58.4488 7.61026 58.4654L7.61522 58.5199L7.6243 58.6355C7.62513 58.6422 7.63257 58.7256 7.63339 58.7363L7.63752 58.7793C7.64 58.8024 7.64165 58.8256 7.64331 58.8479C7.64661 58.8768 7.64744 58.8883 7.64909 58.9073L7.65157 58.9321C7.65239 58.947 7.65487 58.9693 7.6557 58.9933L7.65983 59.028L7.66066 59.0445C7.66644 59.0899 7.67057 59.137 7.67387 59.1833L7.68048 59.2411L7.68131 59.2519C7.68296 59.2709 7.68544 59.2907 7.68709 59.308L7.69205 59.365C7.69535 59.403 7.69948 59.4419 7.70196 59.4749L7.70609 59.5104C7.7127 59.56 7.71766 59.6088 7.72179 59.6575C7.7251 59.693 7.72923 59.7319 7.73336 59.7732C7.73584 59.7938 7.73831 59.8178 7.74079 59.845L7.75071 59.9293C7.75401 59.9524 7.75814 59.9888 7.75979 60.0103C7.76475 60.0458 7.76806 60.0805 7.77136 60.116L7.78045 60.1887H7.7788C7.78375 60.2242 7.78871 60.2606 7.79201 60.2969L7.79615 60.3283C7.7978 60.3457 7.80028 60.363 7.80193 60.3812L7.80523 60.4043L7.80606 60.4093L7.82176 60.5423C7.82671 60.577 7.83002 60.6125 7.83415 60.6448C7.83663 60.6671 7.83993 60.6885 7.84241 60.7108L7.85811 60.8348L7.8672 60.9075C7.87133 60.9347 7.87463 60.962 7.87793 60.9893L7.89942 61.1578C7.90107 61.1718 7.90355 61.1851 7.9052 61.1983L7.94403 61.4841C7.94485 61.4932 7.94651 61.5023 7.94816 61.5114L7.95642 61.5684C7.96303 61.6114 7.97955 61.7336 7.98368 61.7749L7.97212 61.7766V61.7857L7.98616 61.784C8.01673 61.9476 8.03408 62.0476 8.04895 62.1467C8.16213 62.8936 8.28854 63.6421 8.43311 64.3889C8.46946 64.5748 8.51077 64.7607 8.55043 64.9466L8.62478 65.2902C8.7487 65.8793 8.87924 66.4634 9.02299 67.0475C9.10478 67.3837 9.19401 67.7183 9.2824 68.0529C9.42946 68.6048 9.58726 69.1641 9.75579 69.7218C9.85741 70.0597 9.95655 70.3909 10.0623 70.7222C10.2498 71.3055 10.4531 71.8921 10.6629 72.4778C10.71 72.6084 10.753 72.7347 10.7943 72.8612C10.8232 72.9512 10.8529 73.0396 10.886 73.1288C10.9 73.1652 10.9182 73.2148 10.9347 73.2618L10.9892 73.4064L10.9917 73.4114L11.0281 73.5064C11.0355 73.5287 11.0446 73.551 11.0529 73.5741L11.057 73.584C11.0628 73.5997 11.0686 73.6146 11.0743 73.6311L11.0776 73.6377L11.0834 73.6534L11.1008 73.6997C11.1066 73.7137 11.1115 73.727 11.1165 73.741L11.1313 73.7774L11.1503 73.8253L11.2206 74.0062L11.2305 74.0335L11.2495 74.0806C11.2569 74.0987 11.2644 74.1177 11.271 74.1367L11.3288 74.2805L11.3346 74.2954L11.3726 74.3929L11.3767 74.4028L11.4412 74.5614C11.4494 74.582 11.4577 74.6027 11.4668 74.6234L11.4841 74.6696C11.4907 74.6861 11.499 74.7043 11.5064 74.7208L11.5643 74.8638L11.5651 74.8662C11.5775 74.896 11.589 74.9249 11.6014 74.9555C11.613 74.9827 11.6237 75.0083 11.6345 75.0348L11.6857 75.1604C11.6964 75.1843 11.7072 75.2083 11.7163 75.2322L11.7229 75.2487L11.7369 75.2793L11.8005 75.4313C11.8146 75.4619 11.8261 75.4925 11.8385 75.5222L11.8435 75.5329C11.8518 75.5511 11.8592 75.5701 11.8666 75.5875L11.9319 75.7403ZM6.35863 61.9666L4.50969 62.2872L6.72379 61.9666H6.35863ZM7.61191 58.4777C7.61356 58.5009 7.61522 58.5248 7.61604 58.5323C7.61439 58.5133 7.61274 58.4959 7.61191 58.4777ZM0.485475 57.222C0.485475 57.2335 0.487128 57.2451 0.487954 57.2575V57.2492L0.485475 57.222ZM7.49542 56.7734L7.49708 56.7891C7.49625 56.7527 7.4946 56.7164 7.49212 56.68C7.49295 56.7081 7.4946 56.7412 7.49542 56.7734Z" fill="#822820"/>
<path d="M92.266 48.2492C76.2939 20.7571 50.0724 1.01363 33.6988 4.15137C20.8132 6.62159 17.8738 22.5284 24.9878 42.5925C25.1985 43.1865 25.4133 43.7822 25.6413 44.3828C25.7768 44.738 25.9222 45.0966 26.0635 45.4543C26.2221 45.8566 26.3799 46.259 26.5459 46.6646C26.6938 47.0248 26.85 47.3867 27.0036 47.7485C27.1788 48.1608 27.3556 48.5722 27.539 48.987C27.696 49.343 27.8579 49.7008 28.0215 50.0585C28.2189 50.4914 28.4205 50.9251 28.627 51.3605C28.789 51.7025 28.9517 52.0446 29.1186 52.3882C29.3499 52.8625 29.5879 53.3375 29.8291 53.8142C29.9861 54.124 30.1397 54.433 30.3008 54.7444C30.6049 55.3318 30.9205 55.9226 31.2402 56.5141C31.3501 56.7165 31.4541 56.9181 31.5657 57.1213C31.9812 57.8789 32.4075 58.6381 32.8487 59.4007L32.8528 59.4081C32.8652 59.4296 32.8776 59.4502 32.8892 59.4717L32.8941 59.48C32.9065 59.5006 32.9181 59.5205 32.9297 59.5411L32.9718 59.613C32.99 59.646 33.0098 59.6791 33.0296 59.7121C33.0338 59.7204 33.0395 59.7295 33.0445 59.7377L33.161 59.9385L33.175 59.9616C33.2139 60.0277 33.2519 60.093 33.2907 60.1599C33.2957 60.1682 33.3031 60.1797 33.3072 60.188C33.327 60.2202 33.346 60.2533 33.3659 60.2863C33.3849 60.3202 33.4047 60.3524 33.4245 60.3863L33.4377 60.4086C33.4774 60.4763 33.5171 60.5424 33.5567 60.6093L33.5708 60.6325C33.6104 60.7002 33.6501 60.7663 33.6906 60.8341L33.703 60.8547C33.7443 60.9233 33.7856 60.9927 33.826 61.0613L33.8335 61.0728L33.9632 61.2884L33.9648 61.2909C34.0822 61.4851 34.2028 61.6767 34.3209 61.8701C34.4399 62.0659 34.5597 62.2608 34.6803 62.455C35.1289 63.1803 35.5825 63.9016 36.0443 64.6145C36.06 64.6385 36.074 64.6616 36.0897 64.6856C36.5631 65.4151 37.0464 66.1363 37.5338 66.8526C37.666 67.0468 37.7982 67.2401 37.9312 67.4334C38.3674 68.0662 38.8069 68.6941 39.2523 69.3162C39.3159 69.4046 39.3787 69.4955 39.4431 69.5847C39.9347 70.2671 40.4337 70.9404 40.936 71.6088C41.088 71.8104 41.2408 72.0111 41.3937 72.2119C41.8084 72.7555 42.2256 73.295 42.6469 73.8287C42.7609 73.9733 42.8741 74.1195 42.9881 74.2633C43.4871 74.8895 43.9911 75.5066 44.4983 76.118C44.6785 76.3361 44.861 76.5517 45.0428 76.7682C45.4236 77.2209 45.8062 77.6687 46.1911 78.1123C46.3613 78.3089 46.5307 78.5072 46.7017 78.7022C47.1958 79.2648 47.6939 79.8192 48.1938 80.3669C48.4127 80.6065 48.6333 80.8428 48.853 81.0799C49.1884 81.4409 49.5247 81.7978 49.8618 82.1522C50.0906 82.3926 50.3195 82.6347 50.55 82.8718C51.0283 83.3659 51.5091 83.8516 51.9916 84.3316C52.2601 84.5985 52.5303 84.8596 52.7996 85.1223C53.0788 85.3941 53.3589 85.6634 53.639 85.9303C53.9265 86.2037 54.2131 86.478 54.5023 86.7465C54.9575 87.1703 55.4135 87.5883 55.8712 87.9998C56.1959 88.2906 56.5206 88.5748 56.8461 88.859C57.0634 89.049 57.2798 89.2374 57.4979 89.4241C57.84 89.7182 58.182 90.0115 58.5249 90.2973C58.6108 90.3692 58.6967 90.4378 58.7818 90.5088C59.5072 91.1111 60.2342 91.6935 60.9612 92.2603C61.1116 92.3784 61.2627 92.4957 61.4131 92.6114C62.6424 93.5565 63.8726 94.4496 65.1011 95.2898C65.1886 95.3493 65.2754 95.4096 65.363 95.4682C66.6534 96.344 67.9406 97.1577 69.2203 97.9104C69.2542 97.9294 69.2872 97.9492 69.3203 97.969C71.0874 99.0034 72.8389 99.9155 74.5647 100.699C80.751 103.507 86.5952 104.658 91.539 103.71C107.913 100.572 108.238 75.7412 92.266 48.2492Z" fill="#9F476C"/>
<path d="M87.9366 107.554C83.439 107.555 78.4713 106.331 73.112 103.899C71.2887 103.07 69.4158 102.096 67.5454 101.003L67.3917 100.909C66.0988 100.151 64.7356 99.2884 63.3898 98.3763L63.1147 98.188C61.8457 97.3197 60.5528 96.3803 59.2722 95.398L58.7997 95.0304C58.0454 94.4438 57.2894 93.8366 56.5376 93.2112L56.2774 92.9989C55.9155 92.6965 55.5611 92.3925 55.205 92.0868L54.3921 91.3804C54.1005 91.1251 53.8105 90.8707 53.5205 90.6104C53.0529 90.1891 52.5803 89.7587 52.1094 89.3208C51.8401 89.0697 51.5757 88.8177 51.3122 88.5657L51.2155 88.4748C50.9272 88.1997 50.6372 87.9205 50.3481 87.6388L50.2597 87.5528C50.0102 87.3116 49.7631 87.0695 49.5153 86.8233C49.0179 86.3293 48.5223 85.8286 48.029 85.3197L47.3185 84.5762C46.9691 84.2102 46.6237 83.8426 46.2784 83.47L46.1495 83.332C45.9645 83.1329 45.7794 82.9338 45.5952 82.7306C45.0846 82.1712 44.5707 81.6004 44.061 81.0212L43.5331 80.4107C43.1407 79.9572 42.7466 79.497 42.3542 79.0302L41.794 78.3618C41.2719 77.7323 40.7539 77.097 40.24 76.4518L39.8881 76.0023C39.4568 75.4554 39.0264 74.9011 38.5993 74.3426L38.1234 73.7147C37.6112 73.0331 37.0965 72.3408 36.5909 71.6377L36.3992 71.3659C35.9374 70.7224 35.4855 70.0779 35.0377 69.4269L34.623 68.8214C34.1273 68.0919 33.6299 67.3492 33.1425 66.5973L33.0962 66.5263C32.6204 65.7918 32.1544 65.0499 31.6918 64.3031L30.9862 63.1556C30.9722 63.1324 30.9573 63.1093 30.9449 63.087L30.8243 62.8846L30.8136 62.8689L30.6847 62.6524L30.6772 62.6409L30.6706 62.6301L30.5508 62.4302C30.5418 62.4137 30.5318 62.398 30.5236 62.3815L30.5211 62.3798L30.4211 62.2088C30.4104 62.1914 30.4005 62.1733 30.3906 62.1584L30.3699 62.1229L30.1576 61.761C30.1427 61.7379 30.1295 61.7148 30.1196 61.6982L29.9073 61.3322C29.899 61.3182 29.8891 61.3017 29.8808 61.2851L29.8784 61.281L29.885 61.2951C29.8734 61.2752 29.8618 61.2562 29.8519 61.2356L29.847 61.2281L29.8296 61.1976C29.8205 61.1852 29.8139 61.1711 29.8065 61.1587C29.3529 60.3731 28.9134 59.5915 28.4838 58.8116L28.1509 58.1887C27.8196 57.5749 27.4957 56.9677 27.1818 56.3637C27.0496 56.106 26.9248 55.8589 26.8001 55.6111L26.6919 55.3946C26.4457 54.9097 26.2003 54.4173 25.9615 53.9282C25.7889 53.5746 25.6203 53.2202 25.4526 52.8666C25.2386 52.413 25.0305 51.9653 24.8264 51.52C24.6546 51.1441 24.4868 50.7739 24.3241 50.4047C24.1366 49.9792 23.9531 49.5521 23.7714 49.1249L23.6863 48.9242C23.5533 48.6152 23.4219 48.3062 23.2964 47.9989C23.1468 47.6354 23.0031 47.2735 22.861 46.9108L22.6544 46.387C22.5536 46.1342 22.452 45.8806 22.357 45.6303C22.1199 45.0057 21.896 44.3853 21.6763 43.7673C16.6202 29.507 16.3508 17.265 20.9187 9.29339C23.5582 4.68673 27.7493 1.71587 33.0384 0.702173C51.0148 -2.74704 78.3837 17.3616 95.3034 46.4854C106.658 66.0298 110.447 85.3354 105.192 96.8678C102.643 102.462 98.1504 106.02 92.1996 107.161C90.8306 107.424 89.4088 107.554 87.9366 107.554ZM36.961 59.4585C36.9651 59.466 36.9693 59.4734 36.975 59.48L37.6674 60.6085C38.1036 61.3124 38.5423 62.013 38.9925 62.7053C39.4956 63.4827 39.9649 64.1825 40.4383 64.8781L40.8258 65.444C41.2479 66.0562 41.6751 66.6676 42.108 67.2715L42.2947 67.5359C42.7697 68.1951 43.2555 68.8486 43.7429 69.4963L44.1915 70.0887C44.5889 70.6108 44.9954 71.1346 45.406 71.6543L45.7348 72.074C46.2206 72.6837 46.7088 73.2818 47.2021 73.8758L47.7275 74.5045C48.0993 74.9465 48.471 75.3811 48.8445 75.8115L49.3385 76.3824C49.8193 76.9301 50.3026 77.4679 50.7876 77.9983L51.427 78.6898C51.7517 79.0401 52.0789 79.3871 52.4052 79.7308L53.0719 80.4281C53.5337 80.9039 53.9997 81.3757 54.4656 81.84C54.697 82.0688 54.9275 82.2935 55.1571 82.5166L55.248 82.605C55.519 82.8685 55.7891 83.1279 56.0593 83.3857L56.1576 83.4791C56.4038 83.7137 56.6508 83.9491 56.897 84.1788C57.3324 84.5836 57.7752 84.9884 58.2172 85.3858C58.4874 85.6279 58.7534 85.8609 59.0178 86.093L59.7861 86.7597C60.1174 87.0456 60.4462 87.3265 60.775 87.6016L61.0137 87.7966C61.7234 88.3864 62.4199 88.9457 63.1188 89.4902L63.5558 89.8289C64.7298 90.7311 65.917 91.5928 67.0835 92.3892L67.3289 92.5585C68.5533 93.3888 69.7867 94.1695 70.9987 94.8817L71.0945 94.9387C72.7551 95.9102 74.4132 96.7728 76.0176 97.5023C81.6983 100.082 86.8361 101.035 90.8777 100.262C94.5996 99.547 97.1904 97.4849 98.7989 93.9547C103.06 84.6043 99.3037 67.3566 89.2287 50.0139C74.2306 24.1989 49.1014 4.77348 34.3603 7.60224C31.0531 8.23673 28.6499 9.93201 27.0149 12.7872C23.5326 18.8628 24.0002 29.2988 28.2987 41.4194C28.5003 41.9886 28.7069 42.5595 28.925 43.1361C29.0076 43.3542 29.0952 43.5723 29.1827 43.7913L29.3959 44.3324C29.5272 44.6637 29.6569 44.9941 29.7933 45.3279C29.9106 45.6096 30.0279 45.8897 30.1477 46.1698L30.2352 46.3747C30.4038 46.7704 30.574 47.1669 30.7499 47.5651C30.9044 47.913 31.0598 48.2583 31.2184 48.6045C31.4076 49.0184 31.6042 49.4389 31.8033 49.8619C31.9561 50.1865 32.1139 50.517 32.2759 50.8483C32.4997 51.3085 32.7294 51.7662 32.9624 52.2263L33.4226 53.1359C33.7142 53.6969 34.0199 54.2719 34.3305 54.8477L34.6453 55.4351C35.0451 56.1621 35.4557 56.8933 35.8787 57.6269L35.8953 57.6534L35.9076 57.6748C35.925 57.7054 35.9432 57.7368 35.9605 57.7682C35.9746 57.7905 36.0233 57.8756 36.034 57.8946C36.0407 57.9053 36.0803 57.9723 36.0853 57.983L36.1819 58.1458C36.1943 58.1672 36.2059 58.1879 36.2158 58.2028L36.2811 58.3143L36.3224 58.3853C36.3323 58.4043 36.3604 58.4514 36.3711 58.4704C36.3761 58.4779 36.4149 58.544 36.419 58.5506C36.4232 58.5555 36.4356 58.5795 36.4488 58.601L36.4711 58.639L36.5578 58.7852C36.5669 58.8001 36.5777 58.8182 36.5892 58.8372L36.6999 59.0215C36.7041 59.0306 36.7099 59.0397 36.7156 59.0496L36.7214 59.0595L36.7958 59.1818L36.8139 59.2123C36.8016 59.1933 36.7875 59.1718 36.7726 59.1504C36.7974 59.1867 36.8197 59.2231 36.842 59.2602C36.8643 59.2966 36.8842 59.3338 36.9056 59.3709L36.9106 59.3792C36.9015 59.3627 36.8933 59.3462 36.8833 59.3313L36.961 59.4585Z" fill="#822820"/>
<path d="M175.761 47.9395C174.702 41.0196 170.319 35.9486 165.972 36.6137C161.624 37.2787 158.958 43.4278 160.016 50.3477C161.075 57.2676 165.457 62.3386 169.805 61.6735C174.153 61.0084 176.819 54.8594 175.761 47.9395Z" fill="white"/>
<path d="M180.571 84.3283L180.556 84.3588C180.561 84.3481 180.566 84.339 180.571 84.3283ZM180.775 83.9292C180.751 83.9771 180.725 84.0267 180.701 84.0738L180.775 83.9292ZM180.847 83.7846L180.823 83.8317C180.832 83.8152 180.839 83.802 180.847 83.7846ZM180.92 83.6401C180.913 83.6549 180.905 83.669 180.899 83.683C180.906 83.6682 180.912 83.6558 180.92 83.6401ZM180.956 83.5657C180.95 83.5806 180.942 83.5938 180.936 83.6087L180.956 83.5657ZM181.041 83.3939C181.031 83.4162 181.018 83.4409 181.008 83.4641L181.041 83.3939ZM181.076 83.3245C181.069 83.3385 181.064 83.3501 181.056 83.3641C181.062 83.3517 181.07 83.3369 181.076 83.3245ZM181.182 83.108C181.175 83.1204 181.171 83.1295 181.165 83.1427C181.17 83.1311 181.176 83.1188 181.182 83.108ZM181.215 83.0386C181.21 83.0502 181.206 83.0584 181.2 83.07L181.215 83.0386ZM181.335 82.7899C181.331 82.7982 181.326 82.8073 181.322 82.8156C181.327 82.8056 181.331 82.7999 181.335 82.7899Z" fill="#F4FBFE"/>
<path d="M182.894 79.2259C183.006 78.945 183.112 78.6625 183.22 78.3799C183.412 77.8785 183.598 77.3753 183.776 76.8714C183.883 76.5682 183.986 76.2658 184.087 75.9618C184.253 75.4628 184.411 74.9621 184.563 74.4606C184.653 74.1657 184.744 73.8716 184.829 73.5767C184.99 73.0165 185.137 72.4556 185.28 71.893C185.339 71.6608 185.404 71.4295 185.46 71.1965C185.649 70.4158 185.821 69.6326 185.977 68.8477C186.021 68.6288 186.054 68.409 186.096 68.1901C186.203 67.6134 186.306 67.0376 186.395 66.4601C186.444 66.1495 186.484 65.8389 186.527 65.5282C186.595 65.0383 186.658 64.5476 186.714 64.0577C186.752 63.7256 186.786 63.3943 186.817 63.063C186.862 62.5838 186.901 62.1055 186.935 61.6271C186.958 61.2991 186.982 60.972 187 60.6448C187.028 60.1293 187.043 59.6146 187.057 59.0999C187.066 58.8157 187.079 58.5315 187.082 58.2473C187.092 57.4765 187.088 56.7073 187.067 55.939C187.06 55.6813 187.043 55.4243 187.033 55.1666C187.011 54.6329 186.987 54.1008 186.951 53.5688C186.929 53.2325 186.898 52.8979 186.869 52.5625C186.83 52.1081 186.79 51.6546 186.74 51.2026C186.702 50.8499 186.66 50.4988 186.615 50.1476C186.56 49.709 186.498 49.2719 186.433 48.8349C186.381 48.4854 186.329 48.1351 186.27 47.7865C186.193 47.3321 186.107 46.8802 186.021 46.4283C185.959 46.1053 185.901 45.7814 185.834 45.4592C185.682 44.7355 185.518 44.0143 185.339 43.2971C185.265 43.0014 185.18 42.7089 185.103 42.4148C184.977 41.9431 184.852 41.4713 184.714 41.0037C184.614 40.6576 184.503 40.3122 184.396 39.9677C184.268 39.5629 184.14 39.1589 184.005 38.7566C183.886 38.4013 183.762 38.0477 183.635 37.695C183.496 37.3042 183.351 36.9159 183.203 36.5284C183.07 36.1773 182.935 35.827 182.794 35.4784C182.635 35.0843 182.467 34.6927 182.3 34.3019C182.157 33.9698 182.019 33.6369 181.87 33.3072C181.637 32.7901 181.391 32.2779 181.143 31.7673C180.927 31.3253 180.705 30.8866 180.479 30.4496C180.266 30.0373 180.053 29.6259 179.83 29.2186C179.649 28.889 179.46 28.5626 179.273 28.2363C179.068 27.8802 178.863 27.5241 178.651 27.1714C178.451 26.8393 178.246 26.5096 178.04 26.1808C177.824 25.838 177.605 25.4984 177.382 25.1597C177.169 24.8358 176.955 24.5128 176.735 24.1931C176.499 23.8494 176.256 23.5107 176.013 23.1711C175.794 22.8671 175.578 22.5606 175.353 22.2607C175.043 21.8451 174.72 21.437 174.397 21.0289C174.06 20.6034 173.717 20.1821 173.367 19.764C173.061 19.3997 172.757 19.0354 172.443 18.6776C172.192 18.3926 171.932 18.1134 171.675 17.8325C171.481 17.6202 171.293 17.4037 171.095 17.1939L171.082 17.1955C168.495 14.451 165.626 11.9246 162.472 9.68079C145.387 18.5174 128.317 33.8376 114.721 54.0669C103.582 70.6397 96.3759 88.1278 93.1836 104.442C95.8893 106.465 98.8064 108.281 101.926 109.857C105.683 111.755 109.548 113.201 113.461 114.234L113.46 114.239C114.151 114.421 114.842 114.586 115.534 114.743C115.827 114.809 116.119 114.867 116.413 114.929C116.983 115.049 117.554 115.159 118.126 115.26C118.393 115.308 118.66 115.36 118.928 115.404C119.68 115.526 120.434 115.632 121.187 115.726C121.484 115.762 121.781 115.793 122.078 115.826C122.667 115.888 123.257 115.944 123.846 115.989C124.092 116.008 124.337 116.032 124.583 116.048C125.339 116.097 126.095 116.126 126.851 116.146C127.151 116.154 127.45 116.157 127.75 116.16C127.947 116.162 128.146 116.169 128.343 116.169C128.717 116.169 129.09 116.158 129.463 116.15C129.737 116.145 130.011 116.145 130.284 116.135C131.052 116.111 131.818 116.068 132.582 116.012C132.896 115.989 133.208 115.96 133.522 115.932C134.059 115.884 134.596 115.829 135.131 115.767C135.437 115.731 135.742 115.697 136.047 115.657C136.807 115.557 137.565 115.443 138.319 115.313C138.59 115.266 138.859 115.211 139.129 115.16C139.68 115.056 140.228 114.947 140.775 114.829C141.085 114.762 141.395 114.695 141.704 114.622C142.343 114.473 142.979 114.313 143.614 114.143C143.888 114.068 144.162 113.992 144.436 113.915C145.066 113.735 145.693 113.545 146.317 113.345C146.615 113.249 146.911 113.15 147.207 113.05C147.748 112.867 148.286 112.675 148.821 112.476C149.067 112.385 149.314 112.299 149.557 112.205C150.278 111.927 150.992 111.631 151.703 111.325C151.97 111.21 152.233 111.088 152.498 110.969C153.011 110.739 153.52 110.501 154.025 110.255C154.288 110.128 154.551 110.002 154.812 109.871C155.509 109.52 156.2 109.158 156.883 108.78C157.089 108.665 157.292 108.545 157.497 108.428C158.021 108.129 158.543 107.822 159.059 107.506C159.311 107.352 159.562 107.196 159.812 107.039C160.391 106.673 160.965 106.296 161.532 105.909C161.689 105.802 161.846 105.698 162.002 105.589C162.623 105.156 163.235 104.707 163.841 104.249C164.065 104.078 164.288 103.905 164.511 103.731C165.002 103.349 165.486 102.958 165.965 102.559C166.142 102.412 166.321 102.268 166.497 102.119C167.114 101.593 167.72 101.051 168.317 100.498C168.497 100.33 168.674 100.158 168.852 99.9881C169.31 99.5527 169.761 99.1091 170.206 98.658C170.386 98.4746 170.568 98.2928 170.747 98.1069C171.321 97.5071 171.887 96.8966 172.438 96.2704C172.546 96.1465 172.651 96.0184 172.758 95.8945C173.221 95.36 173.674 94.8147 174.118 94.2612C174.28 94.0596 174.441 93.8572 174.601 93.6531C175.077 93.0434 175.544 92.4246 175.998 91.7934C176.055 91.7141 176.114 91.6381 176.171 91.5596C176.672 90.8549 177.155 90.1329 177.629 89.4009C177.761 89.1968 177.89 88.9895 178.02 88.7829C178.399 88.1806 178.769 87.5693 179.129 86.9489C179.226 86.7795 179.328 86.6134 179.425 86.4432C179.813 85.7584 180.191 85.0652 180.556 84.3597C180.56 84.3506 180.566 84.3374 180.571 84.3291C180.584 84.3043 180.595 84.2812 180.608 84.2572C180.616 84.2415 180.623 84.2267 180.632 84.211C180.655 84.1664 180.679 84.1193 180.701 84.0746C180.725 84.0275 180.751 83.9772 180.775 83.9292L180.811 83.8582L180.823 83.8326L180.847 83.7855L180.861 83.7566C180.869 83.7425 180.877 83.7268 180.884 83.7128C180.889 83.7029 180.893 83.6938 180.898 83.6839L180.92 83.6409C180.924 83.631 180.931 83.6186 180.936 83.6095C180.942 83.5947 180.95 83.5806 180.957 83.5666C180.961 83.5566 180.966 83.5476 180.97 83.5385L180.994 83.4906L181.007 83.4641L181.041 83.3947L181.056 83.365C181.063 83.3501 181.069 83.3394 181.076 83.3253L181.094 83.2865L181.112 83.2526L181.13 83.2146L181.146 83.1816L181.164 83.1427C181.171 83.1303 181.175 83.1213 181.182 83.108L181.2 83.07C181.206 83.0593 181.21 83.051 181.215 83.0395L181.235 82.9982L181.242 82.9833C181.258 82.9511 181.272 82.9213 181.288 82.8891C181.293 82.88 181.297 82.8701 181.302 82.8602L181.322 82.8164L181.335 82.7908C181.342 82.7751 181.35 82.7594 181.357 82.7437L181.369 82.7206C181.377 82.704 181.384 82.6875 181.392 82.671L181.402 82.652C181.409 82.6347 181.416 82.619 181.425 82.6024L181.435 82.5801C181.443 82.5636 181.451 82.5471 181.459 82.5297L181.46 82.5273C181.488 82.4669 181.518 82.4042 181.546 82.3447L181.556 82.324C181.563 82.3075 181.571 82.291 181.579 82.2736L181.587 82.2554C181.596 82.2389 181.604 82.2199 181.612 82.2034L181.62 82.1861C181.629 82.1679 181.637 82.1489 181.646 82.1307L181.649 82.1224C181.7 82.0142 181.749 81.9076 181.798 81.7994L181.803 81.7895C181.811 81.7697 181.821 81.7482 181.83 81.7292L181.834 81.7226L181.862 81.6598L181.863 81.6565C181.88 81.6193 181.894 81.583 181.91 81.5458C181.996 81.3558 182.073 81.1641 182.157 80.9741C182.411 80.3933 182.66 79.8108 182.894 79.2259Z" fill="#ECF2F0"/>
<path d="M128.343 119.682C128.199 119.682 128.054 119.679 127.909 119.675L127.706 119.672C127.393 119.668 127.075 119.665 126.757 119.656C125.962 119.637 125.159 119.605 124.355 119.552C124.179 119.542 123.994 119.526 123.808 119.51L123.57 119.49C122.953 119.443 122.328 119.385 121.704 119.318L121.571 119.304C121.301 119.275 121.031 119.245 120.761 119.212C119.956 119.112 119.159 119 118.363 118.87C118.161 118.837 117.967 118.801 117.774 118.766L117.509 118.718C116.904 118.611 116.298 118.493 115.692 118.367L115.596 118.347C115.319 118.289 115.043 118.232 114.767 118.171C114.027 118.003 113.293 117.828 112.562 117.634C112.496 117.617 112.431 117.598 112.366 117.576C108.208 116.464 104.163 114.923 100.342 112.992C97.0939 111.352 93.9777 109.421 91.0803 107.255C89.9997 106.447 89.4776 105.091 89.7362 103.767C93.135 86.3962 100.766 68.5321 111.805 52.1065C125.209 32.1638 142.629 15.9885 160.858 6.56039C162.026 5.95481 163.434 6.0556 164.508 6.81732C167.697 9.08678 170.707 11.7024 173.457 14.5939C173.522 14.6534 173.585 14.7154 173.647 14.7798C173.789 14.9302 173.927 15.0839 174.065 15.2375L174.402 15.6076C174.631 15.8571 174.859 16.1058 175.082 16.3586C175.377 16.6949 175.67 17.0427 175.961 17.3905L176.059 17.507C176.43 17.9506 176.794 18.3967 177.152 18.8478C177.495 19.2816 177.835 19.7136 178.164 20.1532C178.347 20.3969 178.52 20.6398 178.694 20.8827L178.864 21.1206C179.122 21.4791 179.379 21.8377 179.63 22.202C179.866 22.5465 180.092 22.8877 180.318 23.2314C180.551 23.585 180.784 23.9461 181.012 24.3079C181.232 24.6574 181.449 25.0068 181.66 25.3596C181.885 25.7322 182.101 26.1089 182.319 26.4865L182.421 26.6641C182.586 26.9508 182.751 27.2375 182.91 27.5274C183.129 27.9281 183.337 28.3288 183.543 28.7279L183.598 28.8336C183.839 29.2971 184.075 29.7638 184.303 30.2356C184.563 30.7701 184.824 31.3137 185.072 31.8623C185.193 32.1308 185.307 32.3985 185.421 32.667L185.528 32.9181C185.704 33.3296 185.882 33.7426 186.05 34.1598C186.202 34.5341 186.343 34.905 186.485 35.276C186.64 35.6824 186.795 36.0964 186.943 36.5127C187.076 36.882 187.207 37.2579 187.334 37.6355C187.478 38.0618 187.614 38.4906 187.748 38.9218L187.801 39.0895C187.899 39.3977 187.995 39.705 188.085 40.0156C188.232 40.513 188.365 41.0128 188.498 41.5143L188.581 41.8225C188.638 42.0282 188.694 42.2331 188.746 42.4404C188.937 43.2096 189.111 43.9721 189.273 44.7396C189.322 44.98 189.368 45.2188 189.412 45.4575L189.47 45.7632C189.562 46.2407 189.653 46.7199 189.733 47.2016C189.795 47.5692 189.85 47.9302 189.904 48.2913C189.976 48.7779 190.041 49.2405 190.1 49.704C190.147 50.0807 190.192 50.4525 190.232 50.8259C190.284 51.3018 190.328 51.7818 190.369 52.2634L190.382 52.4171C190.409 52.722 190.436 53.0268 190.456 53.3325C190.494 53.8984 190.519 54.4618 190.542 55.0278L190.554 55.2872C190.564 55.4747 190.574 55.6622 190.579 55.8506C190.6 56.6578 190.604 57.474 190.594 58.2903C190.592 58.4885 190.586 58.6918 190.579 58.8958L190.57 59.1891C190.554 59.7393 190.537 60.2846 190.508 60.8307C190.492 61.1141 190.473 61.395 190.452 61.675L190.44 61.8683C190.404 62.3806 190.362 62.8862 190.314 63.3918C190.28 63.7512 190.243 64.0981 190.205 64.4468C190.145 64.9714 190.078 65.4911 190.006 66.0091L189.981 66.1941C189.944 66.4601 189.908 66.727 189.867 66.9922C189.771 67.6093 189.662 68.2207 189.549 68.832L189.508 69.0625C189.482 69.2154 189.454 69.3682 189.424 69.5219C189.258 70.3621 189.074 71.1924 188.874 72.021C188.834 72.192 188.788 72.3688 188.74 72.5448L188.681 72.7695C188.532 73.3544 188.376 73.9493 188.205 74.5441C188.137 74.7837 188.061 75.0315 187.986 75.2785L187.924 75.4818C187.765 76.008 187.596 76.5409 187.42 77.0713C187.31 77.3976 187.201 77.7174 187.089 78.0371C186.902 78.57 186.704 79.1037 186.5 79.6349L186.421 79.8455C186.333 80.0736 186.247 80.3016 186.155 80.5279L186.154 80.5337C185.905 81.1534 185.643 81.7697 185.373 82.3852L185.291 82.5768C185.235 82.7107 185.178 82.8445 185.118 82.9783C185.109 83.0006 185.099 83.0246 185.089 83.0469L185.085 83.0568C185.071 83.0882 185.057 83.1196 185.043 83.1502L185.024 83.1923C185.017 83.2055 185.007 83.2295 184.995 83.2543L184.991 83.265L184.972 83.3038L184.848 83.5756L184.843 83.5856L184.84 83.5897C184.836 83.6021 184.83 83.6136 184.824 83.6244C184.82 83.636 184.814 83.6483 184.808 83.6599C184.797 83.6839 184.781 83.7169 184.767 83.7491L184.759 83.764C184.747 83.7913 184.735 83.8194 184.722 83.8466L184.635 84.0284C184.626 84.0499 184.595 84.1143 184.581 84.1432L184.566 84.1721C184.557 84.1928 184.52 84.2704 184.51 84.2911L184.505 84.3027C184.499 84.3134 184.494 84.325 184.489 84.3365C184.469 84.377 184.45 84.4183 184.429 84.4596L184.425 84.4696C184.411 84.4985 184.396 84.529 184.382 84.5571C184.386 84.5513 184.389 84.5439 184.392 84.5365L184.388 84.5456L184.381 84.5613L184.377 84.5687L184.38 84.5637C184.373 84.5778 184.366 84.5927 184.359 84.6075C184.348 84.6315 184.335 84.6546 184.323 84.6794C184.321 84.6844 184.316 84.6934 184.311 84.705C184.3 84.7281 184.287 84.7521 184.277 84.7769C184.268 84.7918 184.261 84.8074 184.254 84.8223L184.241 84.8471C184.225 84.8801 184.21 84.9124 184.192 84.9462L184.179 84.9735L184.112 85.1082C184.11 85.1148 184.1 85.1321 184.091 85.1511C184.081 85.1726 184.07 85.1949 184.061 85.2114L184.029 85.2759C184.018 85.2974 184.009 85.3164 184.001 85.3337C183.998 85.337 183.983 85.3684 183.969 85.3973C183.956 85.4221 183.944 85.4469 183.931 85.4717L183.874 85.5824C183.873 85.5865 183.834 85.6625 183.832 85.6658L183.762 85.8038L183.717 85.8922C183.712 85.9013 183.694 85.936 183.678 85.9657L183.698 85.9285C183.688 85.9476 183.678 85.9666 183.668 85.9872C183.285 86.7283 182.887 87.4569 182.478 88.1774C182.417 88.2872 182.348 88.4037 182.278 88.521L182.172 88.7028C181.785 89.3678 181.395 90.0155 180.993 90.6534L180.917 90.774C180.804 90.9532 180.691 91.1333 180.576 91.311C180.024 92.1636 179.52 92.9112 179.033 93.5953L178.894 93.7828C178.368 94.5132 177.873 95.1691 177.369 95.8152C177.197 96.0333 177.027 96.2473 176.855 96.4612C176.387 97.0462 175.906 97.6236 175.415 98.1904L175.08 98.5845C174.516 99.2247 173.929 99.8617 173.281 100.538C173.143 100.68 173.002 100.825 172.86 100.968L172.712 101.118C172.237 101.601 171.759 102.07 171.275 102.532L171.081 102.718C170.955 102.838 170.829 102.959 170.7 103.077C170.073 103.66 169.43 104.234 168.775 104.791C168.657 104.892 168.53 104.996 168.403 105.1L168.217 105.254C167.703 105.681 167.189 106.096 166.67 106.502C166.437 106.682 166.2 106.868 165.959 107.05C165.318 107.535 164.67 108.01 164.012 108.469L163.515 108.808C162.91 109.221 162.302 109.619 161.689 110.008C161.429 110.173 161.16 110.337 160.892 110.501C160.345 110.837 159.791 111.163 159.234 111.48L159.034 111.596C158.883 111.684 158.731 111.772 158.577 111.857C157.863 112.253 157.13 112.637 156.391 113.009C156.165 113.122 155.944 113.23 155.721 113.337L155.557 113.416C155.024 113.675 154.484 113.927 153.941 114.172L153.749 114.258C153.531 114.356 153.314 114.455 153.096 114.549C152.345 114.874 151.586 115.186 150.823 115.481C150.64 115.553 150.451 115.621 150.263 115.689L150.036 115.772C149.477 115.979 148.906 116.182 148.332 116.377C148.02 116.483 147.708 116.588 147.395 116.689C146.729 116.902 146.064 117.104 145.394 117.293C145.109 117.375 144.814 117.456 144.52 117.536C143.857 117.714 143.181 117.884 142.502 118.042C142.178 118.119 141.847 118.191 141.517 118.263C140.939 118.387 140.357 118.505 139.772 118.613L139.522 118.661C139.321 118.7 139.121 118.739 138.918 118.773C138.118 118.912 137.315 119.033 136.509 119.139C136.258 119.172 136.007 119.201 135.756 119.23L135.536 119.255C134.973 119.321 134.406 119.38 133.836 119.43L133.641 119.448C133.372 119.471 133.104 119.495 132.834 119.515C132.028 119.574 131.215 119.62 130.402 119.647C130.196 119.654 129.995 119.656 129.793 119.658L129.224 119.669C128.931 119.675 128.637 119.682 128.343 119.682ZM114.543 110.891C115.131 111.044 115.718 111.183 116.308 111.316C116.539 111.368 116.777 111.417 117.015 111.465L117.123 111.488C117.668 111.601 118.203 111.705 118.741 111.801L119.503 111.938C120.202 112.052 120.91 112.151 121.62 112.239C121.851 112.267 122.09 112.293 122.328 112.319L122.457 112.333C123.005 112.392 123.56 112.443 124.115 112.486L124.409 112.51C124.54 112.522 124.67 112.532 124.802 112.541C125.52 112.588 126.228 112.616 126.938 112.633C127.226 112.641 127.506 112.643 127.787 112.646L128.343 112.656C128.583 112.656 128.822 112.651 129.061 112.645L129.713 112.633C129.865 112.632 130.018 112.63 130.171 112.625C130.888 112.6 131.608 112.56 132.327 112.507C132.56 112.491 132.791 112.47 133.019 112.45L133.214 112.433C133.712 112.388 134.217 112.336 134.72 112.277L134.959 112.25C135.168 112.225 135.377 112.202 135.586 112.175C136.298 112.08 137.011 111.974 137.719 111.851C137.876 111.824 138.033 111.793 138.19 111.763L138.479 111.707C139.002 111.61 139.517 111.507 140.03 111.396C140.323 111.333 140.611 111.269 140.9 111.202C141.504 111.06 142.103 110.912 142.698 110.75C142.962 110.679 143.216 110.609 143.469 110.536C144.069 110.366 144.658 110.189 145.244 110C145.521 109.911 145.802 109.817 146.082 109.722C146.59 109.551 147.094 109.37 147.596 109.183L147.87 109.083C148.01 109.033 148.15 108.982 148.288 108.929C148.968 108.666 149.639 108.389 150.307 108.1C150.492 108.02 150.673 107.938 150.855 107.856L151.058 107.765C151.538 107.548 152.016 107.326 152.49 107.095L152.663 107.012C152.855 106.919 153.046 106.826 153.237 106.731C153.887 106.403 154.538 106.063 155.179 105.708C155.293 105.645 155.396 105.584 155.499 105.524L155.754 105.376C156.251 105.094 156.74 104.807 157.224 104.51C157.46 104.366 157.696 104.221 157.93 104.072C158.479 103.725 159.019 103.37 159.553 103.006L159.99 102.709C160.576 102.3 161.152 101.878 161.722 101.445C161.932 101.287 162.14 101.126 162.346 100.963C162.811 100.6 163.268 100.233 163.719 99.8576L164.21 99.4503C164.798 98.9504 165.366 98.4432 165.927 97.9227L166.438 97.4361C166.86 97.0346 167.284 96.6165 167.704 96.1903L168.208 95.6772C168.752 95.1105 169.282 94.5371 169.801 93.9481L170.092 93.606C170.534 93.0938 170.961 92.5832 171.378 92.0628C171.533 91.8703 171.684 91.6794 171.834 91.4878C172.28 90.9169 172.72 90.3353 173.146 89.7413L173.274 89.5686C173.734 88.9234 174.183 88.26 174.68 87.4916L175.046 86.9125C175.404 86.3441 175.752 85.7683 176.091 85.1842L176.365 84.7166C176.735 84.0639 177.091 83.4129 177.433 82.7495C177.439 82.7346 177.448 82.7189 177.456 82.704L177.471 82.6776L177.508 82.6033L177.571 82.4802L177.644 82.3372C177.644 82.3331 177.658 82.3075 177.67 82.2844L177.697 82.2298L177.698 82.2307C177.712 82.2001 177.726 82.1703 177.742 82.1406L177.767 82.0919C177.777 82.072 177.785 82.0522 177.793 82.0373L177.815 81.9969L178.483 82.3505L180.994 83.4906L177.831 81.9613C177.848 81.9275 177.871 81.8795 177.888 81.8465L177.895 81.8316C177.912 81.7969 177.928 81.7631 177.946 81.7292L177.948 81.7242C177.954 81.711 177.961 81.6978 177.967 81.6854C177.982 81.654 177.996 81.6234 178.012 81.5929C178.019 81.5813 178.026 81.5639 178.034 81.5474L178.038 81.54C178.052 81.5094 178.066 81.4789 178.082 81.4483C178.089 81.4359 178.094 81.4227 178.1 81.4111L178.109 81.3921L178.136 81.3368C178.15 81.3062 178.165 81.2748 178.18 81.2451C178.192 81.2194 178.21 81.1814 178.215 81.1723C178.22 81.1616 178.247 81.1021 178.253 81.0914C178.271 81.0517 178.27 81.0526 178.283 81.0286L178.353 80.8807C178.361 80.8625 178.368 80.846 178.376 80.8287C178.388 80.8031 178.4 80.7775 178.413 80.7518L178.418 80.7386C178.43 80.7138 178.442 80.6882 178.454 80.6634L178.466 80.637L178.601 80.3437C178.608 80.3297 178.613 80.3148 178.621 80.3016L178.624 80.2941C178.631 80.2785 178.637 80.2644 178.643 80.2504L178.651 80.2322L178.936 79.568C179.179 79.0153 179.412 78.4675 179.634 77.9173C179.71 77.7281 179.782 77.5364 179.854 77.3464L179.939 77.1234C180.119 76.6525 180.295 76.1799 180.462 75.7048C180.563 75.4182 180.661 75.1323 180.756 74.8456C180.91 74.3838 181.058 73.9137 181.2 73.4428L181.268 73.2206C181.33 73.019 181.393 72.8182 181.45 72.6158C181.602 72.0821 181.74 71.555 181.875 71.0271L181.952 70.7347C181.983 70.6157 182.016 70.4976 182.044 70.3786C182.223 69.6375 182.386 68.9006 182.532 68.1628L182.64 67.5523C182.742 67.0054 182.84 66.4643 182.923 65.9207C182.958 65.6992 182.989 65.4712 183.02 65.2432L183.047 65.0482C183.111 64.5839 183.171 64.1229 183.223 63.6603C183.258 63.3513 183.289 63.0357 183.321 62.7209C183.362 62.2806 183.399 61.8287 183.431 61.3776L183.445 61.1851C183.461 60.9414 183.479 60.6968 183.492 60.4531C183.517 59.9731 183.533 59.489 183.546 59.0057L183.557 58.6562C183.562 58.5059 183.567 58.3555 183.569 58.2068C183.579 57.479 183.575 56.7561 183.556 56.0349C183.551 55.901 183.545 55.7754 183.538 55.6507L183.522 55.3086C183.502 54.8022 183.479 54.3016 183.446 53.8026C183.428 53.5456 183.406 53.287 183.384 53.0293L183.369 52.8657C183.332 52.4336 183.294 52.0073 183.248 51.5819C183.212 51.2464 183.172 50.916 183.13 50.5863C183.079 50.1766 183.02 49.7651 182.959 49.3537C182.908 49.0108 182.859 48.6862 182.805 48.364C182.734 47.9435 182.652 47.5172 182.571 47.0925L182.506 46.7505C182.47 46.5588 182.434 46.3671 182.395 46.1763C182.253 45.4972 182.097 44.8189 181.93 44.1423C181.893 43.9961 181.849 43.8408 181.807 43.6846L181.707 43.3162C181.589 42.8717 181.472 42.4297 181.344 41.9918C181.265 41.725 181.183 41.4622 181.1 41.1995L181.044 41.0203C180.923 40.6336 180.803 40.2544 180.676 39.876C180.564 39.5431 180.447 39.2118 180.329 38.8822C180.196 38.512 180.062 38.1477 179.922 37.785C179.795 37.4496 179.668 37.1191 179.536 36.7912C179.388 36.4243 179.229 36.055 179.07 35.6858L178.955 35.4156C178.86 35.1925 178.766 34.9695 178.666 34.7472C178.449 34.2648 178.218 33.7839 177.985 33.3056C177.781 32.8843 177.572 32.4745 177.36 32.0655L177.303 31.9565C177.121 31.6037 176.939 31.2518 176.748 30.9023C176.615 30.6602 176.474 30.4149 176.332 30.1687L176.227 29.9853C176.034 29.6507 175.841 29.3144 175.641 28.9823C175.453 28.67 175.26 28.3594 175.065 28.0504C174.863 27.7299 174.658 27.4093 174.448 27.0912C174.245 26.7823 174.044 26.4782 173.837 26.1775C173.618 25.8586 173.389 25.5405 173.16 25.2216L172.977 24.9672C172.833 24.7648 172.688 24.5624 172.539 24.3624C172.249 23.975 171.945 23.5916 171.641 23.2066C171.326 22.8084 171.003 22.4119 170.674 22.0195L170.575 21.9013C170.322 21.5998 170.069 21.2974 169.808 21.0016C169.616 20.7819 169.422 20.5712 169.228 20.3614L168.834 19.9276C168.787 19.8739 168.739 19.821 168.691 19.7682C168.634 19.7161 168.58 19.6608 168.526 19.6046C166.544 17.502 164.41 15.5639 162.161 13.824C145.661 22.8473 129.916 37.7553 117.637 56.0258C107.584 70.9842 100.503 87.1488 97.0848 102.917C99.1329 104.323 101.287 105.599 103.51 106.721C106.954 108.461 110.604 109.845 114.357 110.836C114.42 110.853 114.481 110.871 114.543 110.891Z" fill="#822820"/>
</svg>
