<svg width="30" height="30" viewBox="0 0 30 30" fill="none" xmlns="http://www.w3.org/2000/svg">
<path d="M9.41553 12.0216C9.41553 8.92532 11.9254 6.41376 15.0234 6.41376C18.1197 6.41376 20.6312 8.92532 20.6312 12.0216C20.6312 15.1196 15.0234 23.9092 15.0234 23.9092C15.0234 23.9092 9.41553 15.1196 9.41553 12.0216Z" fill="white"/>
<path d="M11.9973 12.4199C11.9973 14.9554 14.8235 19.8503 16.063 22.2166C17.6479 19.5836 20.6228 14.5451 20.6228 12.2336C20.6228 11.7839 19.8603 9.43988 19.7594 9.02101C19.3422 8.92186 18.0548 6.81378 17.6052 6.81378C14.5072 6.81378 11.9973 8.87227 11.9973 12.4199Z" fill="#D84F45"/>
<path d="M12.5701 12.0215C12.5701 10.6675 13.6694 9.56812 15.0235 9.56812C16.3776 9.56812 17.4769 10.6675 17.4769 12.0215C17.4769 13.3773 16.3776 14.475 15.0235 14.475C13.6694 14.475 12.5701 13.3773 12.5701 12.0215Z" fill="#F9F7E6"/>
<path d="M15.0233 24.6803L14.6745 24.1332C14.442 23.7707 9 15.2034 9 12.0216C9 8.70132 11.703 6 15.0233 6C18.3436 6 21.0449 8.70132 21.0449 12.0216C21.0449 15.2034 15.6046 23.7707 15.3721 24.1332L15.0233 24.6803ZM15.0233 6.82921C12.1596 6.82921 9.82921 9.15953 9.82921 12.0216C9.82921 14.5263 13.806 21.1566 15.0233 23.1279C16.2406 21.1566 20.2157 14.5263 20.2157 12.0216C20.2157 9.15953 17.8871 6.82921 15.0233 6.82921Z" fill="#392312"/>
<path d="M15.0234 14.8904C13.442 14.8904 12.1545 13.603 12.1545 12.0215C12.1545 10.4401 13.442 9.15436 15.0234 9.15436C16.6049 9.15436 17.8906 10.4401 17.8906 12.0215C17.8906 13.603 16.6049 14.8904 15.0234 14.8904ZM15.0234 9.98357C13.8985 9.98357 12.9837 10.8983 12.9837 12.0215C12.9837 13.1465 13.8985 14.0612 15.0234 14.0612C16.1467 14.0612 17.0614 13.1465 17.0614 12.0215C17.0614 10.8983 16.1467 9.98357 15.0234 9.98357Z" fill="#392312"/>
</svg>
