<svg width="50" height="50" viewBox="0 0 50 50" fill="none" xmlns="http://www.w3.org/2000/svg">
<rect x="11.7517" y="18.3253" width="26.6761" height="8.65608" fill="white"/>
<path d="M34.374 15.0304L34.3624 11.6962C34.3567 10.4394 33.4668 9.93671 32.3775 10.5637L28.1969 12.9935C27.5901 11.8783 26.4431 11.0895 25.0765 11.0924C23.7186 11.104 22.5745 11.8927 21.9764 13.0224L17.7813 10.6243C16.6862 9.9945 15.7993 10.5146 15.8079 11.7656L15.8166 15.0304H34.374Z" fill="#D84F45"/>
<rect x="15.2036" y="21.8419" width="9.49106" height="5.41149" fill="#F1C14F"/>
<rect x="24.6953" y="21.8419" width="13.8249" height="5.41149" fill="#E08C35"/>
<rect x="24.6953" y="26.9816" width="10.7305" height="12.6114" fill="#E08C35"/>
<path d="M39.15 27.7025H11.0293V17.6018H39.15V27.7025ZM12.4739 26.2579H37.7054V19.0464H12.4739V26.2579Z" fill="#392312"/>
<rect x="14.7566" y="26.9816" width="9.93888" height="12.6114" fill="#F1C14F"/>
<rect x="24.3694" y="18.3256" width="1.44461" height="20.5423" fill="#392312"/>
<path d="M36.1482 39.5944L14.0342 39.4066V26.2578H36.1482V39.5944ZM15.4788 37.9736L34.7036 38.1383V27.7024H15.4788V37.9736Z" fill="#392312"/>
</svg>
