<svg width="30" height="30" viewBox="0 0 30 30" fill="none" xmlns="http://www.w3.org/2000/svg">
<path d="M12.1405 14.1379L9.63515 15.0905L7.74403 17.3683L7.25464 20.069V27.0535H23.0965V18.764L22.2063 16.6352L20.4562 14.9274L16.1644 14.0976L12.1405 14.1379Z" fill="white"/>
<path d="M15.1763 11.3634C17.2064 11.3634 18.8559 9.71598 18.8559 7.6859C18.8559 5.65381 17.2064 4.00638 15.1763 4.00638C13.1483 4.00638 11.4968 5.65381 11.4968 7.6859C11.4968 9.71598 13.1483 11.3634 15.1763 11.3634Z" fill="white"/>
<path d="M13.084 9.27089C13.084 9.8771 13.233 10.4471 13.4948 10.9505C13.9983 11.2124 14.5703 11.3614 15.1765 11.3614C17.2066 11.3614 18.856 9.71397 18.856 7.68389C18.856 7.07768 18.705 6.50571 18.4452 6.00222C17.9397 5.7404 17.3697 5.59137 16.7615 5.59137C14.7354 5.59137 13.084 7.2388 13.084 9.27089Z" fill="#AEDEE4"/>
<path d="M22.4902 23.995L22.4999 16.6209L27.1239 16.6269L27.1143 24.0011L22.4902 23.995Z" fill="#AEDEE4"/>
<path d="M15.1765 12.3704C17.7604 12.3704 19.863 10.2678 19.863 7.6859C19.863 5.10197 17.7604 2.99939 15.1765 2.99939C12.5926 2.99939 10.49 5.10197 10.49 7.6859C10.49 10.2678 12.5926 12.3704 15.1765 12.3704ZM15.1765 4.00637C17.2066 4.00637 18.856 5.6538 18.856 7.6859C18.856 9.71598 17.2066 11.3634 15.1765 11.3634C13.1484 11.3634 11.497 9.71598 11.497 7.6859C11.497 5.6538 13.1484 4.00637 15.1765 4.00637Z" fill="#392312"/>
<path d="M17.5469 13.5929H12.806C9.46684 13.5929 6.75 16.3097 6.75 19.6489V27.5558H10.6591H11.0116H19.2446H20.0502H23.6008V19.6489C23.6008 16.3097 20.884 13.5929 17.5469 13.5929ZM22.5939 26.5488H20.2516V19.377H19.2446V26.5488H11.0116V19.377H10.0046V26.5488H7.75698V19.6489C7.75698 16.8656 10.0207 14.5999 12.806 14.5999H17.5469C20.3302 14.5999 22.5939 16.8656 22.5939 19.6489V26.5488Z" fill="#392312"/>
</svg>
