<svg width="30" height="30" viewBox="0 0 30 30" fill="none" xmlns="http://www.w3.org/2000/svg">
<path d="M24.3798 15.3472C24.3798 13.4521 23.8259 11.6899 22.8834 10.1995C21.389 9.24693 19.6228 8.68704 17.7196 8.68704C12.3886 8.68704 8.06665 13.009 8.06665 18.34C8.06665 20.2432 8.62653 22.0095 9.57712 23.5038C11.0695 24.4464 12.8317 25.0022 14.7268 25.0022C20.0578 25.0022 24.3798 20.6782 24.3798 15.3472Z" fill="#4B89C6"/>
<path d="M14.7329 24.4786C9.35157 24.4786 4.9873 20.1143 4.9873 14.733C4.9873 9.35164 9.35157 4.98737 14.7329 4.98737C20.1162 4.98737 24.4785 9.35164 24.4785 14.733C24.4785 20.1143 20.1162 24.4786 14.7329 24.4786Z" fill="white"/>
<path d="M20.2914 6.73349C21.389 8.31043 22.0375 10.2237 22.0375 12.29C22.0375 17.6734 17.6733 22.0356 12.2919 22.0356C10.2236 22.0356 8.31033 21.3871 6.7334 20.2895C8.49562 22.8191 11.4179 24.4786 14.7329 24.4786C20.1162 24.4786 24.4784 20.1143 24.4784 14.733C24.4784 11.418 22.821 8.4937 20.2914 6.73349Z" fill="#4AC2C6"/>
<path d="M15.8281 10.184L17.2439 12.2262L21.6021 12.77L17.6346 16.4434L18.7544 20.2156L15.097 18.6266L10.7126 20.2156L11.4457 15.95L9.62305 14.2099L14.1666 13.5494L15.8281 10.184Z" fill="#F1C14F"/>
<path d="M14.7349 24.968C9.09178 24.968 4.50195 20.3761 4.50195 14.733C4.50195 9.08984 9.09178 4.5 14.7349 4.5C20.378 4.5 24.9659 9.08984 24.9659 14.733C24.9659 20.3761 20.378 24.968 14.7349 24.968ZM14.7349 5.47678C9.63152 5.47678 5.47671 9.62958 5.47671 14.733C5.47671 19.8384 9.63152 23.9912 14.7349 23.9912C19.8383 23.9912 23.9891 19.8384 23.9891 14.733C23.9891 9.62958 19.8383 5.47678 14.7349 5.47678Z" fill="#392312"/>
<path d="M19.4475 21.369L14.7349 18.8918L10.0202 21.369L10.9204 16.1206L7.10596 12.4028L12.3765 11.6375L14.7349 6.8624L17.0912 11.6375L22.3597 12.4028L18.5473 16.1206L19.4475 21.369ZM9.20652 13.0856L11.9697 15.7803L11.3172 19.5826L14.7349 17.7882L18.1505 19.5826L17.498 15.7803L20.2612 13.0856L16.4407 12.5317L14.7349 9.06971L13.025 12.5317L9.20652 13.0856Z" fill="#392312"/>
</svg>
