<svg width="46" height="46" viewBox="0 0 46 46" fill="none" xmlns="http://www.w3.org/2000/svg">
<g filter="url(#filter0_d_2_1956)">
<path d="M3 20C3 8.95431 11.9543 0 23 0C34.0457 0 43 8.95431 43 20C43 31.0457 34.0457 40 23 40C11.9543 40 3 31.0457 3 20Z" fill="white"/>
</g>
<path d="M27.0857 26.5836H28.5426L27.8139 24.8523L27.0857 26.5836Z" fill="#822820"/>
<path d="M33.1811 20.7531H24.1314V22.4503C24.1314 23.1737 23.5426 23.7587 22.823 23.7587C22.4741 23.7587 22.147 23.6242 21.9035 23.3771L20.9476 22.4286V29.4103C20.9476 30.2389 21.62 30.9113 22.4487 30.9113H33.1811C34.0098 30.9113 34.682 30.2389 34.682 29.4103V22.2541C34.682 21.4255 34.0098 20.7531 33.1811 20.7531ZM30.1573 28.876C30.081 28.9087 30.0047 28.9232 29.9247 28.9232C29.692 28.9232 29.4703 28.7852 29.3722 28.5562L29.0487 27.7821H26.5809L26.2539 28.5562C26.1266 28.8615 25.7742 29.0033 25.469 28.876C25.1636 28.7488 25.0218 28.3963 25.149 28.0909L27.2606 23.0718C27.4496 22.6285 28.1802 22.6285 28.3655 23.0718L30.4771 28.0909C30.6079 28.3963 30.4625 28.7488 30.1573 28.876Z" fill="#822820"/>
<path d="M30.6324 16.8484V16.9104L30.0308 16.3089C29.7965 16.0745 29.4169 16.0745 29.1826 16.3089C28.9482 16.5432 28.9482 16.9231 29.1826 17.1571L30.8082 18.7825C30.9207 18.895 31.0735 18.9582 31.2323 18.9582C31.3917 18.9582 31.544 18.895 31.6565 18.7825L33.2815 17.1571C33.5159 16.9229 33.5159 16.5429 33.2815 16.3089C33.0472 16.0745 32.6676 16.0745 32.4333 16.3089L31.8323 16.9101V16.8484C31.8323 14.4038 29.8434 12.4149 27.3982 12.4149C27.0666 12.4149 26.7983 12.6835 26.7983 13.0148C26.7983 13.3461 27.0666 13.6147 27.3982 13.6147C29.1814 13.6147 30.6324 15.0655 30.6324 16.8484Z" fill="#822820"/>
<path d="M18.5375 26.5996H17.7748C15.9915 26.5996 14.5405 25.1489 14.5405 23.3656V23.0219L15.1421 23.6234C15.2593 23.7405 15.4128 23.7991 15.5663 23.7991C15.7197 23.7991 15.8732 23.7405 15.9904 23.6234C16.2247 23.3891 16.2247 23.0094 15.9904 22.7751L14.3647 21.1494C14.1398 20.9245 13.7414 20.9245 13.5165 21.1494L11.8914 22.7751C11.6571 23.0094 11.6571 23.3893 11.8914 23.6234C12.1258 23.8577 12.5054 23.8577 12.7397 23.6234L13.3408 23.0221V23.3656C13.3408 25.8106 15.3296 27.7994 17.7748 27.7994H18.5375C18.8691 27.7994 19.1374 27.5308 19.1374 27.1995C19.1374 26.8682 18.8691 26.5996 18.5375 26.5996Z" fill="#822820"/>
<path d="M23.6013 9.0386H12.8696C12.0407 9.0386 11.3682 9.71075 11.3682 10.5399V17.6945C11.3682 18.5239 12.0407 19.1962 12.8696 19.1962H19.2451L22.6709 22.6046C22.8075 22.7407 23.04 22.6436 23.04 22.4512V19.1962H23.6013C24.4308 19.1962 25.1027 18.5239 25.1027 17.6945V10.5404C25.1027 9.71075 24.4301 9.0386 23.6013 9.0386ZM20.6452 13.5614H19.8695C19.5995 14.1362 19.2522 14.6665 18.8666 15.1425L20.0462 16.2547L20.3189 16.5118C20.5588 16.7372 20.5696 17.1187 20.3445 17.3585C20.2509 17.4576 20.1317 17.5055 20.0088 17.5268C19.9741 17.533 19.9409 17.5476 19.9059 17.5476H19.9046C19.8697 17.5476 19.8355 17.5341 19.8006 17.5279C19.7311 17.5154 19.666 17.4905 19.6034 17.4532C19.5664 17.431 19.5267 17.4148 19.4938 17.3839L18.985 16.9036L18.065 16.036C17.9343 16.1657 17.8072 16.285 17.6826 16.3992C17.0017 17.0246 16.4441 17.4118 16.3945 17.4453C16.3887 17.4492 16.3822 17.4505 16.3763 17.454C16.2859 17.5111 16.1856 17.5398 16.0839 17.5441C16.0756 17.5444 16.0676 17.5476 16.0594 17.5476C15.8672 17.5476 15.6774 17.4549 15.5615 17.2827C15.5351 17.2438 15.5255 17.1996 15.5094 17.1575C15.4691 17.0519 15.4492 16.9415 15.4703 16.8338C15.4995 16.6828 15.5863 16.5432 15.7244 16.4503C15.7246 16.4501 15.73 16.4463 15.732 16.4452C15.8047 16.393 17.2488 15.3869 18.2458 13.9846C18.3437 13.8467 18.4389 13.7064 18.5263 13.5614H15.8263C15.4946 13.5614 15.2263 13.2928 15.2263 12.9615C15.2263 12.7128 15.3774 12.4996 15.5931 12.4087C15.6649 12.3784 15.7438 12.3613 15.8268 12.3613H17.6352V11.2873C17.6352 11.146 17.6913 11.0218 17.7729 10.9193C17.8822 10.7802 18.0442 10.6858 18.2363 10.6858C18.5671 10.6858 18.8361 10.9547 18.8361 11.2889V12.3613H20.646C20.9767 12.3613 21.2457 12.63 21.2457 12.9609C21.2457 13.044 21.2286 13.123 21.1981 13.195C21.107 13.4101 20.8939 13.5614 20.6452 13.5614Z" fill="#822820"/>
<defs>
<filter id="filter0_d_2_1956" x="0" y="0" width="46" height="46" filterUnits="userSpaceOnUse" color-interpolation-filters="sRGB">
<feFlood flood-opacity="0" result="BackgroundImageFix"/>
<feColorMatrix in="SourceAlpha" type="matrix" values="0 0 0 0 0 0 0 0 0 0 0 0 0 0 0 0 0 0 127 0" result="hardAlpha"/>
<feOffset dy="3"/>
<feGaussianBlur stdDeviation="1.5"/>
<feComposite in2="hardAlpha" operator="out"/>
<feColorMatrix type="matrix" values="0 0 0 0 0 0 0 0 0 0 0 0 0 0 0 0 0 0 0.160784 0"/>
<feBlend mode="normal" in2="BackgroundImageFix" result="effect1_dropShadow_2_1956"/>
<feBlend mode="normal" in="SourceGraphic" in2="effect1_dropShadow_2_1956" result="shape"/>
</filter>
</defs>
</svg>
