<svg width="30" height="30" viewBox="0 0 30 30" fill="none" xmlns="http://www.w3.org/2000/svg">
<path d="M23.0373 25.7181H6.6808C5.20027 25.7181 4.00003 24.5178 4.00003 23.0373V6.68076C4.00003 5.20024 5.20027 4 6.6808 4H23.0373C24.5179 4 25.7181 5.20024 25.7181 6.68076V23.0373C25.7181 24.5178 24.5179 25.7181 23.0373 25.7181Z" fill="#2BAC38"/>
<path d="M22.7314 13.9037C22.7314 10.3654 19.1834 7.48694 14.8244 7.48694C10.464 7.48694 6.91666 10.3654 6.91666 13.9037C6.91666 17.0757 9.72993 19.7322 13.5298 20.2344C13.7872 20.2899 14.1375 20.4044 14.2263 20.6243C14.3061 20.8242 14.2784 21.1377 14.252 21.3396C14.252 21.3396 14.159 21.8974 14.1389 22.0161C14.1049 22.2166 13.98 22.798 14.8244 22.4427C15.668 22.0868 19.3769 19.7613 21.0365 17.852C22.1826 16.5949 22.7314 15.3197 22.7314 13.9037Z" fill="white"/>
<path d="M13.2169 12.1942H12.6619C12.5772 12.1942 12.5078 12.2629 12.5078 12.3482V15.7935C12.5078 15.8782 12.5772 15.9469 12.6619 15.9469H13.2169C13.3022 15.9469 13.3709 15.8782 13.3709 15.7935V12.3482C13.3709 12.2629 13.3022 12.1942 13.2169 12.1942Z" fill="#2BAC38"/>
<path d="M17.0348 12.1942H16.4804C16.3951 12.1942 16.3264 12.2629 16.3264 12.3482V14.3949L14.7474 12.2629C14.7439 12.2573 14.7397 12.2518 14.7349 12.2469L14.7252 12.2365L14.7224 12.2338L14.7141 12.2268L14.7099 12.224L14.7016 12.2185L14.6974 12.2157L14.6891 12.2109L14.6842 12.2088L14.6752 12.2046L14.6704 12.2032L14.6613 12.2005L14.6558 12.1991L14.6468 12.197L14.6405 12.1963L14.6322 12.1949L14.6246 12.1942H14.619H14.0647C13.9794 12.1942 13.9107 12.2629 13.9107 12.3482V15.7935C13.9107 15.8782 13.9794 15.9469 14.0647 15.9469H14.619C14.7044 15.9469 14.773 15.8782 14.773 15.7935V13.7469L16.3542 15.8823C16.3646 15.8976 16.3784 15.9101 16.393 15.9198L16.3944 15.9212L16.4041 15.9267L16.4083 15.9295L16.4159 15.933L16.4235 15.9365L16.4277 15.9378L16.4388 15.9413L16.4409 15.942C16.4534 15.9455 16.4666 15.9469 16.4804 15.9469H17.0348C17.1201 15.9469 17.1888 15.8782 17.1888 15.7935V12.3482C17.1888 12.2629 17.1201 12.1942 17.0348 12.1942Z" fill="#2BAC38"/>
<path d="M11.88 15.0845H10.3731V12.3482C10.3731 12.2629 10.3037 12.1942 10.2191 12.1942H9.66406C9.57942 12.1942 9.51004 12.2629 9.51004 12.3482V15.7935C9.51004 15.8345 9.52669 15.8719 9.55305 15.8997L9.55514 15.9025L9.55791 15.9045C9.58566 15.9309 9.62243 15.9476 9.66406 15.9476H11.88C11.9653 15.9476 12.034 15.8782 12.034 15.7935V15.2385C12.034 15.1532 11.9653 15.0845 11.88 15.0845Z" fill="#2BAC38"/>
<path d="M20.0978 13.0567C20.1831 13.0567 20.2518 12.988 20.2518 12.9026V12.3483C20.2518 12.263 20.1831 12.1936 20.0978 12.1936H17.8819C17.8402 12.1936 17.8028 12.2103 17.775 12.2373L17.7729 12.2387L17.7709 12.2415C17.7445 12.2692 17.7278 12.3067 17.7278 12.3476V15.7929C17.7278 15.8346 17.7445 15.872 17.7709 15.8998L17.7729 15.9019L17.7757 15.9039C17.8028 15.9303 17.8402 15.947 17.8819 15.947H20.0978C20.1831 15.947 20.2518 15.8776 20.2518 15.7929V15.2379C20.2518 15.1533 20.1831 15.0839 20.0978 15.0839H18.5909V14.5018H20.0978C20.1831 14.5018 20.2518 14.4331 20.2518 14.3478V13.7928C20.2518 13.7081 20.1831 13.6387 20.0978 13.6387H18.5909V13.0567H20.0978Z" fill="#2BAC38"/>
</svg>
