<?xml version="1.0" encoding="UTF-8"?>
<svg version="1.1" xmlns="http://www.w3.org/2000/svg" width="1000" height="1000">
<path d="M0 0 C1.43005364 0.0022225 2.86010735 0.00439901 4.29016113 0.00653076 C24.50193045 0.04827889 44.46974693 0.33266124 64.5 3.3125 C65.92804562 3.51865358 67.35610623 3.72470338 68.78417969 3.93066406 C117.88313012 11.10892178 165.4034105 24.46867227 210.5 45.3125 C211.95913818 45.97934814 211.95913818 45.97934814 213.44775391 46.65966797 C255.90466844 66.12116103 296.6801584 92.4001833 331.09375 124.1171875 C333.12670597 125.9719298 335.18485428 127.78488005 337.26171875 129.58984375 C348.66483878 139.5460021 359.44163154 150.00454895 369.5 161.3125 C370.42968827 162.3214156 371.36203655 163.32788582 372.296875 164.33203125 C378.30222868 170.78460313 383.98799781 177.4316231 389.5 184.3125 C390.41042701 185.42011935 391.32193843 186.526848 392.234375 187.6328125 C448.32883742 256.06203511 483.2926493 340.73474 496.3125 427.875 C496.60483521 429.81366943 496.60483521 429.81366943 496.90307617 431.79150391 C500.11776658 454.42326441 500.8752709 476.97802793 500.8125 499.8125 C500.8102775 501.24255364 500.80810099 502.67260735 500.80596924 504.10266113 C500.76422111 524.31443045 500.47983876 544.28224693 497.5 564.3125 C497.29384642 565.74054562 497.08779662 567.16860623 496.88183594 568.59667969 C489.70357822 617.69563012 476.34382773 665.2159105 455.5 710.3125 C455.05543457 711.28525879 454.61086914 712.25801758 454.15283203 713.26025391 C434.69133897 755.71716844 408.4123167 796.4926584 376.6953125 830.90625 C374.8405702 832.93920597 373.02761995 834.99735428 371.22265625 837.07421875 C361.2664979 848.47733878 350.80795105 859.25413154 339.5 869.3125 C338.4910844 870.24218827 337.48461418 871.17453655 336.48046875 872.109375 C330.02789687 878.11472868 323.3808769 883.80049781 316.5 889.3125 C315.39238065 890.22292701 314.285652 891.13443843 313.1796875 892.046875 C244.75046489 948.14133742 160.07776 983.1051493 72.9375 996.125 C71.64505371 996.31989014 70.35260742 996.51478027 69.02099609 996.71557617 C46.38923559 999.93026658 23.83447207 1000.6877709 1 1000.625 C-0.43005364 1000.6227775 -1.86010735 1000.62060099 -3.29016113 1000.61846924 C-23.50193045 1000.57672111 -43.46974693 1000.29233876 -63.5 997.3125 C-64.92804562 997.10634642 -66.35610623 996.90029662 -67.78417969 996.69433594 C-116.88313012 989.51607822 -164.4034105 976.15632773 -209.5 955.3125 C-210.95913818 954.64565186 -210.95913818 954.64565186 -212.44775391 953.96533203 C-254.90466844 934.50383897 -295.6801584 908.2248167 -330.09375 876.5078125 C-332.12670597 874.6530702 -334.18485428 872.84011995 -336.26171875 871.03515625 C-347.66483878 861.0789979 -358.44163154 850.62045105 -368.5 839.3125 C-369.42968827 838.3035844 -370.36203655 837.29711418 -371.296875 836.29296875 C-377.30222868 829.84039687 -382.98799781 823.1933769 -388.5 816.3125 C-389.41042701 815.20488065 -390.32193843 814.098152 -391.234375 812.9921875 C-447.32883742 744.56296489 -482.2926493 659.89026 -495.3125 572.75 C-495.50739014 571.45755371 -495.70228027 570.16510742 -495.90307617 568.83349609 C-499.11776658 546.20173559 -499.8752709 523.64697207 -499.8125 500.8125 C-499.8102775 499.38244636 -499.80810099 497.95239265 -499.80596924 496.52233887 C-499.76422111 476.31056955 -499.47983876 456.34275307 -496.5 436.3125 C-496.29384642 434.88445438 -496.08779662 433.45639377 -495.88183594 432.02832031 C-488.70357822 382.92936988 -475.34382773 335.4090895 -454.5 290.3125 C-454.05543457 289.33974121 -453.61086914 288.36698242 -453.15283203 287.36474609 C-433.69133897 244.90783156 -407.4123167 204.1323416 -375.6953125 169.71875 C-373.8405702 167.68579403 -372.02761995 165.62764572 -370.22265625 163.55078125 C-360.2664979 152.14766122 -349.80795105 141.37086846 -338.5 131.3125 C-337.4910844 130.38281173 -336.48461418 129.45046345 -335.48046875 128.515625 C-329.02789687 122.51027132 -322.3808769 116.82450219 -315.5 111.3125 C-314.39238065 110.40207299 -313.285652 109.49056157 -312.1796875 108.578125 C-243.75046489 52.48366258 -159.07776 17.5198507 -71.9375 4.5 C-70.64505371 4.30510986 -69.35260742 4.11021973 -68.02099609 3.90942383 C-45.38923559 0.69473342 -22.83447207 -0.0627709 0 0 Z " fill="#999999" transform="translate(499.5,-0.3125)"/>
<path d="M0 0 C14.65593916 8.76226968 22.9670117 23.35242388 28.1953125 39.3125 C29.36331686 44.71962507 29.41398001 50.05581539 29.4453125 55.5625 C29.4659375 56.45324219 29.4865625 57.34398437 29.5078125 58.26171875 C29.57898986 70.5220185 25.28434159 81.1971885 16.8203125 90.125 C8.1201222 98.23372999 -1.46686681 101.86639112 -13.3046875 101.625 C-14.09488281 101.62822266 -14.88507813 101.63144531 -15.69921875 101.63476562 C-28.76824855 101.51712297 -41.31344485 97.53061337 -50.8046875 88.3125 C-59.08569917 78.87330488 -62.3964372 69.67369365 -62.3046875 57.1875 C-62.29969238 56.2787915 -62.29469727 55.37008301 -62.28955078 54.43383789 C-61.82669457 36.24997283 -53.49472095 19.62404703 -41.125 6.53515625 C-30.31036314 -3.63267218 -13.52256519 -6.60084538 0 0 Z " fill="#FDFDFD" transform="translate(277.8046875,449.6875)"/>
<path d="M0 0 C1.75715637 -0.16784668 1.75715637 -0.16784668 4.77668762 0.36340332 C6.97294635 2.54399686 8.42766265 4.32187853 10.08918762 6.86340332 C10.55212219 7.53178223 11.01505676 8.20016113 11.49201965 8.88879395 C15.69357712 15.02766486 19.62630358 21.35022984 23.48762512 27.70715332 C25.07078132 30.30003906 26.76661329 32.75941691 28.56575012 35.20715332 C30.77668762 38.36340332 30.77668762 38.36340332 30.77668762 40.36340332 C35.97258751 36.44108491 39.49057398 32.04993907 43.21418762 26.73840332 C43.77968323 25.94385742 44.34517883 25.14931152 44.92781067 24.33068848 C49.07666722 18.46331776 53.05282027 12.51116978 56.77668762 6.36340332 C63.28148262 6.79705632 73.94229616 7.52901185 78.77668762 12.36340332 C78.86480211 13.84087247 78.88360669 15.32254696 78.87434387 16.8026123 C78.87108093 17.75499786 78.86781799 18.70738342 78.86445618 19.68862915 C78.85611755 20.73501556 78.84777893 21.78140198 78.83918762 22.85949707 C78.83061949 25.09883587 78.82216039 27.33817508 78.813797 29.57751465 C78.80759338 30.75810455 78.80138977 31.93869446 78.79499817 33.15505981 C78.68403792 55.24853941 78.91034554 77.28715063 79.77668762 99.36340332 C74.16668762 99.36340332 68.55668762 99.36340332 62.77668762 99.36340332 C62.68861765 89.58763669 62.83939159 79.87968144 63.27668762 70.11340332 C63.77829442 58.855692 63.88331613 47.63048259 63.77668762 36.36340332 C55.76889719 43.15107184 47.87597389 50.01900883 40.20246887 57.18371582 C35.52158196 61.38973015 35.52158196 61.38973015 32.89778137 61.29699707 C22.42263614 56.68638987 14.21149948 40.96851396 7.90901184 31.93884277 C6.86777355 30.40065658 6.86777355 30.40065658 5.77668762 29.36340332 C5.31199135 41.29060758 6.17871186 52.9988266 7.27668762 64.86340332 C8.37758236 76.75952211 9.1059039 88.40187845 8.77668762 100.36340332 C-0.13331238 100.36340332 -9.04331238 100.36340332 -18.22331238 100.36340332 C-18.2903996 93.72176854 -18.32222094 87.25466582 -17.75065613 80.6427002 C-17.1208203 72.62168018 -16.8965657 64.60248047 -16.68815613 56.56262207 C-16.64502426 54.98935694 -16.60160776 53.41609959 -16.55792236 51.84284973 C-16.44496588 47.7479263 -16.33581648 43.65291039 -16.2275238 39.55786133 C-16.11583831 35.36081641 -16.00046396 31.16387296 -15.88542175 26.96691895 C-15.66115609 18.76584073 -15.44092173 10.56466085 -15.22331238 2.36340332 C-13.13964892 2.04064168 -11.05589035 1.71849397 -8.97209167 1.39660645 C-7.81170883 1.21714478 -6.65132599 1.03768311 -5.45578003 0.8527832 C-3.63584334 0.57725364 -1.81656936 0.29692064 0 0 Z " fill="#FDFDFD" transform="translate(516.2233123779297,448.6365966796875)"/>
<path d="M0 0 C3.10398978 -0.08710289 6.20766548 -0.14042309 9.3125 -0.1875 C10.19357422 -0.21263672 11.07464844 -0.23777344 11.98242188 -0.26367188 C13.25375977 -0.27817383 13.25375977 -0.27817383 14.55078125 -0.29296875 C15.72120972 -0.31653442 15.72120972 -0.31653442 16.9152832 -0.34057617 C19.53899393 0.0880544 20.35869876 0.95523797 22 3 C23.12817383 5.05517578 23.12817383 5.05517578 24.20703125 7.4453125 C24.62130371 8.34459473 25.03557617 9.24387695 25.46240234 10.17041016 C25.90793457 11.1454248 26.3534668 12.12043945 26.8125 13.125 C36.90289177 34.67414577 48.48883024 57.04549785 63 76 C63.10048134 61.75638373 63.11984546 47.5454747 62.5 33.3125 C62.1682367 25.68541808 61.89357107 18.0725313 61.875 10.4375 C61.87048828 9.68702393 61.86597656 8.93654785 61.86132812 8.16333008 C61.87578584 3.12421416 61.87578584 3.12421416 63 2 C65.51662648 2.06467965 67.99184871 2.1909155 70.5 2.375 C71.20253906 2.41882813 71.90507812 2.46265625 72.62890625 2.5078125 C77.87145769 2.87145769 77.87145769 2.87145769 79 4 C79.09491658 5.73114249 79.11885067 7.46621233 79.11523438 9.19995117 C79.11463013 10.32283035 79.11402588 11.44570953 79.11340332 12.60261536 C79.10367493 14.46027779 79.10367493 14.46027779 79.09375 16.35546875 C79.09016479 17.64502975 79.08657959 18.93459076 79.08288574 20.26322937 C79.02919473 35.5267761 78.78422828 50.78854346 78.53643799 66.04992676 C78.47443715 69.89979481 78.41508806 73.74970383 78.35546875 77.59960938 C78.2394706 85.066447 78.12070476 92.53323681 78 100 C73.49534209 101.14204251 69.61602698 102.06457264 65 101 C63.04321289 99.30859375 63.04321289 99.30859375 61.16015625 97.0625 C60.47034668 96.24346191 59.78053711 95.42442383 59.06982422 94.58056641 C55.85557527 90.57318125 52.73891052 86.50755823 49.6875 82.375 C49.03942383 81.50399658 48.39134766 80.63299316 47.72363281 79.7355957 C45.81050256 77.16090029 43.90381364 74.58158972 42 72 C41.47937988 71.29439941 40.95875977 70.58879883 40.42236328 69.86181641 C37.72507921 66.20154106 35.03910732 62.53313404 32.35888672 58.86035156 C29.84871395 55.4238592 27.32992069 51.99368427 24.8125 48.5625 C23.88147671 47.29299347 22.95048382 46.02346464 22.01953125 44.75390625 C21.35308594 43.84511719 20.68664062 42.93632812 20 42 C20.90637075 57.20489823 21.95382675 72.31177779 24.03442383 87.40820312 C24.65991124 91.98089827 25.17007116 96.36942623 25 101 C20.85226712 103.07386644 15.50566237 102.44678139 10.9375 102.625 C9.81021484 102.6765625 8.68292969 102.728125 7.52148438 102.78125 C6.45091797 102.82507813 5.38035156 102.86890625 4.27734375 102.9140625 C3.28984131 102.9548291 2.30233887 102.9955957 1.28491211 103.03759766 C-1 103 -1 103 -2 102 C-2.32862236 94.75097726 -2.1296526 87.44748527 -1.66197205 80.20881653 C-0.69467948 65.04031401 -0.66254033 49.83014598 -0.46777344 34.63671875 C-0.41676602 30.72066564 -0.36150161 26.80467256 -0.30664062 22.88867188 C-0.2003603 15.25916598 -0.09864897 7.6296088 0 0 Z " fill="#FDFDFD" transform="translate(123,447)"/>
<path d="M0 0 C6.18331536 3.72886957 12.54899687 8.52857344 16.55859375 14.54296875 C16.43672576 19.37706563 13.69873205 22.05591429 10.49609375 25.35546875 C10.02365234 25.85755859 9.55121094 26.35964844 9.06445312 26.87695312 C7.90450923 28.10719664 6.7327056 29.3262394 5.55859375 30.54296875 C2.17024854 29.2663739 -0.82321268 27.74403416 -3.94140625 25.91796875 C-10.5777595 22.57998212 -17.56406183 22.2029475 -24.73046875 24.171875 C-32.39081234 27.57477663 -39.46379839 33.88199397 -42.734375 41.6328125 C-42.96769531 42.26316406 -43.20101562 42.89351563 -43.44140625 43.54296875 C-43.85390625 44.57421875 -44.26640625 45.60546875 -44.69140625 46.66796875 C-46.01581666 53.51075587 -47.17382566 62.05838474 -44.00390625 68.54296875 C-37.60630282 76.03284594 -29.5847772 79.40782634 -20.0078125 80.9296875 C-12.62837764 81.46100681 -6.48688876 78.62943127 -0.44140625 74.54296875 C0.87859375 72.89296875 2.19859375 71.24296875 3.55859375 69.54296875 C-6.83640625 70.53296875 -6.83640625 70.53296875 -17.44140625 71.54296875 C-19.69140625 63.66796875 -19.69140625 63.66796875 -19.56640625 59.10546875 C-19.54835938 58.24050781 -19.5303125 57.37554687 -19.51171875 56.484375 C-19.48851562 55.84371094 -19.4653125 55.20304687 -19.44140625 54.54296875 C-15.10782283 54.85206051 -10.77459203 55.16585536 -6.44140625 55.48046875 C-5.22066406 55.56748047 -3.99992188 55.65449219 -2.7421875 55.74414062 C3.38626743 56.1913522 9.47157028 56.69839424 15.55859375 57.54296875 C16.0183036 59.13427208 16.47576497 60.72624074 16.92578125 62.3203125 C17.35745988 63.83651706 17.80068052 65.34947131 18.25390625 66.859375 C20.17088298 73.46790003 21.44501763 80.0985583 22.55639648 86.88037109 C23.16241377 90.82965499 23.16241377 90.82965499 24.55859375 94.54296875 C24.59858575 96.54256887 24.60206174 98.54344117 24.55859375 100.54296875 C17.69369733 104.83352901 8.31095702 103.6592542 0.55859375 103.54296875 C0.55859375 100.57296875 0.55859375 97.60296875 0.55859375 94.54296875 C-0.075625 94.90390625 -0.70984375 95.26484375 -1.36328125 95.63671875 C-8.23383019 99.0530138 -14.01258978 100.06021771 -21.62890625 100.10546875 C-22.45938477 100.11964844 -23.28986328 100.13382813 -24.14550781 100.1484375 C-32.78123659 100.01152543 -39.54547812 96.59998271 -46.44140625 91.54296875 C-47.43140625 90.82109375 -48.42140625 90.09921875 -49.44140625 89.35546875 C-56.41813383 83.3675687 -60.78899446 74.77289284 -61.74243164 65.66845703 C-61.87940418 62.51581835 -61.9088584 59.38590378 -61.87890625 56.23046875 C-61.87133301 55.11978027 -61.86375977 54.0090918 -61.85595703 52.86474609 C-61.70008089 45.13351697 -60.97045098 38.52410084 -57.44140625 31.54296875 C-57.01730469 30.63160156 -56.59320312 29.72023438 -56.15625 28.78125 C-50.19440182 16.87416045 -40.55614376 4.0267291 -27.50390625 -0.39453125 C-26.15396542 -0.76447874 -24.80014232 -1.12082048 -23.44140625 -1.45703125 C-15.93047468 -3.96067511 -7.16986249 -3.26116898 0 0 Z " fill="#FDFDFD" transform="translate(773.44140625,449.45703125)"/>
<path d="M0 0 C7.02589799 0.46071462 13.80369476 1.4532933 20 5 C21.8594827 8.07976821 22.38662568 9.58485654 23 13 C23.21398437 14.06347656 23.42796875 15.12695312 23.6484375 16.22265625 C24.14016719 18.69452324 24.62181916 21.16841281 25.09423828 23.64404297 C25.9546793 27.93348305 27.03926928 32.13595447 28.21875 36.34765625 C28.43473846 37.12124985 28.65072693 37.89484344 28.8732605 38.69187927 C31.34554324 47.40825511 34.21749831 55.98365334 37.125 64.5625 C37.65538234 66.13852575 38.18533118 67.71469744 38.71484375 69.29101562 C41.34207392 77.12872664 41.34207392 77.12872664 44.02758789 84.9465332 C45.64577373 89.61689146 46.31193076 93.11308482 46 98 C44.00458132 98.68025637 42.00382009 99.34490497 40 100 C39.38125 100.20625 38.7625 100.4125 38.125 100.625 C34.72248288 101.2254442 31.45314149 101.11321775 28 101 C26.11102709 99.11102709 26.15200914 95.96764756 25.6875 93.4375 C25.55996338 92.7472876 25.43242676 92.0570752 25.30102539 91.34594727 C24.48224648 86.85264837 23.72257529 82.35095025 22.984375 77.84375 C22.81075439 76.78486572 22.63713379 75.72598145 22.45825195 74.63500977 C22.11660341 72.53722685 21.77906018 70.43877034 21.44604492 68.33959961 C20.59509986 63.09016229 19.48954026 58.11128534 18 53 C17.44413459 50.13654575 17.00393972 47.25801737 16.5625 44.375 C15.48494075 31.80986501 15.48494075 31.80986501 11 21 C7.05414941 32.59347854 3.36543002 44.22521931 0 56 C-0.39968589 57.3919425 -0.79942484 58.78386977 -1.19921875 60.17578125 C-2.13857422 63.44892289 -3.06904507 66.72441783 -4 70 C1.28 70 6.56 70 12 70 C14 77 14 77 14 84 C6.41 84.33 -1.18 84.66 -9 85 C-10.85228303 90.2160966 -10.85228303 90.2160966 -12.67895508 95.44116211 C-13.36722375 97.32750202 -14.18171123 99.16631641 -15 101 C-18.87517692 102.29172564 -21.25044968 101.17965568 -24.9375 99.875 C-25.9287085 99.53094116 -25.9287085 99.53094116 -26.93994141 99.17993164 C-28.9653483 98.46741461 -30.98325753 97.7366485 -33 97 C-34.79244141 96.35224609 -34.79244141 96.35224609 -36.62109375 95.69140625 C-37.69488281 95.27761719 -38.76867187 94.86382813 -39.875 94.4375 C-40.84179688 94.06496094 -41.80859375 93.69242188 -42.8046875 93.30859375 C-45 92 -45 92 -46.07421875 90.29296875 C-45.95437717 86.5904946 -43.87274018 83.91381885 -41.9375 80.875 C-30.74507149 62.56379823 -20.97437737 43.4828715 -12 24 C-4.30050681 7.31284337 -4.30050681 7.31284337 0 0 Z " fill="#FDFDFD" transform="translate(654,447)"/>
<path d="M0 0 C11.21524152 0.02792533 22.40130777 0.42106344 33.60449219 0.93017578 C36.71061777 1.07022533 39.81704587 1.20124396 42.92358398 1.33178711 C44.89821718 1.41914081 46.87282761 1.50701134 48.84741211 1.59545898 C49.77637802 1.63404526 50.70534393 1.67263153 51.66246033 1.71238708 C52.51167557 1.75235306 53.36089081 1.79231903 54.23583984 1.83349609 C54.98478012 1.86680527 55.7337204 1.90011444 56.50535583 1.93443298 C58.22631836 2.13061523 58.22631836 2.13061523 59.22631836 3.13061523 C59.32618811 5.97396571 59.36509717 8.78758687 59.35131836 11.63061523 C59.35711914 12.82750977 59.35711914 12.82750977 59.36303711 14.04858398 C59.35292603 20.00400756 59.35292603 20.00400756 58.22631836 21.13061523 C55.41655318 21.2907869 52.6285824 21.39012058 49.81616211 21.44702148 C48.55310997 21.47819313 48.55310997 21.47819313 47.26454163 21.50999451 C44.56438657 21.57558335 41.86413119 21.63441799 39.16381836 21.69311523 C37.33763595 21.7362916 35.51146382 21.77990559 33.68530273 21.82397461 C29.19907844 21.93127418 24.71275286 22.03251489 20.22631836 22.13061523 C20.23211914 23.03247559 20.23791992 23.93433594 20.24389648 24.86352539 C20.26953223 31.76594947 20.19930899 38.61951396 19.72631836 45.50561523 C19.56131836 48.02186523 19.39631836 50.53811523 19.22631836 53.13061523 C28.46631836 53.13061523 37.70631836 53.13061523 47.22631836 53.13061523 C47.22631836 57.09061523 47.22631836 61.05061523 47.22631836 65.13061523 C46.22631836 66.13061523 46.22631836 66.13061523 44.32006836 66.26342773 C35.59962673 66.23716134 26.92477841 65.70167475 18.22631836 65.13061523 C18.23791992 66.02522461 18.24952148 66.91983398 18.26147461 67.84155273 C18.27049805 69.05069336 18.27952148 70.25983398 18.28881836 71.50561523 C18.30041992 72.68897461 18.31202148 73.87233398 18.32397461 75.09155273 C18.29951606 78.21483283 18.0433655 81.27678489 17.72021484 84.38305664 C17.62828354 85.27473541 17.53635223 86.16641418 17.44163513 87.08511353 C17.3705806 87.76012909 17.29952606 88.43514465 17.22631836 89.13061523 C17.81291733 89.10333847 18.3995163 89.07606171 19.00389099 89.04795837 C25.08630667 88.76614178 31.16901689 88.49153433 37.25195312 88.22119141 C39.52482411 88.11921716 41.79761223 88.01537875 44.0703125 87.90966797 C47.32914789 87.75840801 50.58821842 87.613763 53.84741211 87.47045898 C55.38177162 87.39709572 55.38177162 87.39709572 56.9471283 87.32225037 C57.88802811 87.28213333 58.82892792 87.2420163 59.79833984 87.20068359 C61.04743385 87.144058 61.04743385 87.144058 62.32176208 87.08628845 C64.22631836 87.13061523 64.22631836 87.13061523 65.22631836 88.13061523 C65.29951999 90.66339173 65.31859405 93.16165441 65.28881836 95.69311523 C65.27778076 97.00658936 65.26674316 98.32006348 65.25537109 99.67333984 C65.24578369 100.81424072 65.23619629 101.9551416 65.22631836 103.13061523 C51.16045606 103.18844278 37.10641433 103.06268361 23.04370117 102.75830078 C19.9093439 102.69169195 16.77489281 102.63280118 13.64038086 102.57397461 C11.64297523 102.5321216 9.64557891 102.48982201 7.64819336 102.44702148 C6.71303894 102.43030899 5.77788452 102.4135965 4.81439209 102.39637756 C3.96129456 102.37643234 3.10819702 102.35648712 2.22924805 102.3359375 C1.4776239 102.32039322 0.72599976 102.30484894 -0.04840088 102.28883362 C-1.77368164 102.13061523 -1.77368164 102.13061523 -2.77368164 101.13061523 C-2.93240848 99.50245614 -3.02251862 97.86756768 -3.08569336 96.23291016 C-3.127034 95.16768631 -3.16837463 94.10246246 -3.21096802 93.00495911 C-3.24971039 91.82310532 -3.28845276 90.64125153 -3.32836914 89.42358398 C-3.37041473 88.18521286 -3.41246033 86.94684174 -3.45578003 85.67094421 C-3.91858094 70.5536135 -3.92561019 55.43467478 -3.90405273 40.31152344 C-3.89822523 36.1826301 -3.90173633 32.05379993 -3.9076252 27.92490864 C-3.91121849 24.71404023 -3.9101002 21.50318719 -3.90749741 18.29231834 C-3.90683135 16.76642029 -3.90764533 15.24052083 -3.90997696 13.7146244 C-3.91249687 11.61277064 -3.90867847 9.51102528 -3.90307617 7.40917969 C-3.90228058 6.21678177 -3.90148499 5.02438385 -3.90066528 3.79585266 C-3.72678817 0.14637631 -3.6621573 0.17245438 0 0 Z " fill="#FDFDFD" transform="translate(813.773681640625,446.869384765625)"/>
<path d="M0 0 C2 2 2 2 2.15112305 4.32250977 C2.10511963 5.26924561 2.05911621 6.21598145 2.01171875 7.19140625 C1.96466797 8.21814453 1.91761719 9.24488281 1.86914062 10.30273438 C1.80919922 11.37845703 1.74925781 12.45417969 1.6875 13.5625 C1.63916016 14.64208984 1.59082031 15.72167969 1.54101562 16.83398438 C1.14261946 24.85738054 1.14261946 24.85738054 0 26 C-1.85583223 26.01674294 -3.71239363 25.96275607 -5.56640625 25.87890625 C-6.69111328 25.83056641 -7.81582031 25.78222656 -8.97460938 25.73242188 C-10.75061523 25.64831055 -10.75061523 25.64831055 -12.5625 25.5625 C-14.34430664 25.48418945 -14.34430664 25.48418945 -16.16210938 25.40429688 C-19.10831066 25.2741434 -22.05421276 25.1391636 -25 25 C-24.09576383 44.314264 -22.70509458 63.46930469 -20.32128906 82.66137695 C-20.1908168 83.7240831 -20.1908168 83.7240831 -20.05770874 84.80825806 C-19.82182912 86.71677484 -19.57891412 88.62441844 -19.33544922 90.53198242 C-18.99482241 94.05352811 -18.87202079 97.46450516 -19 101 C-20.65394117 102.65394117 -22.60315413 102.12999683 -24.875 102.1328125 C-25.85984375 102.13410156 -26.8446875 102.13539063 -27.859375 102.13671875 C-28.89578125 102.13285156 -29.9321875 102.12898437 -31 102.125 C-32.55460937 102.13080078 -32.55460937 102.13080078 -34.140625 102.13671875 C-35.12546875 102.13542969 -36.1103125 102.13414062 -37.125 102.1328125 C-38.03507812 102.13168457 -38.94515625 102.13055664 -39.8828125 102.12939453 C-42 102 -42 102 -43 101 C-42.95910391 98.42354626 -42.84626204 95.88285746 -42.6875 93.3125 C-42.64044922 92.48089355 -42.59339844 91.64928711 -42.54492188 90.79248047 C-42.23998505 85.55302588 -41.88653833 80.31747017 -41.51953125 75.08203125 C-40.30656679 57.71694179 -39.47805705 40.40049945 -39 23 C-40.35532837 23.05329468 -40.35532837 23.05329468 -41.73803711 23.10766602 C-45.07937816 23.23661797 -48.42082359 23.36097487 -51.76245117 23.48217773 C-53.21076301 23.53566237 -54.65900775 23.59099659 -56.10717773 23.64819336 C-58.18458582 23.72992512 -60.2621417 23.80507768 -62.33984375 23.87890625 C-63.59144287 23.9260376 -64.84304199 23.97316895 -66.13256836 24.02172852 C-69 24 -69 24 -70 23 C-70.08651611 21.58429877 -70.10704904 20.164405 -70.09765625 18.74609375 C-70.09443359 17.89208984 -70.09121094 17.03808594 -70.08789062 16.15820312 C-70.07951172 15.26037109 -70.07113281 14.36253906 -70.0625 13.4375 C-70.05798828 12.53580078 -70.05347656 11.63410156 -70.04882812 10.70507812 C-70.03700225 8.46998686 -70.0205222 6.23502563 -70 4 C-63.32462441 3.06875072 -56.66908985 2.61933759 -49.94140625 2.24609375 C-48.79768051 2.18092056 -47.65395477 2.11574738 -46.47557068 2.04859924 C-44.06606445 1.91200587 -41.65648078 1.77677256 -39.24682617 1.64282227 C-35.57772774 1.43834862 -31.90898054 1.22826736 -28.24023438 1.01757812 C-25.89064398 0.88507975 -23.54103516 0.75290747 -21.19140625 0.62109375 C-20.10364395 0.55860947 -19.01588165 0.49612518 -17.89515686 0.43174744 C-5.66366066 -0.24017672 -5.66366066 -0.24017672 0 0 Z " fill="#FDFDFD" transform="translate(389,447)"/>
<path d="M0 0 C7.68636591 3.91305901 11.83813438 7.84780969 15.4375 15.75 C16.90381837 21.55381105 16.6583821 27.61152826 16.6875 33.5625 C16.708125 34.60470703 16.72875 35.64691406 16.75 36.72070312 C16.78733271 44.15457954 16.08205264 50.67444275 11.96484375 57.01953125 C5.70629442 63.09355333 -0.89239872 65.89031317 -9.625 66.3125 C-17.17644388 66.03101944 -22.05488833 63.20188696 -27.375 58 C-33.19719754 49.34987794 -34.67170472 42.24217121 -33.5625 31.75 C-31.21611478 20.26853077 -26.60365376 8.45931637 -16.5625 1.75 C-10.83769712 -1.8280018 -6.38574364 -2.2406118 0 0 Z " fill="#999999" transform="translate(268.5625,463.25)"/>
<path d="M0 0 C1.05960937 0.00676758 1.05960937 0.00676758 2.140625 0.01367188 C3.88545275 0.02546125 5.630237 0.04339676 7.375 0.0625 C7.83702009 6.81225243 8.29510124 13.56226384 8.75 20.3125 C8.81813904 21.32358826 8.88627808 22.33467651 8.95648193 23.37640381 C9.99019647 38.7706159 10.92913226 54.16700107 11.72802734 69.57519531 C12.08087486 76.30350733 12.49093943 83.00987529 13.17480469 89.71386719 C13.49909105 93.51829986 13.49810497 97.24624589 13.375 101.0625 C11.62954395 102.80795605 9.21375783 102.1927316 6.84375 102.1953125 C5.72355469 102.19660156 4.60335938 102.19789063 3.44921875 102.19921875 C2.26972656 102.19535156 1.09023438 102.19148437 -0.125 102.1875 C-1.89423828 102.19330078 -1.89423828 102.19330078 -3.69921875 102.19921875 C-4.81941406 102.19792969 -5.93960937 102.19664062 -7.09375 102.1953125 C-8.12951172 102.19418457 -9.16527344 102.19305664 -10.23242188 102.19189453 C-12.625 102.0625 -12.625 102.0625 -13.625 101.0625 C-14.11479081 93.97655444 -13.34705298 86.86245303 -12.6875 79.8125 C-10.40609325 53.61723996 -10.16569181 27.3390786 -9.625 1.0625 C-6.55966836 -0.47016582 -3.35745728 -0.04026471 0 0 Z " fill="#FDFDFD" transform="translate(467.625,446.9375)"/>
</svg>
