<svg width="227" height="71" viewBox="0 0 227 71" fill="none" xmlns="http://www.w3.org/2000/svg">
<g filter="url(#filter0_d_2_1944)">
<path d="M3.93058 54.7877C4.41058 54.7997 4.86658 54.8117 5.19058 54.8117C6.06658 54.8117 10.9386 54.8117 11.8026 54.8117C12.1026 54.8117 12.5466 54.8117 12.9906 54.7997C12.9666 55.1597 12.9666 55.5917 12.9666 55.9637C12.9666 56.6957 12.9666 61.1117 12.9666 61.8437C12.9666 62.3117 12.9786 63.4637 12.9906 63.5117H11.3226C11.3226 63.4637 11.3586 62.5277 11.3586 61.8677C11.3586 61.1717 11.3586 56.3477 11.3586 56.3477H5.55058C5.55058 56.3477 5.55058 61.1597 5.55058 61.8677C5.55058 62.4437 5.56258 63.4517 5.56258 63.5117H3.91858C3.91858 63.4517 3.94258 62.3957 3.94258 61.8197C3.94258 61.0997 3.94258 56.6597 3.94258 55.9637C3.94258 55.6157 3.94258 55.1357 3.93058 54.7877ZM11.9466 61.3277V62.8517H4.73458V61.3277H11.9466ZM23.7666 53.4677C24.0666 53.9117 24.4866 54.6677 24.7146 55.1117L23.7546 55.5317C23.5026 55.0397 23.1306 54.3197 22.8066 53.8637L23.7666 53.4677ZM25.1826 52.9277C25.4946 53.3837 25.9386 54.1397 26.1546 54.5597L25.1946 54.9677C24.9426 54.4757 24.5586 53.7677 24.2346 53.3237L25.1826 52.9277ZM24.8346 56.1077C24.7026 56.3477 24.5346 56.6717 24.4386 56.9717C24.1146 58.0397 23.4306 59.6477 22.3506 60.9797C21.2106 62.3717 19.7586 63.4757 17.5026 64.3637L16.0866 63.1037C18.5466 62.3597 19.8786 61.3157 20.9226 60.1277C21.7386 59.1917 22.4346 57.7517 22.6266 56.8637H18.5826L19.1346 55.4957C19.6746 55.4957 22.1826 55.4957 22.5666 55.4957C22.9386 55.4957 23.3346 55.4477 23.6106 55.3517L24.8346 56.1077ZM20.9226 54.2117C20.6466 54.6317 20.3346 55.1837 20.1906 55.4357C19.3866 56.8877 17.9466 58.5797 16.2306 59.7557L14.8746 58.7597C16.9866 57.4757 18.0306 55.9277 18.6306 54.8957C18.8106 54.6077 19.0626 54.0437 19.1706 53.6357L20.9226 54.2117ZM27.1626 58.6397C29.3106 58.0877 31.0626 57.3077 32.4066 56.4797C33.6306 55.7237 34.9986 54.5237 35.7786 53.5757L37.0746 54.7997C35.9826 55.9037 34.5186 57.0317 33.1026 57.8837C31.7466 58.6877 29.8026 59.5877 27.9066 60.1517L27.1626 58.6397ZM32.1546 57.2597L33.8586 56.8517V62.2637C33.8586 62.7917 33.8826 63.5357 33.9666 63.8357H32.0586C32.1066 63.5477 32.1546 62.7917 32.1546 62.2637V57.2597ZM41.3106 54.1757C42.1386 54.7397 43.6986 55.9877 44.4066 56.7197L43.1826 57.9677C42.5586 57.2957 41.0466 55.9877 40.1706 55.3877L41.3106 54.1757ZM39.7986 62.1677C41.6826 61.9037 43.2306 61.2917 44.3946 60.6077C46.4466 59.3837 48.0066 57.5597 48.7746 55.9397L49.6986 57.6197C48.7986 59.2517 47.2026 60.9077 45.2706 62.0717C44.0466 62.8037 42.4986 63.4637 40.8186 63.7517L39.7986 62.1677ZM56.4186 57.2117C57.2586 57.2117 57.9426 57.8957 57.9426 58.7357C57.9426 59.5877 57.2586 60.2717 56.4186 60.2717C55.5666 60.2717 54.8826 59.5877 54.8826 58.7357C54.8826 57.8957 55.5666 57.2117 56.4186 57.2117ZM69.5586 57.0797H74.0346V58.4117H69.5586V57.0797ZM63.0546 54.2957H68.4546V55.4717H63.0546V54.2957ZM62.9346 59.0717H68.4426V60.2837H62.9346V59.0717ZM62.8986 56.9717H68.5506V58.1597H62.8986V56.9717ZM71.5026 57.6557H72.8946V64.3157H71.5026V57.6557ZM65.0586 53.2037H66.4626V54.8237H65.0586V53.2037ZM65.0586 58.0877H66.4626V64.3637H65.0586V58.0877ZM68.9106 54.0557L70.5906 54.5237C70.5786 54.6437 70.4946 54.7037 70.2786 54.7397V58.2677C70.2786 60.0557 70.0506 62.7077 68.4186 64.3997C68.2386 64.0877 67.7106 63.5957 67.3866 63.4157C68.7786 61.9397 68.9106 59.8877 68.9106 58.2437V54.0557ZM72.8346 53.2277L73.9866 54.2717C72.7626 54.8237 71.1306 55.2317 69.7266 55.4957C69.6546 55.1837 69.4506 54.6797 69.2826 54.4037C70.5666 54.1157 71.9826 53.6837 72.8346 53.2277ZM66.3546 60.3317C66.7266 60.5597 67.8786 61.4597 68.1666 61.6997L67.3386 62.7317C66.9426 62.2517 66.0306 61.3517 65.5866 60.9557L66.3546 60.3317ZM63.6546 55.6517L64.7586 55.3877C64.9746 55.8197 65.1426 56.4077 65.2026 56.8037L64.0266 57.1157C64.0026 56.7197 63.8466 56.1077 63.6546 55.6517ZM66.6426 55.3637L67.9146 55.6037C67.6866 56.1557 67.4826 56.6717 67.3026 57.0437L66.1626 56.8037C66.3306 56.3957 66.5346 55.7837 66.6426 55.3637ZM65.0706 59.7797L66.0906 60.1517C65.5026 61.4717 64.5066 62.8517 63.5466 63.6317C63.3186 63.3197 62.8986 62.8397 62.5986 62.6117C63.5466 61.9997 64.5426 60.8357 65.0706 59.7797ZM75.0786 54.9557H79.4826V56.2157H75.0786V54.9557ZM74.8746 57.7397H79.6746V59.0357H74.8746V57.7397ZM76.6266 53.2277H77.9826V57.5597C77.9826 59.8037 77.7066 62.5757 75.6906 64.2317C75.4986 63.9317 75.0426 63.4397 74.7186 63.1877C76.5066 61.8797 76.6266 59.3837 76.6266 57.5597V53.2277ZM77.7906 59.2397C78.1986 59.6117 79.5426 61.1597 79.8426 61.5197L78.8706 62.5637C78.4266 61.8317 77.4186 60.5117 76.9026 59.9117L77.7906 59.2397ZM81.3786 56.6477V57.3437H84.0066V56.6477H81.3786ZM81.3786 58.4837V59.1917H84.0066V58.4837H81.3786ZM81.3786 54.7997V55.4957H84.0066V54.7997H81.3786ZM80.0466 53.5277H85.3866V60.4637H80.0466V53.5277ZM82.7706 60.0197H84.1146V62.5277C84.1146 62.8637 84.1266 62.8997 84.3066 62.8997C84.3786 62.8997 84.6426 62.8997 84.7266 62.8997C84.9186 62.8997 84.9546 62.7317 84.9906 61.4597C85.2426 61.6757 85.8186 61.8917 86.1666 61.9877C86.0466 63.7037 85.7226 64.1357 84.8706 64.1357C84.6666 64.1357 84.2706 64.1357 84.0666 64.1357C82.9986 64.1357 82.7706 63.7277 82.7706 62.5517V60.0197ZM80.8266 60.2597H82.1826C81.9906 62.1317 81.4986 63.5597 79.2906 64.3877C79.1466 64.0637 78.7866 63.5597 78.5106 63.3077C80.3706 62.6957 80.6826 61.6397 80.8266 60.2597ZM87.5226 62.6117C89.6706 62.5517 93.0066 62.4317 96.0306 62.2997L95.9826 63.6197C93.0426 63.7877 89.8746 63.9317 87.7146 64.0157L87.5226 62.6117ZM87.4626 59.0357H97.4466V60.3797H87.4626V59.0357ZM89.5986 56.7317H95.2266V58.0517H89.5986V56.7317ZM90.4026 59.9117L92.0466 60.3677C91.4826 61.4957 90.8346 62.7437 90.2946 63.5477L89.0346 63.1277C89.5266 62.2517 90.1026 60.9197 90.4026 59.9117ZM93.3786 61.1477L94.6506 60.4877C95.7306 61.4117 96.8466 62.6717 97.3986 63.5837L96.0666 64.3877C95.5626 63.4757 94.4106 62.1077 93.3786 61.1477ZM92.4066 54.5117C91.4346 55.8797 89.5626 57.4157 87.5706 58.3637C87.4026 58.0157 87.0186 57.4757 86.7186 57.1637C88.7706 56.2637 90.6906 54.5477 91.5786 53.1317H93.1026C94.3746 54.8957 96.2826 56.2637 98.1906 56.9477C97.8426 57.3077 97.5186 57.8237 97.2546 58.2557C95.4546 57.4157 93.4266 55.9037 92.4066 54.5117ZM101.995 54.6077V55.3757H106.867V54.6077H101.995ZM100.555 53.4917H108.403V56.5037H100.555V53.4917ZM101.443 59.3597V59.8637H107.335V59.3597H101.443ZM101.443 60.7877V61.3037H107.335V60.7877H101.443ZM101.443 57.9317V58.4357H107.335V57.9317H101.443ZM100.003 56.9477H108.835V62.2757H100.003V56.9477ZM102.331 62.0357L103.615 62.9357C102.655 63.4997 101.095 64.0877 99.8706 64.3757C99.6066 64.0757 99.1266 63.6197 98.7786 63.3437C100.039 63.0677 101.575 62.5037 102.331 62.0357ZM104.971 63.0077L106.231 62.0957C107.503 62.4317 109.111 62.9957 110.107 63.3797L108.847 64.3997C107.911 63.9677 106.255 63.3677 104.971 63.0077ZM114.211 56.3117H118.651V57.5117H114.211V56.3117ZM111.259 62.9597H121.627V64.1357H111.259V62.9597ZM111.955 53.5517H115.315V54.7157H111.955V53.5517ZM114.859 53.5517H115.099L115.351 53.4917L116.287 53.9597C115.399 56.3117 113.503 58.0277 111.487 58.9997C111.295 58.6997 110.911 58.2077 110.623 57.9557C112.411 57.1997 114.199 55.5677 114.859 53.7917V53.5517ZM117.595 53.1437C118.423 55.0997 120.103 56.8397 122.191 57.6317C121.855 57.9197 121.435 58.4597 121.219 58.8317C119.011 57.8237 117.367 55.9037 116.371 53.5277L117.595 53.1437ZM111.379 55.7117L112.147 54.9197C112.687 55.2197 113.347 55.6877 113.659 56.0477L112.855 56.9237C112.543 56.5637 111.895 56.0477 111.379 55.7117ZM119.443 53.2157L120.523 53.9837C119.863 54.5477 119.083 55.1357 118.483 55.5197L117.619 54.8477C118.195 54.4397 118.987 53.7437 119.443 53.2157ZM120.799 54.6197L121.855 55.3637C121.171 55.9637 120.343 56.5877 119.707 56.9837L118.843 56.3117C119.467 55.8797 120.307 55.1717 120.799 54.6197ZM114.319 59.3477V60.4037H118.423V59.3477H114.319ZM112.915 58.1957H119.911V61.5437H112.915V58.1957ZM113.611 61.6997L114.931 61.3637C115.243 61.7957 115.507 62.4077 115.615 62.8157L114.235 63.2117C114.151 62.8037 113.887 62.1677 113.611 61.6997ZM117.895 61.3517L119.287 61.6517C118.987 62.2397 118.711 62.7797 118.471 63.1637L117.211 62.8757C117.451 62.4557 117.751 61.8077 117.895 61.3517ZM132.931 58.5077L134.059 59.1917C133.555 59.7437 133.027 60.3197 132.595 60.7037L131.695 60.1037C132.091 59.6837 132.631 58.9997 132.931 58.5077ZM127.591 59.2877L128.527 58.6757C129.019 59.1197 129.547 59.7437 129.775 60.1997L128.767 60.8717C128.575 60.4157 128.059 59.7557 127.591 59.2877ZM128.107 53.5157H133.063V57.7277H131.731V54.6917H128.107V53.5157ZM128.371 55.3277H132.487V56.4317H128.371V55.3277ZM127.531 57.0437H133.963V58.2677H127.531V57.0437ZM130.003 57.6677H131.335V63.0197C131.335 63.6077 131.263 63.9557 130.879 64.1597C130.519 64.3637 130.039 64.3757 129.379 64.3757C129.343 64.0157 129.187 63.4997 129.031 63.1397C129.367 63.1517 129.727 63.1517 129.847 63.1517C129.967 63.1517 130.003 63.1157 130.003 62.9837V57.6677ZM127.183 62.4077C127.795 62.0597 128.695 61.4957 129.583 60.9197L130.015 61.9997C129.307 62.5397 128.527 63.1037 127.843 63.5597L127.183 62.4077ZM131.299 58.5197C131.683 59.9477 132.595 61.7357 134.239 62.5757C133.951 62.8277 133.519 63.3917 133.315 63.7517C131.743 62.7437 130.879 60.6797 130.507 59.2877L131.299 58.5197ZM123.619 56.0957H127.171V57.2957H123.619V56.0957ZM123.043 58.1717H127.423V59.3957H123.043V58.1717ZM123.163 60.0677L124.075 59.8397C124.279 60.5117 124.447 61.3517 124.507 61.9277L123.535 62.1797C123.511 61.6037 123.343 60.7397 123.163 60.0677ZM122.911 62.8157C124.051 62.6477 125.755 62.3357 127.375 62.0477L127.483 63.2357C125.983 63.5477 124.399 63.8837 123.187 64.1237L122.911 62.8157ZM126.487 59.7437L127.519 59.9957C127.303 60.6797 127.111 61.4357 126.931 61.9397L126.067 61.6997C126.223 61.1597 126.403 60.3197 126.487 59.7437ZM124.687 56.5757H125.923V63.0437L124.687 63.2597V56.5757ZM124.627 53.1077H125.383V53.3717H125.791V53.7437C125.323 54.6557 124.591 55.8917 123.403 56.9717C123.211 56.6837 122.803 56.2277 122.539 56.0357C123.547 55.1717 124.255 54.0437 124.627 53.1077ZM124.807 53.1077H125.815C126.511 53.7077 127.399 54.5717 127.831 55.1837L126.907 56.2877C126.523 55.6757 125.707 54.6677 125.059 54.1277H124.807V53.1077ZM135.247 55.0757C135.715 55.0637 136.195 55.0397 136.423 55.0157C137.419 54.9197 139.399 54.7517 141.595 54.5597C142.843 54.4637 144.151 54.3797 145.003 54.3437L145.015 55.8917C144.367 55.8917 143.335 55.9037 142.687 56.0477C141.247 56.4317 140.155 57.9917 140.155 59.4197C140.155 61.3877 142.003 62.1077 144.031 62.2037L143.467 63.8477C140.959 63.6917 138.583 62.3357 138.583 59.7317C138.583 58.0157 139.555 56.6477 140.359 56.0357C139.243 56.1557 136.783 56.4197 135.403 56.7197L135.247 55.0757ZM143.299 57.0677C143.587 57.4877 144.019 58.2197 144.247 58.6997L143.347 59.0957C143.035 58.4477 142.783 57.9677 142.411 57.4397L143.299 57.0677ZM144.631 56.5157C144.943 56.9357 145.399 57.6437 145.651 58.1117L144.751 58.5437C144.427 57.8957 144.151 57.4397 143.767 56.9117L144.631 56.5157ZM155.635 53.6957C155.935 54.1397 156.367 54.8957 156.595 55.3397L155.635 55.7477C155.383 55.2557 155.011 54.5477 154.687 54.0797L155.635 53.6957ZM157.063 53.1557C157.375 53.5997 157.819 54.3677 158.023 54.7877L157.075 55.1957C156.823 54.6917 156.439 53.9957 156.115 53.5397L157.063 53.1557ZM152.563 53.8037C152.527 54.0797 152.491 54.5837 152.479 54.8717C152.347 59.6477 151.219 62.0717 148.567 63.9677L147.163 62.8397C147.667 62.5637 148.267 62.1557 148.747 61.6637C150.319 60.1037 150.871 58.0637 150.883 54.9077C150.883 54.6317 150.835 54.0917 150.787 53.8037H152.563ZM156.631 56.3717C156.595 56.5637 156.559 56.8757 156.559 57.0077C156.511 58.3037 156.355 61.6517 155.839 62.8757C155.587 63.4877 155.119 63.7997 154.303 63.7997C153.607 63.7997 152.899 63.7517 152.311 63.7037L152.119 62.0957C152.719 62.2037 153.331 62.2637 153.811 62.2637C154.195 62.2637 154.363 62.1317 154.483 61.8437C154.831 61.0877 154.999 58.6877 154.999 57.3917H149.143C148.735 57.3917 148.063 57.3917 147.559 57.4397V55.8677C148.063 55.9157 148.675 55.9517 149.131 55.9517H154.687C154.999 55.9517 155.311 55.9157 155.599 55.8677L156.631 56.3717ZM160.243 54.6797C161.167 54.7037 163.015 54.6917 164.335 54.4997C165.547 54.3197 166.759 54.0557 167.359 53.7677L168.355 55.0877C167.947 55.1957 167.623 55.2797 167.431 55.3277C166.687 55.5197 165.727 55.6757 164.803 55.8077C163.435 55.9997 161.671 56.0477 160.627 56.0717L160.243 54.6797ZM160.759 62.9597C162.883 61.9877 163.831 60.4037 163.831 58.1597C163.831 58.1597 163.831 57.3797 163.831 55.6757L165.403 55.4957C165.403 56.5277 165.403 58.1237 165.403 58.1237C165.403 60.5477 164.611 62.5997 162.295 63.9917L160.759 62.9597ZM159.343 57.5597C159.679 57.5837 160.075 57.6197 160.459 57.6197C161.215 57.6197 167.635 57.6197 168.439 57.6197C168.691 57.6197 169.255 57.5837 169.519 57.5597V59.1077C169.195 59.0837 168.799 59.0597 168.463 59.0597C167.707 59.0597 161.179 59.0597 160.471 59.0597C160.099 59.0597 159.655 59.0837 159.343 59.1077V57.5597ZM175.101 55.6757C175.137 55.9637 175.221 56.2757 175.293 56.5877C175.701 58.0277 176.829 62.1557 177.129 63.1517C177.189 63.3677 177.357 63.8957 177.441 64.1357L175.821 64.5437C175.773 64.2197 175.701 63.8237 175.605 63.4877C175.305 62.4437 174.213 58.1597 173.829 56.9117C173.745 56.6117 173.613 56.3117 173.481 56.0597L175.101 55.6757ZM180.861 57.5357C180.345 58.5797 179.145 60.3917 178.305 61.2797L176.973 60.6197C177.597 60.0677 178.425 59.0597 178.749 58.4717C178.125 58.5797 173.241 59.5997 172.257 59.8157L171.885 58.3877C172.257 58.3517 172.593 58.3157 172.989 58.2437C173.637 58.1477 178.437 57.2357 179.289 57.0437C179.493 56.9957 179.733 56.9237 179.889 56.8517L180.861 57.5357ZM188.133 53.6717C188.037 54.1157 187.881 54.8237 187.545 55.6877C187.293 56.2757 186.945 56.9597 186.609 57.4397C186.933 57.2957 187.569 57.2117 187.977 57.2117C188.973 57.2117 189.729 57.7997 189.729 58.9157C189.729 59.5637 189.765 60.8717 189.777 61.6277H188.337C188.385 61.0637 188.409 60.0437 188.397 59.3957C188.397 58.6277 187.917 58.3757 187.413 58.3757C186.753 58.3757 185.997 58.7717 185.541 59.2037C185.181 59.5637 184.845 59.9957 184.437 60.5237L183.153 59.5637C184.689 58.1477 185.613 56.8517 186.117 55.5317C186.357 54.8837 186.513 54.1517 186.549 53.5397L188.133 53.6717ZM183.609 54.7877C184.221 54.8717 185.109 54.9197 185.721 54.9197C187.305 54.9197 189.477 54.8357 191.217 54.5237L191.205 55.9157C189.513 56.1557 187.101 56.2637 185.637 56.2637C185.145 56.2637 184.269 56.2397 183.609 56.1797V54.7877ZM193.113 58.1957C192.741 58.3037 192.093 58.5437 191.685 58.6997C190.905 58.9997 189.825 59.4317 188.697 60.0077C187.605 60.5717 187.017 61.0877 187.017 61.7477C187.017 62.4077 187.593 62.5877 188.757 62.5877C189.777 62.5877 191.121 62.4557 192.177 62.2397L192.129 63.7877C191.325 63.8957 189.861 64.0037 188.721 64.0037C186.849 64.0037 185.445 63.5357 185.445 61.9877C185.445 60.3197 187.161 59.3357 188.601 58.6157C189.705 58.0397 190.461 57.7517 191.181 57.4157C191.649 57.2117 192.069 57.0197 192.525 56.7917L193.113 58.1957ZM199.149 57.6557V59.7317H201.273V57.6557H199.149ZM197.793 56.3957H202.713V60.9797H197.793V56.3957ZM195.153 53.5157H205.449V64.3757H203.889V54.9797H196.641V64.3757H195.153V53.5157ZM195.993 62.3837H204.777V63.7277H195.993V62.3837ZM214.137 53.6237C214.101 53.8277 214.065 54.4637 214.053 54.6557C214.017 55.4477 214.041 57.8957 214.053 58.8557L212.553 58.3517C212.553 57.6077 212.553 55.3037 212.505 54.6677C212.469 54.1877 212.421 53.7797 212.397 53.6237H214.137ZM207.345 55.1237C209.133 55.1237 212.301 55.0277 213.801 55.0277C215.025 55.0277 216.849 55.0157 217.521 55.0277L217.497 56.4437C216.753 56.4077 215.529 56.3717 213.765 56.3717C211.581 56.3717 209.193 56.4677 207.381 56.5637L207.345 55.1237ZM213.849 58.6757C213.849 60.6317 213.129 61.6037 211.749 61.6037C210.825 61.6037 209.673 60.8717 209.673 59.4077C209.673 58.0517 210.777 57.1637 212.073 57.1637C213.657 57.1637 214.485 58.3277 214.485 59.8157C214.485 61.3877 213.561 63.3677 210.633 64.1957L209.361 62.9237C211.401 62.4797 212.997 61.6757 212.997 59.5757C212.997 58.7957 212.577 58.4237 212.049 58.4237C211.581 58.4237 211.113 58.7477 211.113 59.3837C211.113 59.9237 211.557 60.2717 212.049 60.2717C212.613 60.2717 213.105 59.7917 212.721 58.3637L213.849 58.6757Z" fill="white"/>
</g>
<g filter="url(#filter1_d_2_1944)">
<path d="M4.13677 15.1746V12.909H19.955V15.1746H13.3229V33.9999H10.7689V15.1746H4.13677ZM22.2978 33.9999H19.6203L27.3646 12.909H30.0009L37.7453 33.9999H35.0677L28.7651 16.2456H28.6004L22.2978 33.9999ZM23.2865 25.7613H34.0791V28.0269H23.2865V25.7613ZM41.0304 33.9999V12.909H48.1568C49.8114 12.909 51.1639 13.2076 52.2144 13.805C53.2717 14.3954 54.0543 15.1952 54.5624 16.2045C55.0704 17.2137 55.3245 18.3396 55.3245 19.5823C55.3245 20.825 55.0704 21.9543 54.5624 22.9704C54.0612 23.9865 53.2854 24.7967 52.235 25.4008C51.1845 25.9981 49.8389 26.2968 48.198 26.2968H43.0901V24.0312H48.1156C49.2485 24.0312 50.1581 23.8355 50.8447 23.4442C51.5312 23.0528 52.029 22.5242 52.3379 21.8582C52.6538 21.1854 52.8117 20.4268 52.8117 19.5823C52.8117 18.7378 52.6538 17.9826 52.3379 17.3167C52.029 16.6507 51.5278 16.1289 50.8344 15.7513C50.141 15.3669 49.221 15.1746 48.0745 15.1746H43.5844V33.9999H41.0304ZM79.129 18.1817C79.0054 17.1382 78.5042 16.328 77.6254 15.7513C76.7466 15.1746 75.6687 14.8863 74.3917 14.8863C73.458 14.8863 72.641 15.0373 71.9408 15.3394C71.2473 15.6415 70.705 16.0568 70.3136 16.5855C69.9292 17.1141 69.7369 17.7149 69.7369 18.3877C69.7369 18.9507 69.8708 19.4347 70.1385 19.8398C70.4132 20.238 70.7633 20.5709 71.189 20.8387C71.6146 21.0996 72.0609 21.3158 72.5278 21.4875C72.9946 21.6523 73.4237 21.7861 73.815 21.8891L75.9571 22.4658C76.5063 22.61 77.1174 22.8091 77.7902 23.0631C78.4699 23.3171 79.1187 23.6639 79.7366 24.1032C80.3613 24.5358 80.8762 25.0919 81.2813 25.7716C81.6864 26.4513 81.8889 27.2854 81.8889 28.2741C81.8889 29.4137 81.5903 30.4436 80.993 31.3635C80.4025 32.2835 79.5375 33.0147 78.3978 33.5571C77.265 34.0995 75.8884 34.3706 74.2682 34.3706C72.7577 34.3706 71.4499 34.1269 70.3445 33.6395C69.246 33.152 68.381 32.4723 67.7493 31.6004C67.1246 30.7285 66.771 29.7158 66.6886 28.5624H69.325C69.3936 29.3588 69.6614 30.0179 70.1283 30.5397C70.602 31.0546 71.1993 31.4391 71.9202 31.6931C72.6479 31.9402 73.4306 32.0638 74.2682 32.0638C75.2431 32.0638 76.1184 31.9059 76.8942 31.5901C77.67 31.2674 78.2845 30.8212 78.7376 30.2513C79.1908 29.6746 79.4173 29.0018 79.4173 28.2329C79.4173 27.5326 79.2216 26.9627 78.8303 26.5233C78.439 26.084 77.9241 25.7269 77.2856 25.4523C76.6471 25.1777 75.9571 24.9374 75.2156 24.7314L72.6204 23.99C70.9727 23.5162 69.6683 22.84 68.7071 21.9612C67.7459 21.0824 67.2653 19.9324 67.2653 18.5113C67.2653 17.3304 67.5846 16.3006 68.2231 15.4218C68.8684 14.5361 69.7335 13.8496 70.8182 13.3621C71.9099 12.8678 73.1285 12.6206 74.4741 12.6206C75.8335 12.6206 77.0418 12.8644 78.0991 13.3518C79.1564 13.8324 79.994 14.4915 80.6119 15.3291C81.2367 16.1667 81.5662 17.1176 81.6006 18.1817H79.129ZM103.06 19.4999H100.506C100.355 18.7653 100.09 18.1199 99.7127 17.5638C99.3419 17.0077 98.8888 16.5409 98.3533 16.1633C97.8247 15.7788 97.2377 15.4904 96.5923 15.2982C95.9469 15.106 95.2741 15.0099 94.5738 15.0099C93.2968 15.0099 92.14 15.3325 91.1033 15.9779C90.0735 16.6233 89.253 17.5741 88.642 18.8305C88.0378 20.0869 87.7358 21.6282 87.7358 23.4545C87.7358 25.2807 88.0378 26.822 88.642 28.0784C89.253 29.3348 90.0735 30.2857 91.1033 30.931C92.14 31.5764 93.2968 31.8991 94.5738 31.8991C95.2741 31.8991 95.9469 31.8029 96.5923 31.6107C97.2377 31.4185 97.8247 31.1335 98.3533 30.7559C98.8888 30.3715 99.3419 29.9012 99.7127 29.3451C100.09 28.7821 100.355 28.1367 100.506 27.409H103.06C102.867 28.4869 102.517 29.4515 102.009 30.3028C101.501 31.1541 100.87 31.8785 100.114 32.4758C99.3591 33.0662 98.5112 33.5159 97.5706 33.8248C96.6369 34.1338 95.638 34.2883 94.5738 34.2883C92.7751 34.2883 91.1754 33.8489 89.7748 32.9701C88.3743 32.0913 87.2723 30.8418 86.4691 29.2215C85.6658 27.6012 85.2642 25.6789 85.2642 23.4545C85.2642 21.23 85.6658 19.3077 86.4691 17.6874C87.2723 16.0671 88.3743 14.8176 89.7748 13.9388C91.1754 13.06 92.7751 12.6206 94.5738 12.6206C95.638 12.6206 96.6369 12.7751 97.5706 13.0841C98.5112 13.393 99.3591 13.8461 100.114 14.4434C100.87 15.0339 101.501 15.7548 102.009 16.6061C102.517 17.4505 102.867 18.4152 103.06 19.4999ZM107.187 33.9999V12.909H114.313C115.961 12.909 117.313 13.1905 118.371 13.7535C119.428 14.3096 120.211 15.0751 120.719 16.05C121.227 17.0249 121.481 18.1337 121.481 19.3763C121.481 20.619 121.227 21.7209 120.719 22.6821C120.211 23.6433 119.431 24.3985 118.381 24.9477C117.33 25.4901 115.988 25.7613 114.354 25.7613H108.587V23.4545H114.272C115.398 23.4545 116.304 23.2897 116.991 22.9601C117.684 22.6306 118.185 22.1637 118.494 21.5596C118.81 20.9485 118.968 20.2208 118.968 19.3763C118.968 18.5319 118.81 17.7938 118.494 17.1622C118.178 16.5306 117.674 16.0431 116.98 15.6998C116.287 15.3497 115.37 15.1746 114.231 15.1746H109.741V33.9999H107.187ZM117.114 24.5255L122.305 33.9999H119.339L114.231 24.5255H117.114ZM125.736 33.9999V12.909H138.465V15.1746H128.29V22.301H137.806V24.5667H128.29V31.7343H138.63V33.9999H125.736ZM143.069 33.9999V12.909H155.797V15.1746H145.622V22.301H155.138V24.5667H145.622V31.7343H155.962V33.9999H143.069ZM177.125 12.909V33.9999H174.653L163.16 17.4402H162.955V33.9999H160.401V12.909H162.872L174.406 29.5099H174.612V12.909H177.125ZM185.119 12.909L184.913 28.0681H182.524L182.318 12.909H185.119ZM183.718 34.1647C183.21 34.1647 182.774 33.9827 182.411 33.6189C182.047 33.255 181.865 32.819 181.865 32.311C181.865 31.8029 182.047 31.367 182.411 31.0031C182.774 30.6392 183.21 30.4573 183.718 30.4573C184.226 30.4573 184.662 30.6392 185.026 31.0031C185.39 31.367 185.572 31.8029 185.572 32.311C185.572 32.6474 185.486 32.9563 185.315 33.2378C185.15 33.5193 184.927 33.7459 184.645 33.9175C184.371 34.0823 184.062 34.1647 183.718 34.1647Z" fill="white"/>
</g>
<path d="M197.032 0.265503C198.2 0.265503 199.334 0.494422 200.401 0.9459C201.432 1.38187 202.357 2.00588 203.152 2.80061C203.947 3.59535 204.571 4.52094 205.007 5.55169C205.458 6.61912 205.687 7.75271 205.687 8.92097C205.687 10.0892 205.458 11.2228 205.007 12.2903C204.571 13.321 203.947 14.2466 203.152 15.0413C202.357 15.8361 201.432 16.4601 200.401 16.8961C199.334 17.3475 198.2 17.5764 197.032 17.5764C195.864 17.5764 194.73 17.3475 193.663 16.8961C192.632 16.4601 191.707 15.8361 190.912 15.0413C190.117 14.2466 189.493 13.321 189.057 12.2903C188.606 11.2228 188.377 10.0892 188.377 8.92097C188.377 7.75271 188.606 6.61911 189.057 5.55169C189.493 4.52093 190.117 3.59534 190.912 2.80061C191.707 2.00587 192.632 1.38186 193.663 0.945897C194.73 0.494422 195.864 0.265503 197.032 0.265503ZM197.032 16.5341C199.066 16.5341 200.977 15.7422 202.415 14.3043C203.853 12.8663 204.645 10.9545 204.645 8.92097C204.645 6.88743 203.853 4.97561 202.415 3.53768C200.977 2.09978 199.066 1.30789 197.032 1.30789C194.999 1.30789 193.087 2.09978 191.649 3.53768C190.211 4.97559 189.419 6.88741 189.419 8.92097C189.419 10.9545 190.211 12.8664 191.649 14.3043C193.087 15.7422 194.999 16.5341 197.032 16.5341Z" fill="#FFF4D6"/>
<path d="M197.032 3.46759C198.489 3.46759 199.858 4.03484 200.888 5.06485C201.918 6.09485 202.486 7.46431 202.486 8.92097C202.486 10.3776 201.918 11.7471 200.888 12.7771C199.858 13.8071 198.489 14.3743 197.032 14.3743C195.575 14.3743 194.206 13.8071 193.176 12.7771C192.146 11.747 191.578 10.3776 191.578 8.92097C191.578 7.46434 192.146 6.09488 193.176 5.06487C194.206 4.03484 195.575 3.46759 197.032 3.46759ZM197.032 13.3656C198.219 13.3656 199.335 12.9033 200.175 12.0638C201.014 11.2243 201.477 10.1082 201.477 8.92097C201.477 7.73377 201.014 6.61764 200.175 5.77817C199.335 4.93867 198.219 4.47634 197.032 4.47634C194.581 4.47634 192.587 6.47019 192.587 8.92097C192.587 11.3717 194.581 13.3656 197.032 13.3656Z" fill="#FFF4D6"/>
<path d="M216.821 13.6179L219.362 17.3515C223.429 23.2153 222.332 27.306 221.976 28.287C221.449 29.739 225.862 34.3243 225.862 34.3243L215.106 40.2922L212.74 36.51C210.796 36.6557 207.618 34.8598 206.639 33.9772C205.661 33.0947 204.844 31.5615 201.59 31.2295C196.357 31.535 194.41 28.9192 195.627 27.0323C196.941 24.9958 202.185 26.8862 203.929 26.9727C205.673 27.0592 204.026 24.7198 204.026 24.7198L195.506 12.244C194.711 10.9134 194.579 8.70646 195.993 7.86235C197.406 7.0178 199.108 7.05488 200.797 9.88213C201.545 11.1346 203.035 13.5588 204.277 15.6381C204.277 15.6381 204.347 13.7932 206.274 13.3831C208.201 12.9729 209.021 15.0642 209.021 15.0642C209.021 15.0642 208.735 13.014 210.457 12.6038C212.179 12.1937 212.958 14.3261 212.958 14.3261C212.958 14.3261 212.917 12.686 214.434 12.3169C215.952 11.9478 216.821 13.6179 216.821 13.6179Z" fill="#FFF4D6"/>
<path d="M197.56 6.60028C199.01 6.60018 200.325 7.56954 201.467 9.48145C201.791 10.0229 202.248 10.7757 202.778 11.6474C203.205 12.3499 203.667 13.1105 204.125 13.8688C204.497 13.3558 205.11 12.8323 206.112 12.6191C206.331 12.5724 206.551 12.5487 206.764 12.5487C207.419 12.5487 208.03 12.7671 208.561 13.1864C208.905 12.4977 209.497 12.0295 210.276 11.844C210.481 11.7952 210.687 11.7704 210.888 11.7704C211.567 11.7703 212.195 12.044 212.728 12.5674C212.815 12.4456 212.911 12.3327 213.017 12.229C213.35 11.9016 213.765 11.6758 214.25 11.5579C214.456 11.5079 214.664 11.4825 214.868 11.4825C215.593 11.4825 216.285 11.7976 216.87 12.3936C217.208 12.7381 217.416 13.0816 217.488 13.2093L220.006 16.9094C224.213 22.9784 223.149 27.3348 222.714 28.5425C222.709 28.5999 222.697 29.2907 224.409 31.4609C225.387 32.7006 226.415 33.7719 226.425 33.7826C226.593 33.9573 226.671 34.2003 226.635 34.4401C226.598 34.6799 226.453 34.8894 226.241 35.007L215.484 40.9749C215.121 41.1765 214.664 41.0584 214.443 40.7062L212.31 37.2945C211.116 37.2399 209.785 36.7147 208.857 36.2703C207.768 35.7492 206.693 35.0767 206.116 34.5571C205.919 34.379 205.739 34.1898 205.549 33.9895C204.78 33.1809 203.91 32.2652 201.572 32.0126C201.3 32.0273 201.03 32.0348 200.77 32.0348C199.304 32.0348 198.036 31.8061 196.999 31.355C196.007 30.9232 195.265 30.2956 194.854 29.5401C194.338 28.5931 194.38 27.5246 194.971 26.6088C195.284 26.1247 195.756 25.7712 196.374 25.5581C196.859 25.3914 197.425 25.3103 198.107 25.3102C199.433 25.3102 200.954 25.6268 202.176 25.8811C202.864 26.0243 203.516 26.16 203.911 26.1891C203.879 26.0811 203.82 25.9269 203.713 25.7176C203.557 25.4129 203.388 25.171 203.387 25.1686C203.384 25.1655 203.383 25.1633 203.381 25.1601L194.861 12.6843C194.852 12.6713 194.843 12.6579 194.835 12.6443C194.349 11.831 194.09 10.7784 194.141 9.82861C194.205 8.64896 194.72 7.71248 195.592 7.19169C196.249 6.79933 196.911 6.60032 197.56 6.60028ZM204.283 16.4265C204.011 16.4265 203.751 16.2803 203.607 16.0384C202.906 14.8649 202.129 13.5865 201.443 12.4586C200.912 11.5843 200.453 10.8291 200.126 10.2825C199.286 8.87552 198.422 8.16214 197.56 8.16221C197.197 8.16223 196.804 8.28686 196.393 8.53263C195.865 8.84776 195.725 9.45701 195.701 9.91263C195.667 10.5473 195.844 11.2775 196.165 11.8243L204.668 24.276C204.705 24.3285 204.956 24.6938 205.168 25.1364C205.551 25.9321 205.613 26.5566 205.36 27.0455C205.222 27.3108 204.865 27.7559 204.021 27.7559C203.978 27.7559 203.935 27.7548 203.89 27.7526C203.381 27.7273 202.675 27.5804 201.858 27.4103C200.706 27.1705 199.273 26.8721 198.108 26.8722C197.147 26.8722 196.533 27.0685 196.284 27.4555C196.005 27.8883 195.984 28.3507 196.225 28.7927C196.9 30.0315 199.015 30.4729 200.77 30.4729C201.021 30.4729 201.281 30.4651 201.545 30.4497C201.587 30.4473 201.628 30.4482 201.67 30.4524C204.629 30.7544 205.815 32.0023 206.681 32.9135C206.85 33.0914 207.01 33.2594 207.162 33.3972C207.538 33.7362 208.44 34.3391 209.531 34.8614C210.711 35.4262 211.769 35.7373 212.51 35.7373C212.569 35.7373 212.627 35.7352 212.682 35.7311C212.971 35.7094 213.248 35.8498 213.402 36.0958L215.375 39.2496L224.614 34.1234C224.199 33.6602 223.646 33.0221 223.106 32.3308C222.476 31.5248 221.994 30.8118 221.672 30.2115C221.174 29.2808 221.037 28.5846 221.242 28.0204C221.393 27.6049 221.724 26.4521 221.55 24.7286C221.327 22.5142 220.375 20.1819 218.721 17.7964C218.719 17.7946 218.718 17.7927 218.717 17.7908L216.176 14.0572C216.157 14.03 216.144 14.0097 216.13 13.9809C216.105 13.9367 215.592 13.0445 214.868 13.0445C214.788 13.0445 214.704 13.0549 214.619 13.0756C214.253 13.1645 214.015 13.3657 213.869 13.7087C213.747 13.9967 213.739 14.2761 213.739 14.3103C213.754 14.6951 213.488 15.0296 213.109 15.1034C212.73 15.1774 212.355 14.9592 212.225 14.5959C212.206 14.5479 211.714 13.3322 210.888 13.3323C210.809 13.3323 210.724 13.3428 210.638 13.3634C210.35 13.4318 210.001 13.5865 209.85 14.1804C209.749 14.5775 209.794 14.9522 209.795 14.9558C209.85 15.3497 209.602 15.7264 209.217 15.825C208.832 15.9234 208.437 15.722 208.295 15.3515C208.284 15.3232 208.141 14.9896 207.863 14.6724C207.533 14.2943 207.173 14.1106 206.764 14.1106C206.66 14.1106 206.55 14.1228 206.437 14.1468C205.891 14.263 205.51 14.533 205.273 14.9722C205.091 15.3099 205.061 15.6327 205.058 15.6715C205.05 16.0186 204.815 16.3111 204.479 16.4008C204.414 16.4182 204.348 16.4265 204.283 16.4265Z" fill="#603813"/>
<defs>
<filter id="filter0_d_2_1944" x="0.918579" y="52.9277" width="219.603" height="17.616" filterUnits="userSpaceOnUse" color-interpolation-filters="sRGB">
<feFlood flood-opacity="0" result="BackgroundImageFix"/>
<feColorMatrix in="SourceAlpha" type="matrix" values="0 0 0 0 0 0 0 0 0 0 0 0 0 0 0 0 0 0 127 0" result="hardAlpha"/>
<feOffset dy="3"/>
<feGaussianBlur stdDeviation="1.5"/>
<feComposite in2="hardAlpha" operator="out"/>
<feColorMatrix type="matrix" values="0 0 0 0 0 0 0 0 0 0 0 0 0 0 0 0 0 0 0.160784 0"/>
<feBlend mode="normal" in2="BackgroundImageFix" result="effect1_dropShadow_2_1944"/>
<feBlend mode="normal" in="SourceGraphic" in2="effect1_dropShadow_2_1944" result="shape"/>
</filter>
<filter id="filter1_d_2_1944" x="1.13678" y="12.6206" width="187.435" height="27.75" filterUnits="userSpaceOnUse" color-interpolation-filters="sRGB">
<feFlood flood-opacity="0" result="BackgroundImageFix"/>
<feColorMatrix in="SourceAlpha" type="matrix" values="0 0 0 0 0 0 0 0 0 0 0 0 0 0 0 0 0 0 127 0" result="hardAlpha"/>
<feOffset dy="3"/>
<feGaussianBlur stdDeviation="1.5"/>
<feComposite in2="hardAlpha" operator="out"/>
<feColorMatrix type="matrix" values="0 0 0 0 0 0 0 0 0 0 0 0 0 0 0 0 0 0 0.160784 0"/>
<feBlend mode="normal" in2="BackgroundImageFix" result="effect1_dropShadow_2_1944"/>
<feBlend mode="normal" in="SourceGraphic" in2="effect1_dropShadow_2_1944" result="shape"/>
</filter>
</defs>
</svg>
