<svg width="226" height="42" viewBox="0 0 226 42" fill="none" xmlns="http://www.w3.org/2000/svg">
<g filter="url(#filter0_d_2_1943)">
<path d="M3.13677 15.1746V12.909H18.955V15.1746H12.3229V33.9999H9.76888V15.1746H3.13677ZM21.2978 33.9999H18.6203L26.3646 12.909H29.0009L36.7453 33.9999H34.0677L27.7651 16.2456H27.6004L21.2978 33.9999ZM22.2865 25.7613H33.0791V28.0269H22.2865V25.7613ZM40.0304 33.9999V12.909H47.1568C48.8114 12.909 50.1639 13.2076 51.2144 13.805C52.2717 14.3954 53.0543 15.1952 53.5624 16.2045C54.0704 17.2137 54.3245 18.3396 54.3245 19.5823C54.3245 20.825 54.0704 21.9543 53.5624 22.9704C53.0612 23.9865 52.2854 24.7967 51.235 25.4008C50.1845 25.9981 48.8389 26.2968 47.198 26.2968H42.0901V24.0312H47.1156C48.2485 24.0312 49.1581 23.8355 49.8447 23.4442C50.5312 23.0528 51.029 22.5242 51.3379 21.8582C51.6538 21.1854 51.8117 20.4268 51.8117 19.5823C51.8117 18.7378 51.6538 17.9826 51.3379 17.3167C51.029 16.6507 50.5278 16.1289 49.8344 15.7513C49.141 15.3669 48.221 15.1746 47.0745 15.1746H42.5844V33.9999H40.0304ZM78.129 18.1817C78.0054 17.1382 77.5042 16.328 76.6254 15.7513C75.7466 15.1746 74.6687 14.8863 73.3917 14.8863C72.458 14.8863 71.641 15.0373 70.9408 15.3394C70.2473 15.6415 69.705 16.0568 69.3136 16.5855C68.9292 17.1141 68.7369 17.7149 68.7369 18.3877C68.7369 18.9507 68.8708 19.4347 69.1385 19.8398C69.4132 20.238 69.7633 20.5709 70.189 20.8387C70.6146 21.0996 71.0609 21.3158 71.5278 21.4875C71.9946 21.6523 72.4237 21.7861 72.815 21.8891L74.9571 22.4658C75.5063 22.61 76.1174 22.8091 76.7902 23.0631C77.4699 23.3171 78.1187 23.6639 78.7366 24.1032C79.3613 24.5358 79.8762 25.0919 80.2813 25.7716C80.6864 26.4513 80.8889 27.2854 80.8889 28.2741C80.8889 29.4137 80.5903 30.4436 79.993 31.3635C79.4025 32.2835 78.5375 33.0147 77.3978 33.5571C76.265 34.0995 74.8884 34.3706 73.2682 34.3706C71.7577 34.3706 70.4499 34.1269 69.3445 33.6395C68.246 33.152 67.381 32.4723 66.7493 31.6004C66.1246 30.7285 65.771 29.7158 65.6886 28.5624H68.325C68.3936 29.3588 68.6614 30.0179 69.1283 30.5397C69.602 31.0546 70.1993 31.4391 70.9202 31.6931C71.6479 31.9402 72.4306 32.0638 73.2682 32.0638C74.2431 32.0638 75.1184 31.9059 75.8942 31.5901C76.67 31.2674 77.2845 30.8212 77.7376 30.2513C78.1908 29.6746 78.4173 29.0018 78.4173 28.2329C78.4173 27.5326 78.2216 26.9627 77.8303 26.5233C77.439 26.084 76.9241 25.7269 76.2856 25.4523C75.6471 25.1777 74.9571 24.9374 74.2156 24.7314L71.6204 23.99C69.9727 23.5162 68.6683 22.84 67.7071 21.9612C66.7459 21.0824 66.2653 19.9324 66.2653 18.5113C66.2653 17.3304 66.5846 16.3006 67.2231 15.4218C67.8684 14.5361 68.7335 13.8496 69.8182 13.3621C70.9099 12.8678 72.1285 12.6206 73.4741 12.6206C74.8335 12.6206 76.0418 12.8644 77.0991 13.3518C78.1564 13.8324 78.994 14.4915 79.6119 15.3291C80.2367 16.1667 80.5662 17.1176 80.6006 18.1817H78.129ZM102.06 19.4999H99.5056C99.3546 18.7653 99.0903 18.1199 98.7127 17.5638C98.3419 17.0077 97.8888 16.5409 97.3533 16.1633C96.8247 15.7788 96.2377 15.4904 95.5923 15.2982C94.9469 15.106 94.2741 15.0099 93.5738 15.0099C92.2968 15.0099 91.14 15.3325 90.1033 15.9779C89.0735 16.6233 88.253 17.5741 87.642 18.8305C87.0378 20.0869 86.7358 21.6282 86.7358 23.4545C86.7358 25.2807 87.0378 26.822 87.642 28.0784C88.253 29.3348 89.0735 30.2857 90.1033 30.931C91.14 31.5764 92.2968 31.8991 93.5738 31.8991C94.2741 31.8991 94.9469 31.8029 95.5923 31.6107C96.2377 31.4185 96.8247 31.1335 97.3533 30.7559C97.8888 30.3715 98.3419 29.9012 98.7127 29.3451C99.0903 28.7821 99.3546 28.1367 99.5056 27.409H102.06C101.867 28.4869 101.517 29.4515 101.009 30.3028C100.501 31.1541 99.8695 31.8785 99.1143 32.4758C98.3591 33.0662 97.5112 33.5159 96.5706 33.8248C95.6369 34.1338 94.638 34.2883 93.5738 34.2883C91.7751 34.2883 90.1754 33.8489 88.7748 32.9701C87.3743 32.0913 86.2723 30.8418 85.4691 29.2215C84.6658 27.6012 84.2642 25.6789 84.2642 23.4545C84.2642 21.23 84.6658 19.3077 85.4691 17.6874C86.2723 16.0671 87.3743 14.8176 88.7748 13.9388C90.1754 13.06 91.7751 12.6206 93.5738 12.6206C94.638 12.6206 95.6369 12.7751 96.5706 13.0841C97.5112 13.393 98.3591 13.8461 99.1143 14.4434C99.8695 15.0339 100.501 15.7548 101.009 16.6061C101.517 17.4505 101.867 18.4152 102.06 19.4999ZM106.187 33.9999V12.909H113.313C114.961 12.909 116.313 13.1905 117.371 13.7535C118.428 14.3096 119.211 15.0751 119.719 16.05C120.227 17.0249 120.481 18.1337 120.481 19.3763C120.481 20.619 120.227 21.7209 119.719 22.6821C119.211 23.6433 118.431 24.3985 117.381 24.9477C116.33 25.4901 114.988 25.7613 113.354 25.7613H107.587V23.4545H113.272C114.398 23.4545 115.304 23.2897 115.991 22.9601C116.684 22.6306 117.185 22.1637 117.494 21.5596C117.81 20.9485 117.968 20.2208 117.968 19.3763C117.968 18.5319 117.81 17.7938 117.494 17.1622C117.178 16.5306 116.674 16.0431 115.98 15.6998C115.287 15.3497 114.37 15.1746 113.231 15.1746H108.741V33.9999H106.187ZM116.114 24.5255L121.305 33.9999H118.339L113.231 24.5255H116.114ZM124.736 33.9999V12.909H137.465V15.1746H127.29V22.301H136.806V24.5667H127.29V31.7343H137.63V33.9999H124.736ZM142.069 33.9999V12.909H154.797V15.1746H144.622V22.301H154.138V24.5667H144.622V31.7343H154.962V33.9999H142.069ZM176.125 12.909V33.9999H173.653L162.16 17.4402H161.955V33.9999H159.401V12.909H161.872L173.406 29.5099H173.612V12.909H176.125ZM184.119 12.909L183.913 28.0681H181.524L181.318 12.909H184.119ZM182.718 34.1647C182.21 34.1647 181.774 33.9827 181.411 33.6189C181.047 33.255 180.865 32.819 180.865 32.311C180.865 31.8029 181.047 31.367 181.411 31.0031C181.774 30.6392 182.21 30.4573 182.718 30.4573C183.226 30.4573 183.662 30.6392 184.026 31.0031C184.39 31.367 184.572 31.8029 184.572 32.311C184.572 32.6474 184.486 32.9563 184.315 33.2378C184.15 33.5193 183.927 33.7459 183.645 33.9175C183.371 34.0823 183.062 34.1647 182.718 34.1647Z" fill="white"/>
</g>
<path d="M196.032 0.265503C197.2 0.265503 198.334 0.494422 199.401 0.9459C200.432 1.38187 201.357 2.00588 202.152 2.80061C202.947 3.59535 203.571 4.52094 204.007 5.55169C204.458 6.61912 204.687 7.75271 204.687 8.92097C204.687 10.0892 204.458 11.2228 204.007 12.2903C203.571 13.321 202.947 14.2466 202.152 15.0413C201.357 15.8361 200.432 16.4601 199.401 16.8961C198.334 17.3475 197.2 17.5764 196.032 17.5764C194.864 17.5764 193.73 17.3475 192.663 16.8961C191.632 16.4601 190.707 15.8361 189.912 15.0413C189.117 14.2466 188.493 13.321 188.057 12.2903C187.606 11.2228 187.377 10.0892 187.377 8.92097C187.377 7.75271 187.606 6.61911 188.057 5.55169C188.493 4.52093 189.117 3.59534 189.912 2.80061C190.707 2.00587 191.632 1.38186 192.663 0.945897C193.73 0.494422 194.864 0.265503 196.032 0.265503ZM196.032 16.5341C198.066 16.5341 199.977 15.7422 201.415 14.3043C202.853 12.8663 203.645 10.9545 203.645 8.92097C203.645 6.88743 202.853 4.97561 201.415 3.53768C199.977 2.09978 198.066 1.30789 196.032 1.30789C193.999 1.30789 192.087 2.09978 190.649 3.53768C189.211 4.97559 188.419 6.88741 188.419 8.92097C188.419 10.9545 189.211 12.8664 190.649 14.3043C192.087 15.7422 193.999 16.5341 196.032 16.5341Z" fill="#FFF4D6"/>
<path d="M196.032 3.46759C197.489 3.46759 198.858 4.03484 199.888 5.06485C200.918 6.09485 201.486 7.46431 201.486 8.92097C201.486 10.3776 200.918 11.7471 199.888 12.7771C198.858 13.8071 197.489 14.3743 196.032 14.3743C194.575 14.3743 193.206 13.8071 192.176 12.7771C191.146 11.747 190.578 10.3776 190.578 8.92097C190.578 7.46434 191.146 6.09488 192.176 5.06487C193.206 4.03484 194.575 3.46759 196.032 3.46759ZM196.032 13.3656C197.219 13.3656 198.335 12.9033 199.175 12.0638C200.014 11.2243 200.477 10.1082 200.477 8.92097C200.477 7.73377 200.014 6.61764 199.175 5.77817C198.335 4.93867 197.219 4.47634 196.032 4.47634C193.581 4.47634 191.587 6.47019 191.587 8.92097C191.587 11.3717 193.581 13.3656 196.032 13.3656Z" fill="#FFF4D6"/>
<path d="M215.821 13.6179L218.362 17.3515C222.429 23.2153 221.332 27.306 220.976 28.287C220.449 29.739 224.862 34.3243 224.862 34.3243L214.106 40.2922L211.74 36.51C209.796 36.6557 206.618 34.8598 205.639 33.9772C204.661 33.0947 203.844 31.5615 200.59 31.2295C195.357 31.535 193.41 28.9192 194.627 27.0323C195.941 24.9958 201.185 26.8862 202.929 26.9727C204.673 27.0592 203.026 24.7198 203.026 24.7198L194.506 12.244C193.711 10.9134 193.579 8.70646 194.993 7.86235C196.406 7.0178 198.108 7.05488 199.797 9.88213C200.545 11.1346 202.035 13.5588 203.277 15.6381C203.277 15.6381 203.347 13.7932 205.274 13.3831C207.201 12.9729 208.021 15.0642 208.021 15.0642C208.021 15.0642 207.735 13.014 209.457 12.6038C211.179 12.1937 211.958 14.3261 211.958 14.3261C211.958 14.3261 211.917 12.686 213.434 12.3169C214.952 11.9478 215.821 13.6179 215.821 13.6179Z" fill="#FFF4D6"/>
<path d="M196.56 6.60028C198.01 6.60018 199.325 7.56954 200.467 9.48145C200.791 10.0229 201.248 10.7757 201.778 11.6474C202.205 12.3499 202.667 13.1105 203.125 13.8688C203.497 13.3558 204.11 12.8323 205.112 12.6191C205.331 12.5724 205.551 12.5487 205.764 12.5487C206.419 12.5487 207.03 12.7671 207.561 13.1864C207.905 12.4977 208.497 12.0295 209.276 11.844C209.481 11.7952 209.687 11.7704 209.888 11.7704C210.567 11.7703 211.195 12.044 211.728 12.5674C211.815 12.4456 211.911 12.3327 212.017 12.229C212.35 11.9016 212.765 11.6758 213.25 11.5579C213.456 11.5079 213.664 11.4825 213.868 11.4825C214.593 11.4825 215.285 11.7976 215.87 12.3936C216.208 12.7381 216.416 13.0816 216.488 13.2093L219.006 16.9094C223.213 22.9784 222.149 27.3348 221.714 28.5425C221.709 28.5999 221.697 29.2907 223.409 31.4609C224.387 32.7006 225.415 33.7719 225.425 33.7826C225.593 33.9573 225.671 34.2003 225.635 34.4401C225.598 34.6799 225.453 34.8894 225.241 35.007L214.484 40.9749C214.121 41.1765 213.664 41.0584 213.443 40.7062L211.31 37.2945C210.116 37.2399 208.785 36.7147 207.857 36.2703C206.768 35.7492 205.693 35.0767 205.116 34.5571C204.919 34.379 204.739 34.1898 204.549 33.9895C203.78 33.1809 202.91 32.2652 200.572 32.0126C200.3 32.0273 200.03 32.0348 199.77 32.0348C198.304 32.0348 197.036 31.8061 195.999 31.355C195.007 30.9232 194.265 30.2956 193.854 29.5401C193.338 28.5931 193.38 27.5246 193.971 26.6088C194.284 26.1247 194.756 25.7712 195.374 25.5581C195.859 25.3914 196.425 25.3103 197.107 25.3102C198.433 25.3102 199.954 25.6268 201.176 25.8811C201.864 26.0243 202.516 26.16 202.911 26.1891C202.879 26.0811 202.82 25.9269 202.713 25.7176C202.557 25.4129 202.388 25.171 202.387 25.1686C202.384 25.1655 202.383 25.1633 202.381 25.1601L193.861 12.6843C193.852 12.6713 193.843 12.6579 193.835 12.6443C193.349 11.831 193.09 10.7784 193.141 9.82861C193.205 8.64896 193.72 7.71248 194.592 7.19169C195.249 6.79933 195.911 6.60032 196.56 6.60028ZM203.283 16.4265C203.011 16.4265 202.751 16.2803 202.607 16.0384C201.906 14.8649 201.129 13.5865 200.443 12.4586C199.912 11.5843 199.453 10.8291 199.126 10.2825C198.286 8.87552 197.422 8.16214 196.56 8.16221C196.197 8.16223 195.804 8.28686 195.393 8.53263C194.865 8.84776 194.725 9.45701 194.701 9.91263C194.667 10.5473 194.844 11.2775 195.165 11.8243L203.668 24.276C203.705 24.3285 203.956 24.6938 204.168 25.1364C204.551 25.9321 204.613 26.5566 204.36 27.0455C204.222 27.3108 203.865 27.7559 203.021 27.7559C202.978 27.7559 202.935 27.7548 202.89 27.7526C202.381 27.7273 201.675 27.5804 200.858 27.4103C199.706 27.1705 198.273 26.8721 197.108 26.8722C196.147 26.8722 195.533 27.0685 195.284 27.4555C195.005 27.8883 194.984 28.3507 195.225 28.7927C195.9 30.0315 198.015 30.4729 199.77 30.4729C200.021 30.4729 200.281 30.4651 200.545 30.4497C200.587 30.4473 200.628 30.4482 200.67 30.4524C203.629 30.7544 204.815 32.0023 205.681 32.9135C205.85 33.0914 206.01 33.2594 206.162 33.3972C206.538 33.7362 207.44 34.3391 208.531 34.8614C209.711 35.4262 210.769 35.7373 211.51 35.7373C211.569 35.7373 211.627 35.7352 211.682 35.7311C211.971 35.7094 212.248 35.8498 212.402 36.0958L214.375 39.2496L223.614 34.1234C223.199 33.6602 222.646 33.0221 222.106 32.3308C221.476 31.5248 220.994 30.8118 220.672 30.2115C220.174 29.2808 220.037 28.5846 220.242 28.0204C220.393 27.6049 220.724 26.4521 220.55 24.7286C220.327 22.5142 219.375 20.1819 217.721 17.7964C217.719 17.7946 217.718 17.7927 217.717 17.7908L215.176 14.0572C215.157 14.03 215.144 14.0097 215.13 13.9809C215.105 13.9367 214.592 13.0445 213.868 13.0445C213.788 13.0445 213.704 13.0549 213.619 13.0756C213.253 13.1645 213.015 13.3657 212.869 13.7087C212.747 13.9967 212.739 14.2761 212.739 14.3103C212.754 14.6951 212.488 15.0296 212.109 15.1034C211.73 15.1774 211.355 14.9592 211.225 14.5959C211.206 14.5479 210.714 13.3322 209.888 13.3323C209.809 13.3323 209.724 13.3428 209.638 13.3634C209.35 13.4318 209.001 13.5865 208.85 14.1804C208.749 14.5775 208.794 14.9522 208.795 14.9558C208.85 15.3497 208.602 15.7264 208.217 15.825C207.832 15.9234 207.437 15.722 207.295 15.3515C207.284 15.3232 207.141 14.9896 206.863 14.6724C206.533 14.2943 206.173 14.1106 205.764 14.1106C205.66 14.1106 205.55 14.1228 205.437 14.1468C204.891 14.263 204.51 14.533 204.273 14.9722C204.091 15.3099 204.061 15.6327 204.058 15.6715C204.05 16.0186 203.815 16.3111 203.479 16.4008C203.414 16.4182 203.348 16.4265 203.283 16.4265Z" fill="#603813"/>
<defs>
<filter id="filter0_d_2_1943" x="0.13678" y="12.6206" width="187.435" height="27.75" filterUnits="userSpaceOnUse" color-interpolation-filters="sRGB">
<feFlood flood-opacity="0" result="BackgroundImageFix"/>
<feColorMatrix in="SourceAlpha" type="matrix" values="0 0 0 0 0 0 0 0 0 0 0 0 0 0 0 0 0 0 127 0" result="hardAlpha"/>
<feOffset dy="3"/>
<feGaussianBlur stdDeviation="1.5"/>
<feComposite in2="hardAlpha" operator="out"/>
<feColorMatrix type="matrix" values="0 0 0 0 0 0 0 0 0 0 0 0 0 0 0 0 0 0 0.160784 0"/>
<feBlend mode="normal" in2="BackgroundImageFix" result="effect1_dropShadow_2_1943"/>
<feBlend mode="normal" in="SourceGraphic" in2="effect1_dropShadow_2_1943" result="shape"/>
</filter>
</defs>
</svg>
